<?xml version="1.0" encoding="iso-8859-1"?>
<!-- Generator: Adobe Illustrator 19.0.0, SVG Export Plug-In . SVG Version: 6.00 Build 0)  -->
<svg xmlns="http://www.w3.org/2000/svg" xmlns:xlink="http://www.w3.org/1999/xlink" version="1.1" id="Layer_1" x="0px" y="0px" viewBox="0 0 502 502" style="enable-background:new 0 0 502 502;" xml:space="preserve" width="512" height="512">
<g>
	<g>
		<rect x="41.877" y="219.009" style="fill:#4D93E8;" width="101.305" height="272.991"/>
		<rect x="265.815" y="252.066" style="fill:#4D93E8;" width="89.038" height="239.934"/>
		<rect x="354.861" y="57.987" style="fill:#CCD7EB;" width="105.263" height="434.013"/>
		<polygon style="fill:#CCD7EB;" points="206.098,10 206.098,160.358 143.182,160.358 143.182,492 266.252,492 266.252,160.358     266.252,10   "/>
	</g>
	<g>
		<path d="M460.123,502c5.522,0,10-4.477,10-10V57.987c0-5.523-4.478-10-10-10H354.861c-5.522,0-10,4.477-10,10v184.08h-68.609    v-81.708V10c0-5.523-4.478-10-10-10h-60.154c-5.522,0-10,4.477-10,10v140.358H174V95c0-5.523-4.478-10-10-10s-10,4.477-10,10    v55.358h-10.818c-5.522,0-10,4.477-10,10v48.65H82V172c0-5.523-4.478-10-10-10s-10,4.477-10,10v37.009H41.877    c-5.522,0-10,4.477-10,10V492c0,5.523,4.478,10,10,10H460.123z M216.098,20h40.154v130.358h-40.154V20z M51.877,229.009h81.305    V482H51.877V229.009z M256.252,482h-103.07V170.358h103.07V482z M344.853,482h-68.601V262.066h68.601V482z M450.123,482h-85.262    V67.987h85.262V482z"/>
		<path d="M182.638,228.424c5.522,0,10-4.477,10-10v-13.278c0-5.523-4.478-10-10-10s-10,4.477-10,10v13.278    C172.638,223.947,177.115,228.424,182.638,228.424z"/>
		<path d="M225.293,228.424c5.522,0,10-4.477,10-10v-13.278c0-5.523-4.478-10-10-10s-10,4.477-10,10v13.278    C215.293,223.947,219.771,228.424,225.293,228.424z"/>
		<path d="M235.956,103.438c-5.522,0-10,4.477-10,10v13.278c0,5.523,4.478,10,10,10s10-4.477,10-10v-13.278    C245.956,107.915,241.479,103.438,235.956,103.438z"/>
		<path d="M235.956,51.186c-5.522,0-10,4.477-10,10v13.278c0,5.523,4.478,10,10,10s10-4.477,10-10V61.186    C245.956,55.663,241.479,51.186,235.956,51.186z"/>
		<path d="M182.638,286.643c5.522,0,10-4.477,10-10v-13.278c0-5.523-4.478-10-10-10s-10,4.477-10,10v13.278    C172.638,282.166,177.115,286.643,182.638,286.643z"/>
		<path d="M225.293,286.643c5.522,0,10-4.477,10-10v-13.278c0-5.523-4.478-10-10-10s-10,4.477-10,10v13.278    C215.293,282.166,219.771,286.643,225.293,286.643z"/>
		<path d="M182.638,340.775c5.522,0,10-4.477,10-10v-13.278c0-5.523-4.478-10-10-10s-10,4.477-10,10v13.278    C172.638,336.298,177.115,340.775,182.638,340.775z"/>
		<path d="M225.293,340.775c5.522,0,10-4.477,10-10v-13.278c0-5.523-4.478-10-10-10s-10,4.477-10,10v13.278    C215.293,336.298,219.771,340.775,225.293,340.775z"/>
		<path d="M182.638,398.994c5.522,0,10-4.477,10-10v-13.278c0-5.523-4.478-10-10-10s-10,4.477-10,10v13.278    C172.638,394.517,177.115,398.994,182.638,398.994z"/>
		<path d="M225.293,398.994c5.522,0,10-4.477,10-10v-13.278c0-5.523-4.478-10-10-10s-10,4.477-10,10v13.278    C215.293,394.517,219.771,398.994,225.293,398.994z"/>
		<path d="M182.638,457.212c5.522,0,10-4.477,10-10v-13.278c0-5.523-4.478-10-10-10s-10,4.477-10,10v13.278    C172.638,452.735,177.115,457.212,182.638,457.212z"/>
		<path d="M225.293,457.212c5.522,0,10-4.477,10-10v-13.278c0-5.523-4.478-10-10-10s-10,4.477-10,10v13.278    C215.293,452.735,219.771,457.212,225.293,457.212z"/>
		<path d="M390.58,228.424c5.522,0,10-4.477,10-10v-13.278c0-5.523-4.478-10-10-10s-10,4.477-10,10v13.278    C380.58,223.947,385.058,228.424,390.58,228.424z"/>
		<path d="M427.903,228.424c5.522,0,10-4.477,10-10v-13.278c0-5.523-4.478-10-10-10s-10,4.477-10,10v13.278    C417.903,223.947,422.381,228.424,427.903,228.424z"/>
		<path d="M390.58,286.643c5.522,0,10-4.477,10-10v-13.278c0-5.523-4.478-10-10-10s-10,4.477-10,10v13.278    C380.58,282.166,385.058,286.643,390.58,286.643z"/>
		<path d="M427.903,286.643c5.522,0,10-4.477,10-10v-13.278c0-5.523-4.478-10-10-10s-10,4.477-10,10v13.278    C417.903,282.166,422.381,286.643,427.903,286.643z"/>
		<path d="M390.58,340.775c5.522,0,10-4.477,10-10v-13.278c0-5.523-4.478-10-10-10s-10,4.477-10,10v13.278    C380.58,336.298,385.058,340.775,390.58,340.775z"/>
		<path d="M427.903,340.775c5.522,0,10-4.477,10-10v-13.278c0-5.523-4.478-10-10-10s-10,4.477-10,10v13.278    C417.903,336.298,422.381,340.775,427.903,340.775z"/>
		<path d="M390.58,117.292c5.522,0,10-4.477,10-10V94.014c0-5.523-4.478-10-10-10s-10,4.477-10,10v13.278    C380.58,112.815,385.058,117.292,390.58,117.292z"/>
		<path d="M427.903,117.292c5.522,0,10-4.477,10-10V94.014c0-5.523-4.478-10-10-10s-10,4.477-10,10v13.278    C417.903,112.815,422.381,117.292,427.903,117.292z"/>
		<path d="M390.58,171.425c5.522,0,10-4.477,10-10v-13.278c0-5.523-4.478-10-10-10s-10,4.477-10,10v13.278    C380.58,166.948,385.058,171.425,390.58,171.425z"/>
		<path d="M427.903,171.425c5.522,0,10-4.477,10-10v-13.278c0-5.523-4.478-10-10-10s-10,4.477-10,10v13.278    C417.903,166.948,422.381,171.425,427.903,171.425z"/>
		<path d="M390.58,398.994c5.522,0,10-4.477,10-10v-13.278c0-5.523-4.478-10-10-10s-10,4.477-10,10v13.278    C380.58,394.517,385.058,398.994,390.58,398.994z"/>
		<path d="M427.903,398.994c5.522,0,10-4.477,10-10v-13.278c0-5.523-4.478-10-10-10s-10,4.477-10,10v13.278    C417.903,394.517,422.381,398.994,427.903,398.994z"/>
		<path d="M390.58,457.212c5.522,0,10-4.477,10-10v-13.278c0-5.523-4.478-10-10-10s-10,4.477-10,10v13.278    C380.58,452.735,385.058,457.212,390.58,457.212z"/>
		<path d="M427.903,457.212c5.522,0,10-4.477,10-10v-13.278c0-5.523-4.478-10-10-10s-10,4.477-10,10v13.278    C417.903,452.735,422.381,457.212,427.903,457.212z"/>
		<path d="M111.19,248.465H74.935c-5.522,0-10,4.477-10,10s4.478,10,10,10h36.256c5.522,0,10-4.477,10-10    S116.713,248.465,111.19,248.465z"/>
		<path d="M111.19,287.207H74.935c-5.522,0-10,4.477-10,10s4.478,10,10,10h36.256c5.522,0,10-4.477,10-10    S116.713,287.207,111.19,287.207z"/>
		<path d="M111.19,327.2H74.935c-5.522,0-10,4.477-10,10s4.478,10,10,10h36.256c5.522,0,10-4.477,10-10S116.713,327.2,111.19,327.2z    "/>
		<path d="M111.19,365.942H74.935c-5.522,0-10,4.477-10,10s4.478,10,10,10h36.256c5.522,0,10-4.477,10-10    S116.713,365.942,111.19,365.942z"/>
		<path d="M111.19,405.935H74.935c-5.522,0-10,4.477-10,10s4.478,10,10,10h36.256c5.522,0,10-4.477,10-10    S116.713,405.935,111.19,405.935z"/>
		<path d="M111.19,444.677H74.935c-5.522,0-10,4.477-10,10s4.478,10,10,10h36.256c5.522,0,10-4.477,10-10    S116.713,444.677,111.19,444.677z"/>
		<path d="M296.739,296.19h25.593c5.522,0,10-4.477,10-10s-4.478-10-10-10h-25.593c-5.522,0-10,4.477-10,10    S291.217,296.19,296.739,296.19z"/>
		<path d="M296.739,343.111h25.593c5.522,0,10-4.477,10-10s-4.478-10-10-10h-25.593c-5.522,0-10,4.477-10,10    S291.217,343.111,296.739,343.111z"/>
		<path d="M296.739,391.097h25.593c5.522,0,10-4.477,10-10s-4.478-10-10-10h-25.593c-5.522,0-10,4.477-10,10    S291.217,391.097,296.739,391.097z"/>
		<path d="M322.332,420.15h-25.593c-5.522,0-10,4.477-10,10s4.478,10,10,10h25.593c5.522,0,10-4.477,10-10    S327.854,420.15,322.332,420.15z"/>
		<path d="M164,75c5.522,0,10-4.477,10-10V53c0-5.523-4.478-10-10-10s-10,4.477-10,10v12C154,70.523,158.478,75,164,75z"/>
	</g>
</g>















</svg>
