<?xml version="1.0" encoding="UTF-8" standalone="no"?>
<!-- Generator: Adobe Illustrator 19.0.0, SVG Export Plug-In . SVG Version: 6.00 Build 0)  -->

<svg
   xmlns:dc="http://purl.org/dc/elements/1.1/"
   xmlns:cc="http://creativecommons.org/ns#"
   xmlns:rdf="http://www.w3.org/1999/02/22-rdf-syntax-ns#"
   xmlns:svg="http://www.w3.org/2000/svg"
   xmlns="http://www.w3.org/2000/svg"
   xmlns:sodipodi="http://sodipodi.sourceforge.net/DTD/sodipodi-0.dtd"
   xmlns:inkscape="http://www.inkscape.org/namespaces/inkscape"
   version="1.1"
   id="Layer_1"
   x="0px"
   y="0px"
   viewBox="0 0 502 502"
   style="enable-background:new 0 0 502 502;"
   xml:space="preserve"
   width="512"
   height="512"
   inkscape:version="0.91 r13725"
   sodipodi:docname="CityIcon.svg"><metadata
     id="metadata97"><rdf:RDF><cc:Work
         rdf:about=""><dc:format>image/svg+xml</dc:format><dc:type
           rdf:resource="http://purl.org/dc/dcmitype/StillImage" /></cc:Work></rdf:RDF></metadata><defs
     id="defs95" /><sodipodi:namedview
     pagecolor="#ffffff"
     bordercolor="#666666"
     borderopacity="1"
     objecttolerance="10"
     gridtolerance="10"
     guidetolerance="10"
     inkscape:pageopacity="0"
     inkscape:pageshadow="2"
     inkscape:window-width="1087"
     inkscape:window-height="747"
     id="namedview93"
     showgrid="false"
     inkscape:zoom="2.6074563"
     inkscape:cx="311.93876"
     inkscape:cy="397.3112"
     inkscape:window-x="0"
     inkscape:window-y="0"
     inkscape:window-maximized="0"
     inkscape:current-layer="g15" /><g
     id="g3"><g
       id="g4249"><rect
         y="59.794594"
         x="367.00037"
         height="434.68488"
         width="102.2788"
         id="rect4247"
         style="opacity:1;fill:#73c9c9;fill-opacity:1" /><rect
         y="16.175694"
         x="209.06989"
         height="141.38539"
         width="55.651699"
         id="rect4245"
         style="opacity:1;fill:#73c9c9;fill-opacity:1" /><rect
         y="168.08978"
         x="142.8895"
         height="329.39789"
         width="130.8567"
         id="rect4243"
         style="opacity:1;fill:#73c9c9;fill-opacity:1" /><rect
         y="249.31119"
         x="279.7626"
         height="237.6478"
         width="75.205002"
         id="rect4239"
         style="opacity:1;fill:#f58cac;fill-opacity:1" /><rect
         y="223.74149"
         x="49.6353"
         height="267.72983"
         width="94.758301"
         id="rect4237"
         style="opacity:1;fill:#f58cac;fill-opacity:1" /><g
         transform="translate(-552.00469,3.0082)"
         id="g15"><path
           inkscape:connector-curvature="0"
           id="path23"
           d="m 792.47299,101.9339 c -5.522,0 -10,4.477 -10,10 l 0,13.278 c 0,5.523 4.478,10 10,10 5.522,0 10,-4.477 10,-10 l 0,-13.278 c 0,-5.523 -4.477,-10 -10,-10 z" /><path
           inkscape:connector-curvature="0"
           id="path27"
           d="m 739.15499,285.1389 c 5.522,0 10,-4.477 10,-10 l 0,-13.278 c 0,-5.523 -4.478,-10 -10,-10 -5.522,0 -10,4.477 -10,10 l 0,13.278 c 0,5.523 4.477,10 10,10 z" /><path
           inkscape:connector-curvature="0"
           id="path29"
           d="m 781.80999,285.1389 c 5.522,0 10,-4.477 10,-10 l 0,-13.278 c 0,-5.523 -4.478,-10 -10,-10 -5.522,0 -10,4.477 -10,10 l 0,13.278 c 0,5.523 4.478,10 10,10 z" /><path
           inkscape:connector-curvature="0"
           id="path33"
           d="m 781.80999,339.2709 c 5.522,0 10,-4.477 10,-10 l 0,-13.278 c 0,-5.523 -4.478,-10 -10,-10 -5.522,0 -10,4.477 -10,10 l 0,13.278 c 0,5.523 4.478,10 10,10 z" /><path
           inkscape:connector-curvature="0"
           id="path37"
           d="m 781.80999,397.4899 c 5.522,0 10,-4.477 10,-10 l 0,-13.278 c 0,-5.523 -4.478,-10 -10,-10 -5.522,0 -10,4.477 -10,10 l 0,13.278 c 0,5.523 4.478,10 10,10 z" /><path
           inkscape:connector-curvature="0"
           id="path41"
           d="m 781.80999,455.7079 c 5.522,0 10,-4.477 10,-10 l 0,-13.278 c 0,-5.523 -4.478,-10 -10,-10 -5.522,0 -10,4.477 -10,10 l 0,13.278 c 0,5.523 4.478,10 10,10 z" /><path
           inkscape:connector-curvature="0"
           id="path43"
           d="m 947.09699,226.9199 c 5.522,0 10,-4.477 10,-10 l 0,-13.278 c 0,-5.523 -4.478,-10 -10,-10 -5.522,0 -10,4.477 -10,10 l 0,13.278 c 0,5.523 4.478,10 10,10 z" /><path
           inkscape:connector-curvature="0"
           id="path45"
           d="m 984.41999,226.9199 c 5.522,0 10,-4.477 10,-10 l 0,-13.278 c 0,-5.523 -4.478,-10 -10,-10 -5.522,0 -10,4.477 -10,10 l 0,13.278 c 0,5.523 4.478,10 10,10 z" /><path
           inkscape:connector-curvature="0"
           id="path47"
           d="m 947.09699,285.1389 c 5.522,0 10,-4.477 10,-10 l 0,-13.278 c 0,-5.523 -4.478,-10 -10,-10 -5.522,0 -10,4.477 -10,10 l 0,13.278 c 0,5.523 4.478,10 10,10 z" /><path
           inkscape:connector-curvature="0"
           id="path49"
           d="m 984.41999,285.1389 c 5.522,0 10,-4.477 10,-10 l 0,-13.278 c 0,-5.523 -4.478,-10 -10,-10 -5.522,0 -10,4.477 -10,10 l 0,13.278 c 0,5.523 4.478,10 10,10 z" /><path
           inkscape:connector-curvature="0"
           id="path51"
           d="m 947.09699,339.2709 c 5.522,0 10,-4.477 10,-10 l 0,-13.278 c 0,-5.523 -4.478,-10 -10,-10 -5.522,0 -10,4.477 -10,10 l 0,13.278 c 0,5.523 4.478,10 10,10 z" /><path
           inkscape:connector-curvature="0"
           id="path53"
           d="m 984.41999,339.2709 c 5.522,0 10,-4.477 10,-10 l 0,-13.278 c 0,-5.523 -4.478,-10 -10,-10 -5.522,0 -10,4.477 -10,10 l 0,13.278 c 0,5.523 4.478,10 10,10 z" /><path
           inkscape:connector-curvature="0"
           id="path55"
           d="m 947.09699,115.7879 c 5.522,0 10,-4.477 10,-10 l 0,-13.278 c 0,-5.523 -4.478,-10 -10,-10 -5.522,0 -10,4.477 -10,10 l 0,13.278 c 0,5.523 4.478,10 10,10 z" /><path
           inkscape:connector-curvature="0"
           id="path57"
           d="m 984.41999,115.7879 c 5.522,0 10,-4.477 10,-10 l 0,-13.278 c 0,-5.523 -4.478,-10 -10,-10 -5.522,0 -10,4.477 -10,10 l 0,13.278 c 0,5.523 4.478,10 10,10 z" /><path
           inkscape:connector-curvature="0"
           id="path59"
           d="m 947.09699,169.9209 c 5.522,0 10,-4.477 10,-10 l 0,-13.278 c 0,-5.523 -4.478,-10 -10,-10 -5.522,0 -10,4.477 -10,10 l 0,13.278 c 0,5.523 4.478,10 10,10 z" /><path
           inkscape:connector-curvature="0"
           id="path61"
           d="m 984.41999,169.9209 c 5.522,0 10,-4.477 10,-10 l 0,-13.278 c 0,-5.523 -4.478,-10 -10,-10 -5.522,0 -10,4.477 -10,10 l 0,13.278 c 0,5.523 4.478,10 10,10 z" /><path
           inkscape:connector-curvature="0"
           id="path63"
           d="m 947.09699,397.4899 c 5.522,0 10,-4.477 10,-10 l 0,-13.278 c 0,-5.523 -4.478,-10 -10,-10 -5.522,0 -10,4.477 -10,10 l 0,13.278 c 0,5.523 4.478,10 10,10 z" /><path
           inkscape:connector-curvature="0"
           id="path65"
           d="m 984.41999,397.4899 c 5.522,0 10,-4.477 10,-10 l 0,-13.278 c 0,-5.523 -4.478,-10 -10,-10 -5.522,0 -10,4.477 -10,10 l 0,13.278 c 0,5.523 4.478,10 10,10 z" /><path
           inkscape:connector-curvature="0"
           id="path67"
           d="m 947.09699,455.7079 c 5.522,0 10,-4.477 10,-10 l 0,-13.278 c 0,-5.523 -4.478,-10 -10,-10 -5.522,0 -10,4.477 -10,10 l 0,13.278 c 0,5.523 4.478,10 10,10 z" /><path
           inkscape:connector-curvature="0"
           id="path69"
           d="m 984.41999,455.7079 c 5.522,0 10,-4.477 10,-10 l 0,-13.278 c 0,-5.523 -4.478,-10 -10,-10 -5.522,0 -10,4.477 -10,10 l 0,13.278 c 0,5.523 4.478,10 10,10 z" /><path
           inkscape:connector-curvature="0"
           id="path71"
           d="m 667.70699,246.9609 -36.255,0 c -5.522,0 -10,4.477 -10,10 0,5.523 4.478,10 10,10 l 36.256,0 c 5.522,0 10,-4.477 10,-10 0,-5.523 -4.478,-10 -10.001,-10 z" /><path
           style="opacity:1;fill:#314e55;fill-opacity:1"
           d="m 591.30957,496.9887 -3.69188,-3.69187 0,-138.99479 c 0,-163.04493 -1.99281,-146.92095 18.15837,-146.92095 l 11.92363,0 0,-19.35045 c 0,-17.29884 0.33052,-19.77064 3.11737,-23.31356 3.81403,-4.84876 10.60375,-5.28297 14.93183,-0.95488 2.71109,2.71109 3.0082,5.01365 3.0082,23.31354 l 0,20.30535 25.5697,0 25.56969,0 0,-26.32175 c 0,-24.31628 0.22921,-26.55094 3.00821,-29.32995 2.20601,-2.20601 5.01366,-3.00819 10.52869,-3.00819 l 7.52051,0 0,-29.84889 c 0,-27.006916 0.26188,-30.085888 2.75061,-32.338147 3.65088,-3.304004 11.21176,-3.165953 14.31342,0.261342 2.13871,2.363244 2.48926,6.91737 2.48926,32.338145 l 0,29.58755 11.28076,0 11.28075,0 0,-72.863566 0,-72.8635603 3.34287,-2.34143832 c 2.7827,-1.94907828 8.95781,-2.34143838 36.85045,-2.34143838 31.50211,0 33.68762,0.1800442 36.51578,3.0082 2.9571,2.9571051 3.00819,5.0136665 3.00819,121.080053 l 0,118.07184 33.8091,0 33.80911,0 0.40916,-93.84907 c 0.39181,-89.865275 0.5308,-93.983439 3.27448,-97.014449 2.8165,-3.111533 3.8335,-3.165375 59.788,-3.165375 54.91717,0 57.02857,0.105979 59.93087,3.0082 2.9808,2.980882 3.0081,5.013666 3.0081,223.848714 l 0,220.84051 -3.4811,3.27039 -3.4812,3.27037 -212.42551,0 -212.42554,0 -3.69188,-3.69188 z m 97.08281,-142.95786 0,-125.59235 -39.85864,0 -39.85865,0 0,125.59235 0,125.59234 39.85865,0 39.85864,0 0,-125.59234 z m 123.3362,-29.32995 0,-154.92229 -50.38734,0 -50.38735,0 0,154.92229 0,154.92229 50.38735,0 50.38734,0 0,-154.92229 z m 88.7419,45.87505 0,-109.04725 -33.84225,0 -33.84225,0 0,109.04725 0,109.04724 33.84225,0 33.84225,0 0,-109.04724 z m 105.28702,-97.01445 0,-206.061694 -42.11477,0 -42.1148,0 0,206.061694 0,206.06169 42.1148,0 42.11477,0 0,-206.06169 z M 811.72858,84.044895 l 0,-64.676299 -19.5533,0 -19.5533,0 0,64.676299 0,64.676305 19.5533,0 19.5533,0 0,-64.676305 z"
           id="path4336"
           inkscape:connector-curvature="0" /><path
           style="opacity:1;fill:#314e55;fill-opacity:1"
           d="m 714.29625,71.174758 c -2.93449,-2.055391 -3.34287,-3.680682 -3.34287,-13.303783 0,-12.501348 2.19777,-15.940879 10.18581,-15.940879 6.73106,0 9.36748,4.539057 9.36748,16.127722 0,7.436512 -0.63893,10.080916 -3.0082,12.450178 -3.60608,3.606082 -8.6426,3.860445 -13.20222,0.666762 z"
           id="path4338"
           inkscape:connector-curvature="0" /><path
           style="opacity:1;fill:#314e55;fill-opacity:1"
           d="m 785.33803,80.353014 c -3.22109,-3.221097 -3.69188,-5.043209 -3.69188,-14.28895 0,-12.475136 2.75192,-16.613468 11.04763,-16.613468 7.86576,0 10.01373,3.584016 9.98674,16.663534 -0.0249,12.077325 -0.53647,13.579182 -5.51846,16.201496 -4.91986,2.589612 -7.73989,2.12153 -11.82403,-1.962612 z"
           id="path4340"
           inkscape:connector-curvature="0" /><path
           style="opacity:1;fill:#314e55;fill-opacity:1"
           d="m 236.6044,137.53587 c -3.54807,-5.06557 -3.26246,-22.78395 0.44098,-27.3575 3.49165,-4.312 11.18576,-4.65776 15.55989,-0.69922 4.35226,3.93874 4.55852,25.05761 0.28252,28.92733 -4.19769,3.79886 -13.35573,3.30922 -16.28339,-0.87061 z"
           id="path4342"
           inkscape:connector-curvature="0"
           transform="matrix(0.98046872,0,0,0.98046872,552.00469,-3.0082)" /><path
           style="opacity:1;fill:#314e55;fill-opacity:1"
           d="m 731.4921,224.18379 c -1.85658,-2.0515 -2.48927,-5.65556 -2.48927,-14.17979 0,-10.6324 0.28381,-11.65242 4.07118,-14.63156 4.76212,-3.74588 10.29478,-3.0865 14.35404,1.71072 3.97765,4.70077 3.72492,22.74209 -0.37602,26.84304 -3.8408,3.8408 -12.19206,3.97904 -15.55993,0.25759 z"
           id="path4344"
           inkscape:connector-curvature="0" /><path
           style="opacity:1;fill:#314e55;fill-opacity:1"
           d="m 773.45888,223.59152 c -3.47876,-4.96663 -3.19873,-22.33896 0.43238,-26.82318 3.42344,-4.22778 10.96727,-4.56678 15.25597,-0.68556 4.26726,3.86181 4.46949,24.5682 0.277,28.36235 -4.1157,3.72465 -13.09487,3.24458 -15.96535,-0.85361 z"
           id="path4346"
           inkscape:connector-curvature="0" /><path
           style="opacity:1;fill:#314e55;fill-opacity:1"
           d="m 73.83709,272.17738 c -4.600086,-4.60008 -4.761316,-8.3613 -0.585958,-13.66941 l 3.179467,-4.04203 22.899589,0 c 20.854172,0 23.173642,0.27405 25.967712,3.06812 3.94458,3.94458 3.94458,11.39605 0,15.34062 -2.78688,2.78688 -5.11354,3.06813 -25.381753,3.06813 -21.6456,0 -22.426362,-0.11273 -26.079057,-3.76543 z"
           id="path4348"
           inkscape:connector-curvature="0"
           transform="matrix(0.98046872,0,0,0.98046872,552.00469,-3.0082)" /><path
           style="opacity:1;fill:#314e55;fill-opacity:1"
           d="m 624.39943,302.95981 c -4.49455,-4.49455 -4.72457,-9.67343 -0.62509,-14.07371 2.89685,-3.1094 4.34254,-3.29181 26.08863,-3.29181 20.39299,0 23.30609,0.31409 25.51111,2.75061 3.88104,4.28851 3.17841,11.52998 -1.47383,15.18943 -3.57796,2.81442 -5.99636,3.11736 -24.88601,3.11736 -20.209,0 -21.0489,-0.12597 -24.61481,-3.69188 z"
           id="path4350"
           inkscape:connector-curvature="0" /><path
           style="opacity:1;fill:#314e55;fill-opacity:1"
           d="m 183.9336,291.96347 c -3.03666,-2.12696 -3.40946,-3.72047 -3.40946,-14.57359 0,-10.14009 0.51501,-12.70051 3.06813,-15.25363 4.14616,-4.14616 10.08254,-3.86348 14.64332,0.6973 3.21469,3.21469 3.76542,5.20379 3.76542,13.59968 0,7.62618 -0.71388,10.7418 -3.17946,13.87629 -3.65876,4.65135 -9.65716,5.31774 -14.88795,1.65395 z"
           id="path4352"
           inkscape:connector-curvature="0"
           transform="matrix(0.98046872,0,0,0.98046872,552.00469,-3.0082)" /><path
           style="opacity:1;fill:#314e55;fill-opacity:1"
           d="m 623.71597,342.75009 c -4.06518,-4.06519 -3.78802,-9.88562 0.68368,-14.35731 3.56591,-3.56592 4.40581,-3.69189 24.61481,-3.69189 18.88966,0 21.30805,0.30295 24.88602,3.11737 2.83894,2.23311 3.96309,4.51353 3.96309,8.03943 0,8.97455 -2.64893,9.9006 -28.32031,9.9006 -20.81362,0 -23.08347,-0.26437 -25.82729,-3.0082 z"
           id="path4354"
           inkscape:connector-curvature="0" /><path
           style="opacity:1;fill:#314e55;fill-opacity:1"
           d="m 623.82478,380.9018 c -4.09381,-5.20444 -3.93572,-8.89219 0.57452,-13.40243 3.58135,-3.58135 4.34686,-3.69188 25.5697,-3.69188 19.87234,0 22.15356,0.27575 24.88601,3.0082 1.67123,1.67122 3.00821,5.01366 3.00821,7.5205 0,2.50683 -1.33698,5.84928 -3.00821,7.5205 -2.7395,2.7395 -5.01367,3.0082 -25.46053,3.0082 l -22.45233,0 -3.11737,-3.96309 z"
           id="path4356"
           inkscape:connector-curvature="0" /><path
           style="opacity:1;fill:#314e55;fill-opacity:1"
           d="m 627.19895,423.96099 c -6.63634,-2.67384 -8.49912,-11.51803 -3.48255,-16.5346 2.74682,-2.74681 5.01367,-3.0082 26.08863,-3.0082 20.44976,0 23.36415,0.31351 25.5697,2.75061 3.88105,4.2885 3.17841,11.52998 -1.47382,15.18942 -3.56851,2.80699 -5.92719,3.10787 -23.68958,3.02203 -10.84956,-0.0524 -21.20514,-0.6911 -23.01238,-1.41926 z"
           id="path4358"
           inkscape:connector-curvature="0" /><path
           style="opacity:1;fill:#314e55;fill-opacity:1"
           d="m 623.71606,460.06989 c -3.79072,-3.79073 -3.84399,-9.16204 -0.13634,-13.7463 2.7394,-3.38707 3.86851,-3.57306 24.48076,-4.03232 20.20466,-0.45017 21.87516,-0.27203 25.70604,2.74135 2.96889,2.33532 4.09714,4.57823 4.09714,8.14487 0,8.97455 -2.64893,9.9006 -28.32031,9.9006 -20.81362,0 -23.08346,-0.26438 -25.82729,-3.0082 z"
           id="path4360"
           inkscape:connector-curvature="0" /><path
           style="opacity:1;fill:#314e55;fill-opacity:1"
           d="m 736.52333,455.97958 c -6.22787,-2.24842 -7.5205,-5.16473 -7.5205,-16.96709 0,-13.42353 2.06366,-16.5451 10.93788,-16.5451 7.66447,0 10.11952,4.05471 10.11952,16.71314 0,7.3875 -0.69296,10.82882 -2.63217,13.07153 -2.94056,3.40077 -7.4963,4.95805 -10.90473,3.72752 z"
           id="path4362"
           inkscape:connector-curvature="0" /><path
           style="opacity:1;fill:#314e55;fill-opacity:1"
           d="m 732.01104,395.39359 c -2.49693,-2.49692 -3.00821,-5.01367 -3.00821,-14.80788 0,-13.29586 2.0672,-16.79622 9.89509,-16.75519 8.24454,0.0432 11.16231,4.74721 11.16231,17.99565 0,7.75379 -0.57759,9.76945 -3.69187,12.88374 -4.47171,4.4717 -10.29214,4.74886 -14.35732,0.68368 z"
           id="path4364"
           inkscape:connector-curvature="0" /><path
           style="opacity:1;fill:#314e55;fill-opacity:1"
           d="m 732.3457,337.40045 c -2.97735,-2.08542 -3.34287,-3.6478 -3.34287,-14.28895 0,-9.94204 0.50495,-12.45245 3.00821,-14.95571 4.06518,-4.06519 9.88561,-3.78802 14.35732,0.68369 3.1519,3.1519 3.69187,5.10215 3.69187,13.33406 0,7.47722 -0.69993,10.53199 -3.11736,13.60525 -3.5873,4.56052 -9.46854,5.21389 -14.59717,1.62166 z"
           id="path4366"
           inkscape:connector-curvature="0" /><path
           style="opacity:1;fill:#314e55;fill-opacity:1"
           d="m 226.54601,291.28343 c -2.51735,-2.51735 -3.06813,-5.11354 -3.06813,-14.46225 0,-10.48207 0.32355,-11.64862 4.04204,-14.57359 5.11552,-4.02386 9.79529,-4.04101 14.07744,-0.0516 2.87434,2.67785 3.35739,4.77468 3.35739,14.57359 0,13.11947 -2.72553,17.58195 -10.73843,17.58195 -2.55677,0 -5.9658,-1.36361 -7.67031,-3.06812 z"
           id="path4372"
           inkscape:connector-curvature="0"
           transform="matrix(0.98046872,0,0,0.98046872,552.00469,-3.0082)" /><path
           style="opacity:1;fill:#314e55;fill-opacity:1"
           d="m 226.54601,346.50967 c -2.51735,-2.51735 -3.06813,-5.11354 -3.06813,-14.46225 0,-10.48208 0.32355,-11.64863 4.04204,-14.57359 5.10247,-4.0136 10.42321,-4.05484 14.36671,-0.11134 2.52268,2.52268 3.06812,5.11354 3.06812,14.57359 0,13.18359 -2.71364,17.64171 -10.73843,17.64171 -2.55677,0 -5.9658,-1.36361 -7.67031,-3.06812 z"
           id="path4374"
           inkscape:connector-curvature="0"
           transform="matrix(0.98046872,0,0,0.98046872,552.00469,-3.0082)" /><path
           style="opacity:1;fill:#314e55;fill-opacity:1"
           d="m 227.51992,406.22675 c -3.71849,-2.92497 -4.04204,-4.09151 -4.04204,-14.57359 0,-13.06413 2.73585,-17.53037 10.73844,-17.53037 7.95758,0 10.74192,4.48465 10.71494,17.2582 -0.0255,12.05093 -0.55931,13.59336 -5.62839,16.26151 -4.75177,2.50114 -7.17333,2.21018 -11.78295,-1.41575 z"
           id="path4376"
           inkscape:connector-curvature="0"
           transform="matrix(0.98046872,0,0,0.98046872,552.00469,-3.0082)" /><path
           style="opacity:1;fill:#314e55;fill-opacity:1"
           d="m 230.09793,467.67557 c -4.95015,-1.97334 -6.62005,-6.30559 -6.62005,-17.17452 0,-12.52624 2.57408,-16.54984 10.58766,-16.54984 8.78761,0 10.88921,3.30824 10.88921,17.14123 0,9.0606 -0.57505,12.03539 -2.68461,13.88784 -3.73163,3.27681 -8.22023,4.27073 -12.17221,2.69529 z"
           id="path4378"
           inkscape:connector-curvature="0"
           transform="matrix(0.98046872,0,0,0.98046872,552.00469,-3.0082)" /><path
           style="opacity:1;fill:#314e55;fill-opacity:1"
           d="m 845.84408,291.91239 c -3.91702,-4.32827 -3.23632,-11.55992 1.43391,-15.23353 3.36535,-2.64718 6.07699,-3.11737 17.97843,-3.11737 16.0161,0 20.71947,1.57669 23.30198,7.81141 1.58303,3.82179 1.42425,4.95427 -1.18529,8.45346 -2.94046,3.94292 -3.44767,4.05062 -21.00653,4.46061 -15.9457,0.37232 -18.28114,0.10209 -20.5225,-2.37458 z"
           id="path4380"
           inkscape:connector-curvature="0" /><path
           style="opacity:1;fill:#314e55;fill-opacity:1"
           d="m 847.27777,339.63272 c -2.83893,-2.23311 -3.96308,-4.51354 -3.96308,-8.03943 0,-8.52765 3.15964,-9.90374 22.67993,-9.87756 9.4483,0.0126 17.92345,0.52029 18.83368,1.12806 3.80389,2.53994 5.41863,8.0179 3.63368,12.32715 -2.48332,5.99527 -7.33284,7.57915 -23.20577,7.57915 -11.90144,0 -14.61308,-0.47018 -17.97844,-3.11737 z"
           id="path4382"
           inkscape:connector-curvature="0" /><path
           style="opacity:1;fill:#314e55;fill-opacity:1"
           d="m 850.83474,389.81423 c -7.79581,-2.86647 -10.17036,-12.61291 -4.35546,-17.8771 2.46572,-2.23221 6.00948,-2.98471 16.03884,-3.40576 7.08059,-0.29725 15.38967,0.21331 18.46463,1.13459 10.54846,3.1604 11.21051,16.07916 1.00632,19.63637 -4.65642,1.62323 -27.12771,1.99246 -31.15433,0.5119 z"
           id="path4384"
           inkscape:connector-curvature="0" /><path
           style="opacity:1;fill:#314e55;fill-opacity:1"
           d="m 846.65728,436.67105 c -4.37008,-3.06092 -4.54973,-11.49271 -0.33468,-15.70776 2.63987,-2.63986 5.01367,-3.0082 19.38667,-3.0082 13.41079,0 16.94211,0.47693 19.48916,2.63217 4.79723,4.05927 5.45662,9.59193 1.71073,14.35405 -3.14069,3.99275 -3.52708,4.07118 -20.0557,4.07118 -12.81922,0 -17.65347,-0.56046 -20.19618,-2.34144 z"
           id="path4386"
           inkscape:connector-curvature="0" /><path
           style="opacity:1;fill:#314e55;fill-opacity:1"
           d="m 399.89503,468.13098 c -6.23473,-2.2509 -7.67031,-5.32678 -7.67031,-16.43448 0,-13.88618 2.33531,-17.74529 10.73844,-17.74529 8.40312,0 10.73843,3.85911 10.73843,17.74529 0,8.4853 -0.59977,11.45304 -2.68461,13.28378 -3.30975,2.90635 -8.06637,4.25384 -11.12195,3.1507 z"
           id="path4388"
           inkscape:connector-curvature="0"
           transform="matrix(0.98046872,0,0,0.98046872,552.00469,-3.0082)" /><path
           style="opacity:1;fill:#314e55;fill-opacity:1"
           d="m 396.26676,406.22675 c -3.71849,-2.92497 -4.04204,-4.09151 -4.04204,-14.57359 0,-13.06413 2.73585,-17.53037 10.73844,-17.53037 8.00258,0 10.73843,4.46624 10.73843,17.53037 0,10.48208 -0.32354,11.64862 -4.04204,14.57359 -2.22312,1.74871 -5.2365,3.17947 -6.69639,3.17947 -1.4599,0 -4.47328,-1.43076 -6.6964,-3.17947 z"
           id="path4390"
           inkscape:connector-curvature="0"
           transform="matrix(0.98046872,0,0,0.98046872,552.00469,-3.0082)" /><path
           style="opacity:1;fill:#314e55;fill-opacity:1"
           d="m 395.29285,346.50967 c -2.50971,-2.5097 -3.06813,-5.11354 -3.06813,-14.30618 0,-9.76352 0.46586,-11.67572 3.55051,-14.57359 4.60619,-4.3273 10.40384,-4.24187 14.59083,0.21497 2.78579,2.96534 3.33553,5.36728 3.33553,14.57359 0,12.66642 -2.8117,17.15933 -10.73843,17.15933 -2.55677,0 -5.9658,-1.36361 -7.67031,-3.06812 z"
           id="path4392"
           inkscape:connector-curvature="0"
           transform="matrix(0.98046872,0,0,0.98046872,552.00469,-3.0082)" /><path
           style="opacity:1;fill:#314e55;fill-opacity:1"
           d="m 395.29285,291.28343 c -2.51735,-2.51735 -3.06813,-5.11354 -3.06813,-14.46225 0,-10.48207 0.32355,-11.64862 4.04204,-14.57359 5.09912,-4.01097 8.29367,-4.01097 13.39279,0 3.7185,2.92497 4.04204,4.09152 4.04204,14.57359 0,13.06413 -2.73585,17.53037 -10.73843,17.53037 -2.55677,0 -5.9658,-1.36361 -7.67031,-3.06812 z"
           id="path4394"
           inkscape:connector-curvature="0"
           transform="matrix(0.98046872,0,0,0.98046872,552.00469,-3.0082)" /><path
           style="opacity:1;fill:#314e55;fill-opacity:1"
           d="m 394.6128,231.11367 c -1.61875,-2.31109 -2.38808,-6.92945 -2.38808,-14.33583 0,-12.43617 2.65236,-16.51543 10.73844,-16.51543 8.08607,0 10.73843,4.07926 10.73843,16.51543 0,13.88618 -2.33531,17.74529 -10.73843,17.74529 -4.42221,0 -6.57913,-0.88067 -8.35036,-3.40946 z"
           id="path4396"
           inkscape:connector-curvature="0"
           transform="matrix(0.98046872,0,0,0.98046872,552.00469,-3.0082)" /><path
           style="opacity:1;fill:#314e55;fill-opacity:1"
           d="m 399.89503,176.65917 c -6.23473,-2.2509 -7.67031,-5.32679 -7.67031,-16.43448 0,-13.88618 2.33531,-17.74529 10.73844,-17.74529 8.40312,0 10.73843,3.85911 10.73843,17.74529 0,8.4853 -0.59977,11.45304 -2.68461,13.28377 -3.30975,2.90636 -8.06637,4.25385 -11.12195,3.15071 z"
           id="path4398"
           inkscape:connector-curvature="0"
           transform="matrix(0.98046872,0,0,0.98046872,552.00469,-3.0082)" /><path
           style="opacity:1;fill:#314e55;fill-opacity:1"
           d="m 399.89503,121.43293 c -6.23473,-2.2509 -7.67031,-5.32678 -7.67031,-16.43448 0,-13.886182 2.33531,-17.745289 10.73844,-17.745289 8.40312,0 10.73843,3.859107 10.73843,17.745289 0,8.4853 -0.59977,11.45304 -2.68461,13.28378 -3.30975,2.90635 -8.06637,4.25384 -11.12195,3.1507 z"
           id="path4400"
           inkscape:connector-curvature="0"
           transform="matrix(0.98046872,0,0,0.98046872,552.00469,-3.0082)" /><path
           style="opacity:1;fill:#314e55;fill-opacity:1"
           d="m 438.24659,121.43293 c -6.35194,-2.29321 -7.67032,-5.26762 -7.67032,-17.30508 0,-13.690931 2.10477,-16.874689 11.15576,-16.874689 7.81715,0 10.32112,4.135478 10.32112,17.046069 0,7.53467 -0.70678,11.04454 -2.68461,13.33192 -2.99913,3.46852 -7.64564,5.05682 -11.12195,3.80178 z"
           id="path4402"
           inkscape:connector-curvature="0"
           transform="matrix(0.98046872,0,0,0.98046872,552.00469,-3.0082)" /><path
           style="opacity:1;fill:#314e55;fill-opacity:1"
           d="m 438.24659,176.65917 c -6.35194,-2.29321 -7.67032,-5.26762 -7.67032,-17.30509 0,-13.69092 2.10477,-16.87468 11.15576,-16.87468 7.81715,0 10.32112,4.13548 10.32112,17.04607 0,7.53466 -0.70678,11.04454 -2.68461,13.33192 -2.99913,3.46852 -7.64564,5.05681 -11.12195,3.80178 z"
           id="path4404"
           inkscape:connector-curvature="0"
           transform="matrix(0.98046872,0,0,0.98046872,552.00469,-3.0082)" /><path
           style="opacity:1;fill:#314e55;fill-opacity:1"
           d="m 433.11513,231.71773 c -1.89356,-2.09236 -2.53886,-5.76822 -2.53886,-14.46225 0,-10.8442 0.28948,-11.88454 4.15228,-14.92303 4.85699,-3.8205 10.49986,-3.14798 14.63999,1.7448 3.56732,4.21585 3.76333,22.08686 0.29652,27.03642 -3.07287,4.38713 -12.80483,4.74234 -16.54993,0.60406 z"
           id="path4406"
           inkscape:connector-curvature="0"
           transform="matrix(0.98046872,0,0,0.98046872,552.00469,-3.0082)" /><path
           style="opacity:1;fill:#314e55;fill-opacity:1"
           d="m 433.6444,291.28343 c -4.48387,-4.48387 -4.48387,-24.66332 0,-29.14718 4.14616,-4.14616 10.08254,-3.86348 14.64332,0.6973 3.26567,3.26567 3.76543,5.16153 3.76543,14.28433 0,8.46543 -0.61062,11.17431 -3.12789,13.87629 -3.94586,4.23538 -11.19747,4.37266 -15.28086,0.28926 z"
           id="path4408"
           inkscape:connector-curvature="0"
           transform="matrix(0.98046872,0,0,0.98046872,552.00469,-3.0082)" /><path
           style="opacity:1;fill:#314e55;fill-opacity:1"
           d="m 433.6444,346.50967 c -4.48387,-4.48387 -4.48387,-24.66332 0,-29.14718 4.14616,-4.14617 10.08254,-3.86348 14.64332,0.6973 3.26567,3.26566 3.76543,5.16152 3.76543,14.28432 0,8.46544 -0.61062,11.17432 -3.12789,13.87629 -3.94586,4.23539 -11.19747,4.37266 -15.28086,0.28927 z"
           id="path4410"
           inkscape:connector-curvature="0"
           transform="matrix(0.98046872,0,0,0.98046872,552.00469,-3.0082)" /><path
           style="opacity:1;fill:#314e55;fill-opacity:1"
           d="m 433.6444,406.33809 c -2.55312,-2.55312 -3.06813,-5.11354 -3.06813,-15.25363 0,-10.85312 0.3728,-12.44663 3.40947,-14.57359 4.69832,-3.29084 11.32903,-2.99021 14.99928,0.68004 2.48749,2.48749 3.06813,5.11354 3.06813,13.87629 0,9.42992 -0.48017,11.28833 -3.76543,14.57359 -4.56078,4.56078 -10.49716,4.84346 -14.64332,0.6973 z"
           id="path4412"
           inkscape:connector-curvature="0"
           transform="matrix(0.98046872,0,0,0.98046872,552.00469,-3.0082)" /><path
           style="opacity:1;fill:#314e55;fill-opacity:1"
           d="m 438.24659,468.13098 c -6.35194,-2.29321 -7.67032,-5.26762 -7.67032,-17.30508 0,-13.69093 2.10477,-16.87469 11.15576,-16.87469 7.81715,0 10.32112,4.13548 10.32112,17.04607 0,7.53467 -0.70678,11.04454 -2.68461,13.33192 -2.99913,3.46852 -7.64564,5.05682 -11.12195,3.80178 z"
           id="path4414"
           inkscape:connector-curvature="0"
           transform="matrix(0.98046872,0,0,0.98046872,552.00469,-3.0082)" /></g></g></g></svg>