<?xml version="1.0" encoding="UTF-8" standalone="no"?>
<!-- Generator: Adobe Illustrator 19.0.0, SVG Export Plug-In . SVG Version: 6.00 Build 0)  -->

<svg
   xmlns:dc="http://purl.org/dc/elements/1.1/"
   xmlns:cc="http://creativecommons.org/ns#"
   xmlns:rdf="http://www.w3.org/1999/02/22-rdf-syntax-ns#"
   xmlns:svg="http://www.w3.org/2000/svg"
   xmlns="http://www.w3.org/2000/svg"
   xmlns:sodipodi="http://sodipodi.sourceforge.net/DTD/sodipodi-0.dtd"
   xmlns:inkscape="http://www.inkscape.org/namespaces/inkscape"
   version="1.1"
   id="Layer_1"
   x="0px"
   y="0px"
   viewBox="0 0 512 512"
   style="enable-background:new 0 0 512 512;"
   xml:space="preserve"
   inkscape:version="0.91 r13725"
   sodipodi:docname="CoffeeIcon.svg"><metadata
     id="metadata61"><rdf:RDF><cc:Work
         rdf:about=""><dc:format>image/svg+xml</dc:format><dc:type
           rdf:resource="http://purl.org/dc/dcmitype/StillImage" /><dc:title></dc:title></cc:Work></rdf:RDF></metadata><defs
     id="defs59" /><sodipodi:namedview
     pagecolor="#ffffff"
     bordercolor="#666666"
     borderopacity="1"
     objecttolerance="10"
     gridtolerance="10"
     guidetolerance="10"
     inkscape:pageopacity="0"
     inkscape:pageshadow="2"
     inkscape:window-width="1011"
     inkscape:window-height="655"
     id="namedview57"
     showgrid="false"
     inkscape:zoom="0.65186406"
     inkscape:cx="256"
     inkscape:cy="225.31876"
     inkscape:window-x="0"
     inkscape:window-y="0"
     inkscape:window-maximized="0"
     inkscape:current-layer="Layer_1" /><path
     style="fill:#73c9c9;fill-opacity:1"
     d="M492.936,465.628l-6.405,22.419c-2.473,8.639-11.841,15.709-20.829,15.709H73.532  c-8.987,0-18.356-7.07-20.829-15.709l-6.405-22.419H492.936z"
     id="path3" /><path
     style="fill:#C8FEFF;"
     d="M443.915,175.476v87.149c0,96.267-78.042,174.298-174.298,174.298  c-49.849,0-94.796-20.927-126.562-54.468H95.319c-23.28,0-45.165-9.064-61.625-25.524S8.17,318.585,8.17,295.306  c0-23.28,9.063-45.165,25.524-61.625s38.346-25.524,61.625-25.524v-32.681H443.915z M411.234,262.625v-54.468  c-35.404,0-35.404,15.251-70.809,15.251s-35.404-15.251-70.819-15.251c-35.393,0-35.393,15.251-70.798,15.251  S163.404,208.157,128,208.157v54.468c0,78.085,63.532,141.617,141.617,141.617S411.234,340.71,411.234,262.625z M95.319,349.774  h23.323c-14.837-25.633-23.323-55.405-23.323-87.149v-21.787c-14.554,0-28.225,5.665-38.52,15.948  c-10.284,10.294-15.948,23.966-15.948,38.52c0,14.554,5.665,28.225,15.959,38.52C67.094,344.109,80.765,349.774,95.319,349.774z"
     id="path5" /><path
     style="fill:#B75548;"
     d="M214.234,20.133L325.011,130.91c-21.079,21.079-62.976,13.366-93.565-17.223  S193.144,41.212,214.234,20.133z"
     id="path7" /><g
     id="g9"><path
       style="fill:#8E4238;"
       d="M307.788,37.356c30.589,30.589,38.302,72.475,17.223,93.554L214.234,20.133   C235.313-0.957,277.188,6.756,307.788,37.356z"
       id="path11" /><path
       style="fill:#8E4238;"
       d="M411.234,208.157v54.468c0,78.085-63.532,141.617-141.617,141.617S128,340.71,128,262.625v-54.468   c35.404,0,35.404,15.251,70.809,15.251s35.404-15.251,70.798-15.251c35.415,0,35.415,15.251,70.819,15.251   S375.83,208.157,411.234,208.157z"
       id="path13" /></g><g
     id="g15"><path
       style="fill:#700D00;"
       d="M95.319,357.944h23.322c2.921,0,5.618-1.559,7.078-4.088c1.459-2.529,1.456-5.646-0.005-8.173   c-14.541-25.135-22.225-53.856-22.225-83.057v-21.787c0-4.513-3.657-8.17-8.17-8.17c-16.732,0-32.462,6.515-44.291,18.346   c-11.83,11.83-18.346,27.561-18.346,44.292c0,16.73,6.515,32.461,18.347,44.292C62.858,351.429,78.589,357.944,95.319,357.944z    M62.582,262.567c6.786-6.786,15.309-11.206,24.566-12.846v12.904c0,27.418,6.171,54.453,17.945,78.979h-9.774   c-12.366,0-23.992-4.816-32.736-13.56c-8.745-8.745-13.561-20.371-13.561-32.737C49.021,282.938,53.837,271.313,62.582,262.567z"
       id="path19" /><path
       style="fill:#700D00;"
       d="M269.615,412.412c34.087,0,66.228-11.206,92.949-32.409c3.534-2.804,4.126-7.944,1.321-11.479   c-2.804-3.534-7.944-4.125-11.479-1.321c-23.801,18.885-52.431,28.868-82.792,28.868c-73.583,0-133.447-59.864-133.447-133.447   l0.001-45.975c10.692,0.904,16.956,3.603,23.999,6.636c9.022,3.887,19.249,8.292,38.635,8.292c19.387,0,29.614-4.405,38.636-8.292   c8.669-3.734,16.154-6.959,32.171-6.959c16.018,0,23.504,3.225,32.173,6.959c9.022,3.887,19.25,8.292,38.637,8.292   s29.614-4.405,38.637-8.291c7.045-3.035,13.309-5.733,24.004-6.637l-0.001,45.975c0,30.362-9.983,58.99-28.868,82.791   c-2.805,3.535-2.212,8.675,1.321,11.479c3.533,2.805,8.672,2.213,11.479-1.321c21.202-26.72,32.409-58.861,32.409-92.949   l0.001-54.468c0-2.167-0.861-4.244-2.392-5.778c-1.533-1.532-3.61-2.392-5.778-2.392c-19.388,0-29.615,4.405-38.639,8.292   c-8.669,3.734-16.155,6.959-32.173,6.959c-16.018,0-23.504-3.225-32.173-6.959c-9.022-3.887-19.25-8.292-38.637-8.292   c-19.386,0-29.613,4.405-38.635,8.292c-8.669,3.734-16.155,6.959-32.172,6.959c-16.016,0-23.502-3.225-32.169-6.959   c-9.022-3.887-19.249-8.292-38.635-8.292c-4.512,0-8.17,3.657-8.17,8.17l-0.001,54.468   C119.828,345.217,187.023,412.412,269.615,412.412z"
       id="path21" /><path
       style="fill:#700D00;"
       d="M225.669,119.466c19.722,19.722,45.128,31.497,67.959,31.499c14.97,0,27.818-4.937,37.158-14.276   c12.152-12.153,16.776-30.076,13.022-50.47c-3.55-19.283-14.292-38.691-30.247-54.646c-19.724-19.723-45.13-31.499-67.96-31.499   c-14.968,0-27.816,4.936-37.155,14.275c-12.154,12.155-16.778,30.078-13.025,50.472   C198.971,84.104,209.714,103.512,225.669,119.466z M302.006,43.128c13.638,13.637,22.775,29.99,25.732,46.048   c2.1,11.407,0.828,21.538-3.548,29.36l-53.197-53.196c-3.192-3.19-8.364-3.19-11.555,0c-3.191,3.192-3.191,8.364,0,11.555   l53.203,53.202c-5.335,2.978-11.774,4.526-19.007,4.526c-18.598-0.002-39.685-9.988-56.41-26.713   c-13.638-13.637-22.775-29.99-25.731-46.048c-2.1-11.407-0.828-21.538,3.548-29.363L236.33,53.79   c1.596,1.595,3.687,2.392,5.778,2.392c2.09,0,4.182-0.797,5.778-2.392c3.191-3.192,3.191-8.364,0-11.555l-21.294-21.294   c5.336-2.978,11.776-4.525,19.012-4.525C264.193,16.414,285.28,26.4,302.006,43.128z"
       id="path25" /></g><g
     id="g27" /><g
     id="g29" /><g
     id="g31" /><g
     id="g33" /><g
     id="g35" /><g
     id="g37" /><g
     id="g39" /><g
     id="g41" /><g
     id="g43" /><g
     id="g45" /><g
     id="g47" /><g
     id="g49" /><g
     id="g51" /><g
     id="g53" /><g
     id="g55" /><path
     style="opacity:1;fill:#314e55;fill-opacity:1"
     d="m 236.69155,442.93571 c -31.36174,-6.23488 -57.19928,-18.18923 -82.12592,-37.99751 l -16.52024,-13.12803 -25.09611,0 c -43.154497,0 -67.113802,-8.8735 -89.256153,-33.05665 -26.4775676,-28.91794 -31.8559773,-72.398 -13.424553,-108.52658 6.412147,-12.56884 28.954888,-34.42766 41.926261,-40.65426 5.916639,-2.84014 15.679351,-6.26795 21.694915,-7.61735 l 10.93739,-2.45346 1.084745,-14.5713 c 0.718454,-9.65094 2.183622,-15.26519 4.338985,-16.62619 5.16949,-3.26427 356.42611,-2.79353 359.70169,0.48206 4.21005,4.21005 3.54899,107.98463 -0.82269,129.14936 -9.42321,45.6206 -35.69083,86.89906 -71.60806,112.52907 -16.61477,11.85605 -44.99844,25.20582 -63.81332,30.0135 -19.56041,4.99816 -58.05791,6.22649 -77.01694,2.45734 z m 74.30287,-20.95989 c 52.04104,-13.08127 96.88491,-54.47527 114.21527,-105.42859 7.90122,-23.23055 9.99033,-41.71768 9.99033,-88.40687 l 0,-42.43189 -164.88136,0 -164.88135,0 0,11.93221 c 0,15.01588 -4.68889,20.61017 -17.274549,20.61017 -24.649819,0 -55.311377,23.01814 -65.02262,48.81356 -11.188322,29.7189 -4.560907,59.96231 18.107314,82.63053 19.40539,19.40539 29.340127,22.58981 70.475615,22.58981 l 32.1569,0 16.83101,13.99298 c 44.75301,37.20682 95.92451,49.362 150.28344,35.69809 z"
     id="path4201"
     inkscape:connector-curvature="0" /><path
     style="opacity:1;fill:#314e55;fill-opacity:1"
     d="m 80.488136,357.23214 c -27.510097,-6.72703 -48.81356,-33.76983 -48.81356,-61.96434 0,-31.03463 24.682485,-58.91165 55.817648,-63.04188 15.618896,-2.07192 17.945066,1.89923 17.945066,30.63519 0,25.10698 5.0389,48.28192 15.2361,70.07399 10.88911,23.27074 8.92731,26.43029 -16.21237,26.11063 -9.605427,-0.12215 -20.393223,-0.93826 -23.972884,-1.81359 z M 96.5002,321.84407 C 90.402169,303.48367 85.911864,277.426 85.911864,260.39895 c 0,-5.28315 -0.527028,-9.60573 -1.171174,-9.60573 -0.644145,0 -4.942934,1.92421 -9.552865,4.27602 -11.384264,5.80782 -21.029491,18.10413 -24.038025,30.64511 -6.339308,26.42519 14.780017,53.97869 41.401392,54.01466 l 9.893568,0.0134 -5.94456,-17.8983 z"
     id="path4203"
     inkscape:connector-curvature="0" /><path
     style="opacity:1;fill:#314e55;fill-opacity:1"
     d="m 65.52795,511.04883 c -9.718277,-2.90817 -18.361678,-12.66835 -22.309374,-25.19189 -2.570504,-8.15457 -4.816365,-11.5834 -7.889551,-12.04523 -6.178033,-0.92841 -9.678224,-7.25245 -6.661306,-12.03544 2.252882,-3.5717 16.32541,-3.83188 237.548221,-4.39203 129.33443,-0.32747 237.2424,-0.0918 239.79554,0.52365 9.31947,2.24665 7.88172,15.32851 -1.8391,16.73382 -3.55794,0.51436 -5.48987,3.08554 -7.46708,9.93788 -3.81009,13.20436 -10.24341,21.19688 -20.30096,25.22111 -7.84041,3.13711 -29.32145,3.48161 -206.67205,3.31452 -108.8572,-0.10256 -200.749158,-1.03243 -204.20434,-2.06639 z m 409.53166,-22.15391 c 1.69309,-2.68475 3.73393,-7.07797 4.53519,-9.76272 l 1.45686,-4.88135 -211.55877,0 -211.558775,0 2.334007,7.05084 c 1.283703,3.87797 3.860191,8.27119 5.725526,9.76272 2.658374,2.12564 46.906272,2.71186 204.689572,2.71186 l 201.29803,0 3.07836,-4.88135 z"
     id="path4209"
     inkscape:connector-curvature="0" /><path
     style="opacity:1;fill:#73c9c9;fill-opacity:1"
     d="m 251.091,426.66032 c -33.26177,-3.75136 -63.66288,-17.89392 -95.25858,-44.31418 l -12.03571,-10.06423 -25.27579,0 c -25.93693,0 -37.414287,-0.69473 -46.148162,-2.79336 -18.545248,-4.45619 -39.482304,-24.03269 -48.869096,-45.69344 -7.326932,-16.90746 -7.449956,-38.58307 -0.32351,-56.99886 7.992454,-20.65368 31.051101,-41.22583 52.510946,-46.8485 2.604518,-0.6824 8.031441,-1.50553 12.059829,-1.82916 14.522033,-1.16669 17.604163,-5.40522 17.604163,-24.20916 l 0,-8.01607 164.91169,0 164.91168,0 0,34.72125 c 0,56.06169 -1.75154,72.47746 -10.36671,97.15848 -16.23239,46.50312 -55.24637,84.87311 -102.68769,100.99266 -21.21885,7.20971 -49.36725,10.3381 -71.03306,7.89457 z m 37.84849,-15.64373 c 22.91349,-3.0037 44.2532,-11.02023 63.63911,-23.90685 10.00908,-6.65345 12.80003,-9.485 12.80003,-12.98624 0,-1.49021 -0.38219,-3.42359 -0.8493,-4.29641 -0.75293,-1.40686 -0.19894,-2.2373 4.8824,-7.31864 5.08134,-5.08134 5.91178,-5.63533 7.31864,-4.8824 4.58423,2.4534 8.55208,0.39231 14.10355,-7.32609 15.04287,-20.91454 24.26582,-44.4631 27.43227,-70.04166 0.4529,-3.6585 0.80462,-21.5383 0.80462,-40.9034 l 0,-34.40377 -2.34904,-2.34904 -2.34903,-2.34903 -10.11523,0.44974 c -11.98335,0.5328 -17.19706,1.8018 -31.92431,7.77024 -12.84886,5.2072 -19.45266,6.5675 -31.88308,6.5675 -12.5095,0 -18.96499,-1.34665 -32.46685,-6.77279 -17.22375,-6.92188 -19.87383,-7.42477 -38.86704,-7.37552 -17.98504,0.0466 -21.73577,0.71087 -34.76965,6.15751 -15.36821,6.42212 -19.39316,7.39174 -32.40049,7.80537 -15.10747,0.48042 -20.66463,-0.56992 -36.16031,-6.83456 -13.47129,-5.44622 -22.60146,-7.52953 -33.05975,-7.54352 -13.48246,-0.0181 -12.79734,-2.04973 -12.79734,37.9501 0,40.96647 1.12869,51.38442 7.72923,71.34175 16.02928,48.46592 56.09956,85.49759 106.17488,98.12342 16.4622,4.15072 37.97319,5.37029 55.10669,3.12429 z M 122.44391,357.13385 c 6.10948,-2.41126 5.91475,-5.76477 -1.32055,-22.74161 -11.68303,-27.41293 -15.76827,-46.08971 -15.76827,-72.08892 0,-11.45662 -1.11622,-21.98597 -2.64394,-24.94025 -2.61016,-5.04748 -6.737712,-6.2484 -16.218903,-4.71891 -25.742802,4.15276 -45.835193,22.51087 -52.93167,48.36286 -2.058924,7.50052 -1.912382,21.57945 0.30569,29.36896 6.48502,22.77432 25.503943,41.75861 46.700262,46.61523 9.827572,2.25174 36.304951,2.34193 41.877381,0.14264 z"
     id="path4217"
     inkscape:connector-curvature="0" /></svg>