<?xml version="1.0" encoding="UTF-8" standalone="no"?>
<!-- Generator: Adobe Illustrator 18.0.0, SVG Export Plug-In . SVG Version: 6.00 Build 0)  -->

<svg
   xmlns:dc="http://purl.org/dc/elements/1.1/"
   xmlns:cc="http://creativecommons.org/ns#"
   xmlns:rdf="http://www.w3.org/1999/02/22-rdf-syntax-ns#"
   xmlns:svg="http://www.w3.org/2000/svg"
   xmlns="http://www.w3.org/2000/svg"
   xmlns:sodipodi="http://sodipodi.sourceforge.net/DTD/sodipodi-0.dtd"
   xmlns:inkscape="http://www.inkscape.org/namespaces/inkscape"
   version="1.1"
   id="Capa_1"
   x="0px"
   y="0px"
   viewBox="0 0 365.815 365.815"
   style="enable-background:new 0 0 365.815 365.815;"
   xml:space="preserve"
   inkscape:version="0.91 r13725"
   sodipodi:docname="DesertIcon.svg"><metadata
     id="metadata51"><rdf:RDF><cc:Work
         rdf:about=""><dc:format>image/svg+xml</dc:format><dc:type
           rdf:resource="http://purl.org/dc/dcmitype/StillImage" /><dc:title></dc:title></cc:Work></rdf:RDF></metadata><defs
     id="defs49" /><sodipodi:namedview
     pagecolor="#ffffff"
     bordercolor="#666666"
     borderopacity="1"
     objecttolerance="10"
     gridtolerance="10"
     guidetolerance="10"
     inkscape:pageopacity="0"
     inkscape:pageshadow="2"
     inkscape:window-width="1198"
     inkscape:window-height="729"
     id="namedview47"
     showgrid="false"
     inkscape:zoom="1.8247169"
     inkscape:cx="138.42675"
     inkscape:cy="226.74992"
     inkscape:window-x="0"
     inkscape:window-y="0"
     inkscape:window-maximized="0"
     inkscape:current-layer="Capa_1" /><g
     id="g3"
     style="fill:#314e55;fill-opacity:1;opacity:0.79"><path
       d="M305.356,99.086h-15.241c-3.73-25.88-25.213-45.937-51.301-47.926C236.269,22.585,212.044,0,182.908,0   c-29.137,0-53.362,22.585-55.907,51.16c-26.084,1.99-47.57,22.046-51.301,47.926h-15.24c-2.485,0-4.5,2.015-4.5,4.5v18.679   c0,68.493,54.526,124.48,122.448,126.86v90.165h-9.798c-2.485,0-4.5,2.015-4.5,4.5c0,2.485,2.015,4.5,4.5,4.5h9.798v8.526h-44.851   c-2.485,0-4.5,2.015-4.5,4.5c0,2.485,2.015,4.5,4.5,4.5h98.701c2.485,0,4.5-2.015,4.5-4.5c0-2.485-2.015-4.5-4.5-4.5h-44.851   v-8.526h9.798c2.485,0,4.5-2.015,4.5-4.5c0-2.485-2.015-4.5-4.5-4.5h-9.798v-90.165c67.922-2.379,122.448-58.367,122.448-126.86   v-18.679C309.856,101.101,307.841,99.086,305.356,99.086z M281.019,99.086h-3.529c-2.009-10.959-8.224-20.727-17.478-27.234   c-2.033-1.428-4.838-0.939-6.27,1.094c-1.429,2.032-0.939,4.84,1.094,6.27c6.848,4.814,11.585,11.887,13.461,19.871h-80.197   c3.844-22.264,23.408-39.098,46.459-39.104C257.609,59.981,277.175,76.815,281.019,99.086z M182.908,9   c24.207,0,44.383,18.565,46.877,42.198c-1.471,0.126-2.926,0.312-4.365,0.551c-1.228-12.291-7.76-23.601-17.968-30.773   c-2.034-1.429-4.841-0.936-6.27,1.096c-1.429,2.034-0.938,4.841,1.096,6.27c8.43,5.921,13.69,15.412,14.3,25.626   c-15.081,5.142-27.398,16.546-33.667,31.171c-8.02-18.709-25.935-32.147-46.88-33.941C138.524,27.565,158.7,9,182.908,9z    M131.27,59.981c23.044,0.006,42.607,16.841,46.451,39.104h-4.467c-2.01-10.959-8.224-20.728-17.478-27.234   c-2.033-1.428-4.839-0.939-6.27,1.094c-1.429,2.032-0.939,4.84,1.094,6.27c6.848,4.814,11.585,11.887,13.461,19.871H84.796   C88.64,76.815,108.211,59.981,131.27,59.981z M300.856,122.265c0,65.037-52.911,117.948-117.948,117.948   S64.959,187.302,64.959,122.265v-14.179h235.897V122.265z"
       id="path5"
       style="fill:#314e55;fill-opacity:1" /><path
       d="M228.973,216.934c0.671,0,1.354-0.151,1.996-0.47c25.334-12.568,45.136-35.078,54.33-61.757   c0.81-2.35-0.439-4.91-2.789-5.721c-2.351-0.81-4.911,0.438-5.721,2.789c-8.429,24.461-26.588,45.101-49.82,56.626   c-2.227,1.105-3.136,3.805-2.031,6.031C225.724,216.018,227.317,216.934,228.973,216.934z"
       id="path7"
       style="fill:#314e55;fill-opacity:1" /><path
       d="M284.633,140.521c0.243,0.039,0.484,0.059,0.724,0.059c2.169,0,4.08-1.573,4.436-3.783   c0.922-5.707,1.389-11.554,1.389-17.381c0-2.485-2.015-4.5-4.5-4.5c-2.485,0-4.5,2.015-4.5,4.5c0,5.348-0.429,10.713-1.273,15.945   C280.512,137.815,282.18,140.125,284.633,140.521z"
       id="path9"
       style="fill:#314e55;fill-opacity:1" /><path
       d="M182.908,22.232c1.401,0,2.813,0.087,4.199,0.258c0.188,0.023,0.373,0.034,0.558,0.034c2.239,0,4.179-1.669,4.46-3.948   c0.305-2.467-1.447-4.713-3.914-5.017c-1.75-0.217-3.534-0.326-5.303-0.326c-2.485,0-4.5,2.015-4.5,4.5   C178.408,20.218,180.422,22.232,182.908,22.232z"
       id="path11"
       style="fill:#314e55;fill-opacity:1" /><path
       d="M230.969,68.608c0,2.485,2.015,4.5,4.5,4.5c1.401,0,2.814,0.087,4.2,0.258c0.188,0.023,0.373,0.034,0.558,0.034   c2.239,0,4.179-1.669,4.46-3.948c0.305-2.467-1.447-4.713-3.914-5.018c-1.75-0.217-3.534-0.326-5.304-0.326   C232.984,64.108,230.969,66.123,230.969,68.608z"
       id="path13"
       style="fill:#314e55;fill-opacity:1" /><path
       d="M136.537,64.435c-1.75-0.217-3.534-0.326-5.303-0.326c-2.485,0-4.5,2.015-4.5,4.5c0,2.485,2.015,4.5,4.5,4.5   c1.401,0,2.813,0.087,4.199,0.258c0.188,0.023,0.373,0.034,0.558,0.034c2.239,0,4.179-1.669,4.46-3.948   C140.755,66.985,139.003,64.739,136.537,64.435z"
       id="path15"
       style="fill:#314e55;fill-opacity:1" /></g><g
     id="g17" /><g
     id="g19" /><g
     id="g21" /><g
     id="g23" /><g
     id="g25" /><g
     id="g27" /><g
     id="g29" /><g
     id="g31" /><g
     id="g33" /><g
     id="g35" /><g
     id="g37" /><g
     id="g39" /><g
     id="g41" /><g
     id="g43" /><g
     id="g45" /><path
     style="opacity:0.79000005;fill:#f58cac;fill-opacity:1;stroke:#314e55;stroke-width:0.54803026;stroke-opacity:1"
     d="M 84.681434,97.880611 C 88.838294,78.93393 103.1341,64.632307 121.90269,60.64421 c 2.76016,-0.586501 5.93302,-0.746263 11.24367,-0.566147 6.38475,0.216545 8.11172,0.484578 12.60469,1.956301 6.77231,2.218346 12.773,5.785493 17.85817,10.615914 4.96481,4.716079 7.22543,7.725476 10.05376,13.383831 1.79684,3.594764 4.42186,11.289337 4.42186,12.961575 0,0.248635 -1.14452,0.376899 -2.54338,0.28503 l -2.54338,-0.167035 -0.75638,-3.014166 c -1.9134,-7.62492 -7.63434,-16.616588 -13.81698,-21.716318 -4.08598,-3.370302 -5.90746,-3.732744 -8.04032,-1.599878 -2.36514,2.365144 -1.85279,3.610218 3.78316,9.193391 4.28793,4.247786 5.49367,5.843663 7.35779,9.738563 1.22621,2.562041 2.37575,5.336444 2.55454,6.16534 l 0.32507,1.507083 -40.02709,0 -40.027087,0 0.330651,-1.507083 z M 138.92558,71.737078 c 3.55585,-3.555845 0.0417,-7.411427 -6.76319,-7.420262 -4.31174,-0.0056 -6.69075,4.336353 -3.8113,6.956053 1.66449,1.514336 2.35474,1.715726 6.05324,1.766109 2.67444,0.03643 3.38855,-0.169197 4.52125,-1.3019 z"
     id="path4183"
     inkscape:connector-curvature="0" /><path
     style="opacity:0.79000005;fill:#73c9c9;fill-opacity:1;stroke:#314e55;stroke-width:0.54803026;stroke-opacity:1"
     d="m 187.85908,98.781762 c 0,-1.619709 1.93406,-7.757647 3.54282,-11.243518 6.3152,-13.683759 18.88396,-23.780035 33.28911,-26.740583 5.33501,-1.096453 14.52911,-1.115986 19.63601,-0.04172 13.52237,2.844519 25.24865,11.603537 31.9609,23.873397 2.1639,3.955554 4.7363,11.205132 4.7363,13.347897 0,1.234699 -0.22888,1.410456 -1.83677,1.410456 -1.7951,0 -1.85849,-0.08027 -2.79445,-3.537976 -1.26033,-4.656019 -3.62483,-9.579495 -6.60884,-13.761202 -2.86786,-4.018945 -9.2115,-9.987685 -11.1256,-10.468093 -3.33962,-0.838192 -6.30332,2.2381 -5.05638,5.248481 0.34461,0.831959 1.8471,2.443449 3.33887,3.581089 1.49178,1.13764 3.94377,3.706151 5.44888,5.707804 2.59025,3.444793 6.02959,10.500618 6.02959,12.369754 0,0.773702 -4.048,0.860143 -40.28022,0.860143 -29.05423,0 -40.28022,-0.168872 -40.28022,-0.605932 z m 55.10194,-27.044684 c 3.06558,-3.065575 0.97824,-6.586788 -4.27023,-7.203643 -3.69802,-0.434629 -6.02135,0.340896 -6.9182,2.309288 -0.86345,1.895054 -0.78222,2.596188 0.48785,4.210822 1.22378,1.555783 2.17583,1.844062 6.45335,1.954066 2.40835,0.06194 3.13092,-0.154218 4.24723,-1.270533 z"
     id="path4189"
     inkscape:connector-curvature="0" /><path
     style="opacity:0.79000005;fill:#ecf0f1;fill-opacity:1;stroke:#314e55;stroke-width:0.54803026;stroke-opacity:1"
     d="M 180.74183,81.437676 C 175.19943,70.714665 165.50057,61.556944 154.11506,56.296512 149.53816,54.181854 140.632,51.709064 137.59261,51.709064 l -1.89926,0 0.39083,-2.877159 c 0.97902,-7.207136 4.75067,-15.718286 9.858,-22.24567 13.4431,-17.1808733 38.48613,-22.6825411 58.17885,-12.781234 13.59533,6.835599 23.43391,20.386553 25.68099,35.371149 l 0.36955,2.464314 -2.38621,0.171308 -2.38621,0.171307 -0.92208,-4.209626 c -2.27351,-10.379433 -8.07214,-19.716488 -15.74041,-25.345516 -3.66866,-2.693045 -5.97791,-2.501236 -7.64861,0.635302 -1.04364,1.95932 -0.18807,3.733144 3.02442,6.270471 3.63508,2.871093 7.46528,7.775809 9.59347,12.284781 1.39501,2.955582 3.16297,9.462322 3.18922,11.737454 0.006,0.50082 -1.22834,1.305129 -3.14166,2.047503 -11.23495,4.359206 -22.61974,14.615953 -28.36214,25.551918 -1.2048,2.294449 -2.31385,4.173469 -2.46456,4.175607 -0.1507,0.0022 -1.13394,-1.659847 -2.18497,-3.693297 z m 9.80107,-60.632355 c 1.63383,-1.739139 1.40222,-4.505647 -0.4917,-5.87308 -0.75537,-0.545382 -2.89532,-1.153388 -4.76955,-1.35513 -3.27369,-0.352379 -3.46125,-0.304135 -5.06928,1.303894 -2.09295,2.092958 -2.11099,3.589378 -0.0679,5.632492 1.46112,1.461124 1.93445,1.601934 5.38477,1.601934 3.28027,0 3.94635,-0.174054 5.01363,-1.31011 z"
     id="path4193"
     inkscape:connector-curvature="0" /><path
     style="opacity:0.79000005;fill:#cccccc;fill-opacity:1;stroke:#314e55;stroke-width:0.54803026;stroke-opacity:1"
     d="M 177.06288,240.31836 C 160.97948,239.44708 145.4342,235.41434 131.02834,228.37613 95.198087,210.87069 70.489549,176.24311 65.578597,136.65212 65.268162,134.14946 64.846735,126.6894 64.642092,120.0742 l -0.372079,-12.02763 118.537747,0 118.53774,0 -0.3135,13.01572 c -0.33012,13.70548 -1.13619,20.68873 -3.44839,29.87443 -11.70851,46.51457 -50.61211,81.64 -97.77747,88.2817 -6.08983,0.85755 -17.25226,1.39741 -22.74326,1.09994 z m 55.75154,-25.19597 c 15.36519,-7.78612 30.28323,-21.40054 40.56519,-37.02034 4.89671,-7.43882 11.91924,-22.26024 11.91924,-25.15618 0,-1.6399 -2.42231,-3.79703 -4.2638,-3.79703 -2.13857,0 -3.58967,1.70995 -5.28315,6.22558 -2.21428,5.90434 -7.68099,16.03061 -11.70808,21.68745 -7.93926,11.15226 -20.48359,22.4685 -32.20869,29.05545 -2.92485,1.64312 -5.65579,3.32538 -6.06875,3.73835 -1.14518,1.14517 -0.91438,3.99005 0.44073,5.4325 1.54121,1.64053 3.12095,1.60089 6.60731,-0.16578 z m 54.97146,-75.99107 c 1.82072,-1.56612 2.30363,-3.92781 2.78635,-13.62708 l 0.37217,-7.4777 -1.42779,-1.42779 c -1.6818,-1.6818 -3.60348,-1.82687 -5.3599,-0.40461 -1.1514,0.93234 -1.32823,1.77149 -1.99206,9.45352 -1.09636,12.68717 -1.12834,11.95643 0.58803,13.43278 1.8937,1.6289 3.18349,1.64194 5.0332,0.0509 z"
     id="path4214"
     inkscape:connector-curvature="0" /></svg>