<?xml version="1.0" encoding="UTF-8" standalone="no"?>
<!-- Generator: Adobe Illustrator 19.0.0, SVG Export Plug-In . SVG Version: 6.00 Build 0)  -->

<svg
   xmlns:dc="http://purl.org/dc/elements/1.1/"
   xmlns:cc="http://creativecommons.org/ns#"
   xmlns:rdf="http://www.w3.org/1999/02/22-rdf-syntax-ns#"
   xmlns:svg="http://www.w3.org/2000/svg"
   xmlns="http://www.w3.org/2000/svg"
   xmlns:sodipodi="http://sodipodi.sourceforge.net/DTD/sodipodi-0.dtd"
   xmlns:inkscape="http://www.inkscape.org/namespaces/inkscape"
   version="1.1"
   id="Capa_1"
   x="0px"
   y="0px"
   viewBox="0 0 511.012 511.012"
   style="enable-background:new 0 0 511.012 511.012;"
   xml:space="preserve"
   inkscape:version="0.91 r13725"
   sodipodi:docname="HomeIcon.svg"><metadata
     id="metadata47"><rdf:RDF><cc:Work
         rdf:about=""><dc:format>image/svg+xml</dc:format><dc:type
           rdf:resource="http://purl.org/dc/dcmitype/StillImage" /></cc:Work></rdf:RDF></metadata><defs
     id="defs45" /><sodipodi:namedview
     pagecolor="#ffffff"
     bordercolor="#666666"
     borderopacity="1"
     objecttolerance="10"
     gridtolerance="10"
     guidetolerance="10"
     inkscape:pageopacity="0"
     inkscape:pageshadow="2"
     inkscape:window-width="1209"
     inkscape:window-height="691"
     id="namedview43"
     showgrid="false"
     inkscape:zoom="0.64"
     inkscape:cx="522.36204"
     inkscape:cy="114.16796"
     inkscape:window-x="79"
     inkscape:window-y="65"
     inkscape:window-maximized="0"
     inkscape:current-layer="g3"
     showguides="false" /><g
     id="g3"
     style="fill:#000000;fill-opacity:1"><path
       style="opacity:1;fill:#314e55;fill-opacity:1"
       d="m 27.747729,496.95382 c -6.18605,-4.52335 -2.81904,-12.35855 5.31081,-12.35855 l 6.35,0 0,-139.73835 c 0,-137.48425 -0.0676,-139.70221 -4.18826,-137.49688 -5.37976,2.87916 -18.71089,2.8858 -24.08064,0.012 -11.30475554,-6.05012 -13.8732705,-24.63262 -4.7519995,-34.3794 3.27502,-3.49961 59.0039995,-41.0289 123.8421705,-83.398403 91.13384,-59.552814 119.41827,-77.035468 124.63243,-77.035468 8.49105,0 7.85618,-0.391367 140.47287,86.595696 95.10295,62.380745 110.58765,73.272905 113.25996,79.668665 6.51239,15.58636 -4.39078,30.7784 -22.08938,30.7784 -5.19747,0 -10.05215,-0.97439 -10.78818,-2.16531 -0.73603,-1.19091 -2.25512,-2.1653 -3.37575,-2.1653 -1.25209,0 -2.03751,53.83719 -2.03751,139.66218 l 0,139.66217 6.41974,0 c 7.20841,0 11.82499,5.82918 8.66678,10.94319 -2.80701,4.54533 -163.54317,5.88623 -169.65747,1.41536 -6.18604,-4.52335 -2.81904,-12.35855 5.31082,-12.35855 l 6.34999,0 0,-128.83565 0,-128.83565 -72.53771,0 -72.53772,0 0,128.83565 0,128.83565 6.41973,0 c 7.20841,0 11.825,5.82918 8.66678,10.94319 -2.80699,4.54533 -163.543161,5.88623 -169.657461,1.41536 z M 168.80219,349.3812 c 0.43268,-104.00424 1.1622,-134.51514 3.24796,-135.83975 4.65979,-2.95928 164.90589,-2.17309 167.90273,0.82375 1.96491,1.96491 2.59837,35.23029 2.59837,136.45016 l 0,133.85182 56.83926,-0.57729 56.83926,-0.57727 0,-16.23979 0,-16.23979 -46.8797,-0.58294 c -39.02837,-0.48533 -47.08575,-1.11996 -48.11007,-3.78928 -3.47395,-9.05299 -0.93149,-9.59211 48.11007,-10.20197 l 46.8797,-0.58294 0,-120.17443 0,-120.17443 -62.79385,-41.63623 c -51.62813,-34.23265 -62.79385,-42.51069 -62.79385,-46.55406 0,-11.036297 8.33881,-6.81235 82.35381,41.71559 65.84155,43.16901 73.63825,47.71814 78.21192,45.63423 6.00653,-2.73675 6.60126,-9.06113 1.29083,-13.72656 -9.76724,-8.5809 -233.37043,-153.244115 -236.86656,-153.244115 -2.18812,0 -57.0927,34.757762 -122.01015,77.239475 -96.924001,63.42666 -118.031741,78.09374 -118.031741,82.01646 0,5.89482 5.2608,10.57515 9.89001,8.79875 1.89708,-0.72798 54.01707,-34.45335 115.822191,-74.94527 61.80512,-40.491918 113.15636,-73.62167 114.11388,-73.62167 4.7877,0 26.50645,15.887294 26.50645,19.38951 0,8.307509 -5.45568,9.338249 -16.58968,3.134279 l -10.47663,-5.837679 -100.14536,65.533 -100.145361,65.53299 0,120.95918 0,120.95918 47.095381,0.58355 47.09539,0.58355 0,5.41327 0,5.41326 -47.09539,0.58355 -47.095381,0.58355 0,17.31618 0,17.31616 56.839261,-0.57729 56.83925,-0.57727 0.558,-134.13142 z"
       id="path4177"
       inkscape:connector-curvature="0" /><path
       style="opacity:1;fill:#314e55;fill-opacity:1"
       d="m 84.33828,369.66066 c -3.49573,-2.03607 -3.78928,-8.13561 -3.78928,-78.73612 0,-67.78703 0.39125,-76.67921 3.42505,-77.84339 6.56856,-2.52059 54.0395,-1.44688 56.77043,1.28405 1.9213,1.9213 2.59836,22.21354 2.59836,77.8748 0,72.20751 -0.17075,75.36781 -4.18826,77.51792 -5.3867,2.88288 -49.83512,2.80402 -54.8163,-0.0973 z m 43.84743,-57.20714 0,-44.38875 -16.23979,0 -16.23978,0 0,44.38875 0,44.38875 16.23978,0 16.23979,0 0,-44.38875 z m 0,-72.53772 0,-12.99183 -16.23979,0 -16.23978,0 0,12.99183 0,12.99183 16.23978,0 16.23979,0 0,-12.99183 z"
       id="path4179"
       inkscape:connector-curvature="0" /><path
       style="opacity:1;fill:#314e55;fill-opacity:1"
       d="m 369.97854,368.39057 c -0.79395,-0.79395 -1.44354,-35.18982 -1.44354,-76.43527 0,-55.43983 0.67745,-75.66918 2.59837,-77.5901 1.73847,-1.73848 11.38701,-2.59837 29.15543,-2.59837 24.0401,0 26.76951,0.39695 28.79856,4.18826 2.41115,4.50528 3.27288,144.34113 0.92717,150.45396 -1.10681,2.88432 -5.83577,3.42505 -29.95338,3.42505 -15.75149,0 -29.28867,-0.64959 -30.08261,-1.44353 z m 46.19317,-57.0197 0,-45.47141 -16.23979,0 -16.23978,0 0,45.47141 0,45.4714 16.23978,0 16.23979,0 0,-45.4714 z m 0,-71.45507 0,-12.99183 -16.23979,0 -16.23978,0 0,12.99183 0,12.99183 16.23978,0 16.23979,0 0,-12.99183 z"
       id="path4181"
       inkscape:connector-curvature="0" /><path
       style="opacity:1;fill:#314e55;fill-opacity:1"
       d="m 300.86914,93.736929 c -5.5806,-3.813749 -8.1199,-7.171903 -8.1199,-10.738371 0,-8.041275 6.95452,-8.83731 17.31389,-1.981801 7.12738,4.716679 8.75912,6.989992 8.23754,11.476428 -0.89041,7.659015 -7.36787,8.121185 -17.43153,1.243744 z"
       id="path4189"
       inkscape:connector-curvature="0" /><path
       style="opacity:1;fill:#f58cac;fill-opacity:1"
       d="m 54.56549,466.77372 0,-17.28021 47.09538,-0.58355 47.09539,-0.58355 0,-5.41326 0,-5.41327 -47.09539,-0.58355 -47.09538,-0.58355 0,-120.89084 0,-120.89084 100.11504,-65.54364 100.11502,-65.543629 10.41627,5.85526 c 11.09643,6.237605 16.7107,5.13991 16.7107,-3.267257 0,-3.500421 -21.71766,-19.38951 -26.50214,-19.38951 -0.95514,0 -52.55234,33.224136 -114.66045,73.831406 C 78.65183,161.10101 26.5299,194.82638 24.93343,195.439 21.03965,196.93319 15.59,192.1577 15.59,187.25142 c 0,-5.15054 8.11759,-10.81922 121.25708,-84.6764 128.39072,-83.813146 116.12486,-76.460811 122.6212,-73.50088 10.14963,4.624482 226.84288,145.64959 233.25684,151.80477 5.57967,5.35455 2.98498,13.02415 -4.40616,13.02415 -3.52347,0 -31.29939,-16.83403 -77.00167,-46.66806 -72.10983,-47.07267 -79.87461,-50.967037 -81.32753,-40.78922 -0.54529,3.81989 9.6521,11.3585 62.25252,46.02128 l 62.90464,41.45309 0,121.24855 0,121.24853 -46.32239,0 c -39.17799,0 -46.51463,0.50094 -47.56876,3.24796 -0.6855,1.78637 -0.6855,4.70954 0,6.49591 1.05413,2.74702 8.39077,3.24796 47.56876,3.24796 l 46.32239,0 0,17.32244 0,17.32244 -56.29793,0 -56.29793,0 0,-133.81585 c 0,-101.19192 -0.63348,-134.44933 -2.59837,-136.41422 -1.92989,-1.9299 -23.51571,-2.58984 -83.90557,-2.56521 -44.71896,0.0182 -82.37821,0.74903 -83.68721,1.62398 -2.39885,1.60341 -5.16878,121.21221 -5.18921,224.07592 l -0.009,47.09538 -56.29793,0 -56.29793,0 0,-17.28022 z m 86.68144,-99.68414 c 3.18675,-5.03986 2.7115,-150.05191 -0.5023,-153.26571 -3.89452,-3.89452 -54.52378,-3.57535 -57.79343,0.36433 -1.75589,2.11573 -2.29595,24.52722 -1.88911,78.39526 l 0.56972,75.43258 5.41326,1.61848 c 2.97729,0.89018 15.934,1.40399 28.79268,1.14181 17.91751,-0.36533 23.85362,-1.22662 25.40918,-3.68675 z m 288.76732,-1.22186 c 2.34572,-6.11283 1.48397,-145.94868 -0.92716,-150.45395 -2.02907,-3.79132 -4.75848,-4.18827 -28.79856,-4.18827 -17.76843,0 -27.41696,0.85989 -29.15544,2.59837 -1.92093,1.92092 -2.59837,22.15027 -2.59837,77.59009 0,41.24547 0.64959,75.64134 1.44354,76.43527 0.79394,0.79395 14.33112,1.44354 30.08261,1.44354 24.1176,0 28.84656,-0.54074 29.95338,-3.42505 z M 317.32695,93.884458 c 1.77513,-2.818938 1.33103,-4.740269 -1.92812,-8.341576 -6.85965,-7.579835 -15.89416,-11.47739 -19.55736,-8.437198 -5.22919,4.339828 -3.46523,9.854189 5.02747,15.716471 9.03673,6.237828 13.03633,6.495984 16.45801,1.062303 z"
       id="path4195"
       inkscape:connector-curvature="0" /><path
       style="opacity:1;fill:#73c9c9;fill-opacity:1"
       d="m 383.69206,311.37087 0,-45.47141 16.23978,0 16.23979,0 0,45.47141 0,45.4714 -16.23979,0 -16.23978,0 0,-45.4714 z"
       id="path4197"
       inkscape:connector-curvature="0" /><path
       style="opacity:1;fill:#73c9c9;fill-opacity:1"
       d="m 383.69206,239.9158 0,-12.99183 16.23978,0 16.23979,0 0,12.99183 0,12.99183 -16.23979,0 -16.23978,0 0,-12.99183 z"
       id="path4199"
       inkscape:connector-curvature="0" /><path
       style="opacity:1;fill:#73c9c9;fill-opacity:1"
       d="m 95.706484,312.45352 0,-44.38875 16.239786,0 16.23979,0 0,44.38875 0,44.38875 -16.23979,0 -16.239786,0 0,-44.38875 z"
       id="path4201"
       inkscape:connector-curvature="0" /><path
       style="opacity:1;fill:#73c9c9;fill-opacity:1"
       d="m 95.706484,239.9158 0,-12.99183 16.239786,0 16.23979,0 0,12.99183 0,12.99183 -16.23979,0 -16.239786,0 0,-12.99183 z"
       id="path4203"
       inkscape:connector-curvature="0" /><path
       style="opacity:1;fill:#f58cac;fill-opacity:1"
       d="m 53.89151,466.94243 0,-17.86377 17.051778,-0.002 c 9.378477,-0.001 30.571402,-0.3231 47.095382,-0.71543 l 30.04361,-0.71334 0,-4.69782 0,-4.69784 -17.68787,0 c -9.72833,0 -30.923345,-0.32192 -47.100032,-0.71539 L 53.88222,436.82136 54.157528,315.56757 54.432837,194.31379 154.47217,128.82612 254.51151,63.338456 l 8.76724,4.458678 c 11.07641,5.63303 13.86308,6.305188 16.24895,3.919318 3.27972,-3.279717 1.71564,-7.012017 -5.3164,-12.686369 -3.57275,-2.882953 -9.03687,-6.70197 -12.14249,-8.486704 -4.8678,-2.79743 -5.98769,-3.064738 -8.11989,-1.938157 -4.16191,2.199004 -37.41133,23.629119 -103.16001,66.489298 -131.966768,86.02637 -126.286254,82.49532 -129.994609,80.80568 -1.455739,-0.66328 -3.466023,-2.9239 -4.467297,-5.02359 -1.744636,-3.65854 -1.729144,-3.93999 0.37176,-6.75392 4.219173,-5.65112 29.554784,-22.77562 148.705956,-100.511309 60.85149,-39.700261 80.79819,-52.368188 86.30392,-54.810684 l 4.56366,-2.024564 8.42817,5.094149 c 24.34565,14.714969 132.2525,84.545178 190.0077,122.960468 39.99966,26.60537 43.00451,29.13207 41.54771,34.93639 -0.33919,1.35145 -1.92562,3.31481 -3.5254,4.36303 -5.20385,3.40969 -8.71296,1.46754 -73.75248,-40.81902 -54.17458,-35.22254 -65.59962,-42.33992 -75.68645,-47.14985 -8.88954,-4.239 -11.55016,-4.26012 -12.03337,-0.0955 -0.51942,4.47671 7.34048,10.30919 69.3528,51.4636 l 56.02727,37.18244 0,120.66687 0,120.66687 -2.43597,0.53482 c -1.33978,0.29416 -21.43652,0.69601 -44.65941,0.89302 -46.26903,0.3925 -48.17804,0.6322 -48.17804,6.04935 0,1.94643 0.72723,3.50181 1.89464,4.05223 1.04205,0.49132 22.10563,1.06494 46.80795,1.27473 32.95882,0.27989 45.12947,0.72133 45.72549,1.65849 0.4467,0.70239 0.81965,8.41106 0.82877,17.13037 0.0141,13.46746 -0.24115,15.95219 -1.69596,16.51045 -0.94188,0.36144 -26.7321,0.65716 -57.31158,0.65716 l -55.59906,0 -0.42111,-132.8956 c -0.23161,-73.09258 -0.79569,-133.94976 -1.2535,-135.23817 -0.74302,-2.09106 -1.9547,-2.43677 -11.2864,-3.22003 -15.74882,-1.3219 -154.6416,-1.17108 -155.98233,0.16938 -2.16969,2.16924 -3.26305,44.99368 -3.99368,156.42325 -0.52824,80.56427 -1.0859,113.36619 -1.93692,113.9326 -0.6573,0.43748 -26.40736,0.80288 -57.22236,0.81199 l -56.02727,0.0166 0,-17.86377 z m 86.30458,-99.37214 c 1.81478,-1.8165 1.9316,-6.26877 1.9316,-73.62037 0,-39.42784 -0.38235,-73.48663 -0.84966,-75.68623 -0.79547,-3.7442 -1.17523,-4.05482 -5.95459,-4.87064 -2.80771,-0.47927 -15.25347,-0.87197 -27.65724,-0.87268 -20.461277,-0.001 -22.684326,0.17925 -23.976082,1.94583 -0.953021,1.30333 -1.687925,7.92564 -2.222707,20.02908 -0.992285,22.45781 0.439029,130.01471 1.763201,132.49684 1.428298,2.67731 3.505879,2.86009 30.440488,2.67791 22.03252,-0.14901 24.79453,-0.36765 26.52499,-2.09974 z m 288.51144,-0.55568 c 1.10237,-1.10292 1.48289,-12.43445 1.76327,-52.50865 0.47066,-67.2717 -0.42978,-96.29576 -3.08935,-99.5802 -1.90377,-2.35106 -2.48272,-2.40667 -25.05084,-2.40667 -27.33117,0 -30.68103,0.48868 -31.7211,4.6276 -1.12676,4.48388 -2.02828,108.1779 -1.13687,130.76343 l 0.78355,19.85261 3.94488,0.46065 c 2.16968,0.25335 15.00494,0.40147 28.5228,0.32916 18.57088,-0.0994 24.9215,-0.47523 25.98366,-1.53793 z M 316.37336,94.81039 c 0.92695,-1.323412 1.68537,-3.173311 1.68537,-4.110888 0,-3.881239 -13.91763,-13.944776 -19.4025,-14.029531 -2.44425,-0.03777 -5.49851,3.329785 -5.49851,6.06252 0,2.981068 5.96121,9.247178 11.65951,12.255853 5.44908,2.877091 9.45954,2.815333 11.55613,-0.177954 z"
       id="path4273"
       inkscape:connector-curvature="0" /></g><g
     id="g13" /><g
     id="g15" /><g
     id="g17" /><g
     id="g19" /><g
     id="g21" /><g
     id="g23" /><g
     id="g25" /><g
     id="g27" /><g
     id="g29" /><g
     id="g31" /><g
     id="g33" /><g
     id="g35" /><g
     id="g37" /><g
     id="g39" /><g
     id="g41" /></svg>