<?xml version="1.0" encoding="iso-8859-1"?>
<!-- Generator: Adobe Illustrator 19.0.0, SVG Export Plug-In . SVG Version: 6.00 Build 0)  -->
<svg version="1.1" id="Capa_1" xmlns="http://www.w3.org/2000/svg" xmlns:xlink="http://www.w3.org/1999/xlink" x="0px" y="0px"
	 viewBox="0 0 511.012 511.012" style="enable-background:new 0 0 511.012 511.012;" xml:space="preserve">
<g>
	<path d="M510.51,182.709c-1.28-6.145-4.876-11.424-10.126-14.865L268.645,16.016l-0.264-0.174c-0.459-0.3-0.869-0.508-1.148-0.641
		c-0.809-0.474-1.754-1-2.858-1.45c-0.715-0.292-1.35-0.469-1.771-0.586l-0.567-0.171c-0.5-0.159-1.184-0.377-2.012-0.541
		c-0.804-0.158-1.498-0.214-2.005-0.254l-0.577-0.056c-0.483-0.054-1.146-0.128-1.947-0.129c-0.783,0.001-1.442,0.074-1.923,0.128
		l-0.593,0.057c-0.505,0.041-1.197,0.097-2,0.254c-0.818,0.161-1.496,0.377-1.991,0.535l-0.566,0.17
		c-0.428,0.119-1.075,0.299-1.78,0.588c-1.092,0.444-2.004,0.951-2.846,1.443c-0.262,0.125-0.694,0.34-1.168,0.651l-0.104,0.068
		c-0.026,0.017-0.063,0.042-0.102,0.067L10.627,167.844c-5.25,3.441-8.846,8.72-10.125,14.865c-1.28,6.146-0.09,12.421,3.35,17.67
		C8.207,207.029,15.562,211,23.524,211c4.583,0,9.033-1.33,12.864-3.844l3.62-2.371v279.213h-8.5c-4.142,0-7.5,3.358-7.5,7.5
		s3.358,7.5,7.5,7.5h159.999c4.142,0,7.5-3.358,7.5-7.5s-3.358-7.5-7.5-7.5h-8.5V227h144.999v256.998h-8.5
		c-4.142,0-7.5,3.358-7.5,7.5s3.358,7.5,7.5,7.5h159.999c4.142,0,7.5-3.358,7.5-7.5s-3.358-7.5-7.5-7.5h-8.5V204.784l3.62,2.372
		c3.838,2.515,8.286,3.844,12.864,3.844c7.962,0,15.316-3.971,19.671-10.619C510.601,195.13,511.791,188.854,510.51,182.709z
		 M494.613,192.16c-1.575,2.404-4.238,3.84-7.125,3.84c-1.649,0-3.255-0.481-4.644-1.391l-142.528-93.38
		c-3.464-2.27-8.114-1.302-10.384,2.163c-2.27,3.465-1.301,8.114,2.163,10.384l123.935,81.198c-0.012,0.174-0.027,0.348-0.027,0.526
		v240.498h-88.5c-4.142,0-7.5,3.358-7.5,7.5s3.358,7.5,7.5,7.5h88.5v33H343.005V219.5c0-4.142-3.358-7.5-7.5-7.5H175.506
		c-4.142,0-7.5,3.358-7.5,7.5v264.498H55.007v-33h88.5c4.142,0,7.5-3.358,7.5-7.5s-3.358-7.5-7.5-7.5h-88.5V195.5
		c0-0.177-0.014-0.351-0.026-0.525L255.506,63.595l15.553,10.19c3.464,2.27,8.114,1.302,10.384-2.163
		c2.27-3.465,1.301-8.114-2.163-10.384l-19.663-12.883c-2.497-1.636-5.725-1.635-8.221,0L28.163,194.611
		c-1.384,0.908-2.988,1.388-4.64,1.388c-2.886,0-5.55-1.436-7.125-3.842c-1.245-1.898-1.675-4.168-1.212-6.391
		c0.463-2.223,1.764-4.133,3.663-5.377l231.69-151.797c0.229-0.112,0.453-0.231,0.672-0.361c0.28-0.165,0.731-0.431,1.025-0.564
		c0.069-0.021,0.139-0.039,0.208-0.058c0.203-0.057,0.407-0.114,0.607-0.175l0.501-0.157c0.106-0.034,0.212-0.07,0.319-0.101
		c0.107-0.012,0.214-0.018,0.322-0.027l1.044-0.1c0.1-0.011,0.199-0.024,0.25-0.032c0.096,0.008,0.192,0.021,0.289,0.032l1.04,0.1
		c0.108,0.009,0.216,0.015,0.324,0.027c0.114,0.033,0.227,0.071,0.34,0.107l0.482,0.151c0.206,0.063,0.413,0.122,0.619,0.179
		c0.067,0.019,0.135,0.037,0.203,0.056c0.297,0.134,0.766,0.411,1.023,0.563c0.216,0.128,0.435,0.244,0.667,0.359L492.162,180.39
		c1.899,1.245,3.2,3.154,3.664,5.377C496.289,187.99,495.858,190.259,494.613,192.16z"/>
	<path d="M315.856,85.203l-12.173-7.976c-3.464-2.27-8.114-1.302-10.384,2.163s-1.302,8.114,2.163,10.384l12.173,7.976
		c1.268,0.831,2.693,1.228,4.104,1.228c2.444,0,4.841-1.193,6.28-3.391C320.289,92.122,319.321,87.473,315.856,85.203z"/>
	<path d="M135.507,212h-48c-4.142,0-7.5,3.358-7.5,7.5v143.999c0,4.142,3.358,7.5,7.5,7.5h48c4.142,0,7.5-3.358,7.5-7.5V219.5
		C143.007,215.358,139.649,212,135.507,212z M128.007,227v25h-33v-25H128.007z M95.007,355.998v-88.999h33v88.999H95.007z"/>
	<path d="M375.505,370.998h48c4.142,0,7.5-3.358,7.5-7.5V219.5c0-4.142-3.358-7.5-7.5-7.5h-48c-4.142,0-7.5,3.358-7.5,7.5v143.999
		C368.005,367.64,371.363,370.998,375.505,370.998z M383.005,355.998v-88.999h33v88.999H383.005z M416.004,227v25h-33v-25H416.004z"
		/>
</g>
<g>
</g>
<g>
</g>
<g>
</g>
<g>
</g>
<g>
</g>
<g>
</g>
<g>
</g>
<g>
</g>
<g>
</g>
<g>
</g>
<g>
</g>
<g>
</g>
<g>
</g>
<g>
</g>
<g>
</g>
</svg>
