<?xml version="1.0" encoding="UTF-8" standalone="no"?>
<!-- Generator: Adobe Illustrator 19.0.0, SVG Export Plug-In . SVG Version: 6.00 Build 0)  -->

<svg
   xmlns:dc="http://purl.org/dc/elements/1.1/"
   xmlns:cc="http://creativecommons.org/ns#"
   xmlns:rdf="http://www.w3.org/1999/02/22-rdf-syntax-ns#"
   xmlns:svg="http://www.w3.org/2000/svg"
   xmlns="http://www.w3.org/2000/svg"
   xmlns:sodipodi="http://sodipodi.sourceforge.net/DTD/sodipodi-0.dtd"
   xmlns:inkscape="http://www.inkscape.org/namespaces/inkscape"
   version="1.1"
   id="Layer_1"
   x="0px"
   y="0px"
   viewBox="0 0 512.002 512.002"
   style="enable-background:new 0 0 512.002 512.002;"
   xml:space="preserve"
   inkscape:version="0.91 r13725"
   sodipodi:docname="MuseumIcon.svg"><metadata
     id="metadata65"><rdf:RDF><cc:Work
         rdf:about=""><dc:format>image/svg+xml</dc:format><dc:type
           rdf:resource="http://purl.org/dc/dcmitype/StillImage" /><dc:title></dc:title></cc:Work></rdf:RDF></metadata><defs
     id="defs63" /><sodipodi:namedview
     pagecolor="#ffffff"
     bordercolor="#666666"
     borderopacity="1"
     objecttolerance="10"
     gridtolerance="10"
     guidetolerance="10"
     inkscape:pageopacity="0"
     inkscape:pageshadow="2"
     inkscape:window-width="810"
     inkscape:window-height="604"
     id="namedview61"
     showgrid="false"
     inkscape:zoom="0.6518615"
     inkscape:cx="250.28533"
     inkscape:cy="203.17306"
     inkscape:window-x="0"
     inkscape:window-y="0"
     inkscape:window-maximized="0"
     inkscape:current-layer="Layer_1" /><rect
     x="106.678"
     y="8.821"
     style="fill:#B27214;"
     width="296.673"
     height="218.717"
     id="rect3" /><rect
     x="139.88"
     y="42.027"
     style="fill:#f58cac;fill-opacity:1"
     width="230.255"
     height="152.3"
     id="rect5" /><rect
     x="240.947"
     y="314.421"
     style="fill:#73c9c9;fill-opacity:1"
     width="27.146"
     height="188.761"
     id="rect7" /><circle
     style="fill:#CCCCCC;"
     cx="254.52"
     cy="290.604"
     r="23.816"
     id="circle9" /><rect
     x="36.213"
     y="314.421"
     style="fill:#73c9c9;fill-opacity:1"
     width="27.146"
     height="188.761"
     id="rect11" /><circle
     style="fill:#CCCCCC;"
     cx="49.787"
     cy="290.604"
     r="23.816"
     id="circle13" /><rect
     x="446.668"
     y="314.421"
     style="fill:#73c9c9;fill-opacity:1"
     width="27.146"
     height="188.761"
     id="rect15" /><circle
     style="fill:#CCCCCC;"
     cx="460.241"
     cy="290.604"
     r="23.816"
     id="circle17" /><g
     id="g25"><path
       style="fill:#314e55;fill-opacity:1"
       d="M497.507,494.358h-13.884V314.417c0-0.034-0.005-0.067-0.005-0.101   c6.303-5.955,10.249-14.38,10.249-23.715c0-17.996-14.641-32.637-32.637-32.637c-17.996,0-32.637,14.641-32.637,32.637   c0,9.335,3.945,17.76,10.249,23.715c0,0.034-0.005,0.067-0.005,0.101v26.47c-21.829,20.745-50.306,32.134-80.535,32.134   c-30.165,0-58.585-11.343-80.397-32.004v-26.6c0-0.034-0.005-0.067-0.005-0.101c6.303-5.955,10.249-14.38,10.249-23.715   c0-17.996-14.641-32.637-32.637-32.637s-32.637,14.641-32.637,32.637c0,9.335,3.945,17.76,10.249,23.715   c0,0.034-0.005,0.067-0.005,0.101v26.928c-21.765,20.452-50.041,31.677-80.044,31.677c-29.94,0-58.16-11.178-79.907-31.549v-27.055   c0-0.034-0.005-0.067-0.005-0.101c6.303-5.955,10.249-14.38,10.249-23.715c0-17.996-14.641-32.637-32.637-32.637   s-32.637,14.641-32.637,32.637c0,9.335,3.945,17.76,10.249,23.715c0,0.034-0.005,0.067-0.005,0.101V494.36H14.494   c-4.872,0-8.821,3.95-8.821,8.821s3.95,8.821,8.821,8.821h22.707h27.144h177.593h27.144h178.574h27.144h22.707   c4.872,0,8.821-3.95,8.821-8.821S502.379,494.358,497.507,494.358z M461.228,275.606c8.268,0,14.995,6.726,14.995,14.995   c0,8.268-6.726,14.995-14.995,14.995s-14.995-6.726-14.995-14.995S452.96,275.606,461.228,275.606z M358.3,390.664   c29.424,0,57.404-9.381,80.535-26.719v130.413H277.903V364.05C301.007,381.321,328.935,390.664,358.3,390.664z M255.51,275.606   c8.268,0,14.995,6.726,14.995,14.995c0,8.268-6.726,14.995-14.995,14.995c-8.268,0-14.995-6.726-14.995-14.995   S247.242,275.606,255.51,275.606z M153.073,390.664c29.214,0,57.009-9.242,80.044-26.345v130.04H73.167V364.418   C96.175,381.455,123.915,390.664,153.073,390.664z M50.773,275.606c8.268,0,14.995,6.726,14.995,14.995   c0,8.268-6.726,14.995-14.995,14.995s-14.995-6.726-14.995-14.995S42.504,275.606,50.773,275.606z M46.022,494.358v-171.12h9.502   v171.121h-9.502V494.358z M250.758,494.358v-171.12h9.502v171.121h-9.502V494.358z M456.478,494.358v-171.12h9.502v171.121h-9.502   V494.358z"
       id="path29" /><path
       style="opacity:1;fill:#314e55;fill-opacity:1"
       d="M 103.22762,234.06398 C 99.68821,232.00246 99.431,224.14893 99.431,118.13804 99.431,7.9321115 99.56048,4.3541197 103.62737,2.1775844 c 6.40892,-3.4299506 302.16676,-3.08390694 305.60824,0.3575687 3.75417,3.7541741 3.75417,227.5145369 0,231.2687069 -3.4098,3.4098 -300.16721,3.66207 -306.00799,0.26012 z m 271.72989,-22.60597 -7.35966,-7.59325 -111.96285,0 -111.96283,0 -7.35967,7.59325 -7.35967,7.59325 126.68217,0 126.68217,0 -7.35966,-7.59325 z m -242.98401,-93.2885 0,-71.827087 -7.59325,-7.359669 -7.59325,-7.359669 0,86.546425 0,86.54642 7.59325,-7.35967 7.59325,-7.35967 0,-71.82708 z m 262.50951,-0.42559 0,-86.120835 -7.59325,7.359669 -7.59325,7.359669 0,71.607007 0,71.60701 6.93409,7.15416 c 3.81374,3.93479 7.2307,7.15416 7.59325,7.15416 0.36254,0 0.65916,-38.75438 0.65916,-86.12084 z m -32.5425,0.42559 0,-68.339256 -106.30551,0 -106.3055,0 0,68.339256 0,68.33925 106.3055,0 106.30551,0 0,-68.33925 z m 13.017,-93.288506 7.35966,-7.59325 -126.68217,0 -126.68217,0 7.35967,7.59325 7.35967,7.59325 111.96283,0 111.96285,0 7.35966,-7.59325 z"
       id="path4207"
       inkscape:connector-curvature="0" /></g><g
     id="g31" /><g
     id="g33" /><g
     id="g35" /><g
     id="g37" /><g
     id="g39" /><g
     id="g41" /><g
     id="g43" /><g
     id="g45" /><g
     id="g47" /><g
     id="g49" /><g
     id="g51" /><g
     id="g53" /><g
     id="g55" /><g
     id="g57" /><g
     id="g59" /><rect
     style="opacity:1;fill:#314e55;fill-opacity:1"
     id="rect4209"
     width="13.423091"
     height="85.524292"
     x="233.17836"
     y="331.74899" /><rect
     style="opacity:1;fill:#314e55;fill-opacity:1"
     id="rect4211"
     width="14.573647"
     height="69.416588"
     x="263.09271"
     y="332.89954" /><rect
     style="opacity:1;fill:#314e55;fill-opacity:1"
     id="rect4213"
     width="15.186501"
     height="40.678127"
     x="439.32376"
     y="325.96738" /><rect
     style="opacity:1;fill:#314e55;fill-opacity:1"
     id="rect4215"
     width="15.728869"
     height="46.101871"
     x="57.174034"
     y="326.50977"
     ry="0" /></svg>