<?xml version="1.0" encoding="UTF-8" standalone="no"?>
<!-- Generator: Adobe Illustrator 19.0.0, SVG Export Plug-In . SVG Version: 6.00 Build 0)  -->

<svg
   xmlns:dc="http://purl.org/dc/elements/1.1/"
   xmlns:cc="http://creativecommons.org/ns#"
   xmlns:rdf="http://www.w3.org/1999/02/22-rdf-syntax-ns#"
   xmlns:svg="http://www.w3.org/2000/svg"
   xmlns="http://www.w3.org/2000/svg"
   xmlns:sodipodi="http://sodipodi.sourceforge.net/DTD/sodipodi-0.dtd"
   xmlns:inkscape="http://www.inkscape.org/namespaces/inkscape"
   version="1.1"
   id="Layer_1"
   x="0px"
   y="0px"
   viewBox="0 0 512 512"
   style="enable-background:new 0 0 512 512;"
   xml:space="preserve"
   inkscape:version="0.91 r13725"
   sodipodi:docname="CocktailIcon.svg"><metadata
     id="metadata43"><rdf:RDF><cc:Work
         rdf:about=""><dc:format>image/svg+xml</dc:format><dc:type
           rdf:resource="http://purl.org/dc/dcmitype/StillImage" /><dc:title></dc:title></cc:Work></rdf:RDF></metadata><defs
     id="defs41" /><sodipodi:namedview
     pagecolor="#ffffff"
     bordercolor="#666666"
     borderopacity="1"
     objecttolerance="10"
     gridtolerance="10"
     guidetolerance="10"
     inkscape:pageopacity="0"
     inkscape:pageshadow="2"
     inkscape:window-width="1055"
     inkscape:window-height="655"
     id="namedview39"
     showgrid="false"
     inkscape:zoom="0.4609375"
     inkscape:cx="256"
     inkscape:cy="291.94531"
     inkscape:window-x="0"
     inkscape:window-y="0"
     inkscape:window-maximized="0"
     inkscape:current-layer="Layer_1" /><g
     id="g9" /><g
     id="g11" /><g
     id="g13" /><g
     id="g15" /><g
     id="g17" /><g
     id="g19" /><g
     id="g21" /><g
     id="g23" /><g
     id="g25" /><g
     id="g27" /><g
     id="g29" /><g
     id="g31" /><g
     id="g33" /><g
     id="g35" /><g
     id="g37" /><path
     style="opacity:1;fill:#314e55;fill-opacity:1"
     d="m 237.14742,508.10466 c -6.77231,-3.75359 -10.91373,-11.46943 -11.00938,-20.51144 -0.11044,-10.44148 11.71319,-22.02034 22.48584,-22.02034 l 7.81017,0 0,-87.94934 0,-87.94934 -55.49697,-60.3468 -55.49696,-60.34681 -9.04541,3.17808 c -21.97675,7.72147 -51.451211,4.85826 -71.559451,-6.95144 -21.64227,-12.71065 -38.59571,-37.0688 -43.26122,-62.15632 -6.80573,-36.595918 14.44656,-77.185837 49.36848,-94.2892631 12.00311,-5.8786652 14.87566,-6.3752062 36.881361,-6.3752062 21.46643,0 25.13661,0.5960046 36.52533,5.9313892 24.27782,11.3736761 38.02965,26.4802371 47.33322,51.9961501 l 4.58724,12.580935 100.3518,0 100.35181,0 29.76585,-32.542373 c 16.37122,-17.898305 31.36686,-32.5258314 33.32361,-32.5056146 4.34781,0.044921 24.16792,18.2604996 24.16792,22.2114076 0,1.562661 -7.81017,11.266107 -17.35593,21.563212 -9.54577,10.297108 -17.35594,19.296068 -17.35594,19.99769 0,0.701622 7.32204,1.275678 16.27119,1.275678 19.26294,0 24.94915,3.723208 24.94915,16.336135 0,6.688863 -2.81461,10.728255 -22.23729,31.91391 -12.2305,13.34065 -52.25762,56.92493 -88.94915,96.85394 l -66.71186,72.59822 0,87.48789 0,87.48787 6.61621,0 c 8.17979,0 18.54724,5.16727 21.52287,10.72729 1.22859,2.29565 2.2338,8.21827 2.2338,13.16137 0,7.04087 -1.37353,10.36102 -6.3416,15.32907 l -6.34157,6.34159 -44.09911,-0.0768 c -32.427,-0.0564 -45.47141,-0.83749 -49.28401,-2.95066 l 0,-8e-5 z m 90.47428,-19.13407 c 0.92301,-8.00536 -1.94939,-8.48896 -46.00478,-7.74522 -31.40942,0.53027 -36.97317,1.13536 -38.92504,4.23346 -1.65473,2.62643 -1.4871,4.56702 0.6131,7.0976 2.4981,3.01002 8.37135,3.40285 43.26402,2.89371 l 40.37352,-0.58912 0.67918,-5.89043 z m -29.96731,-114.09423 0,-90.69651 88.40678,-96.09813 c 48.62373,-52.85397 88.7322,-96.976134 89.12993,-98.049249 0.39776,-1.073113 -8.87682,-1.943429 -20.61017,-1.934032 l -21.33332,0.01714 -16.81356,18.260991 c -9.24746,10.04349 -16.81356,18.82224 -16.81356,19.50828 0,0.68605 1.9182,1.24735 4.26266,1.24735 2.34446,0 5.29798,1.93456 6.56341,4.29902 2.4712,4.61748 6.29336,0.10499 -76.78072,90.648 -37.49181,40.86257 -43.89525,44.47878 -61.41034,34.6801 -13.12423,-7.34225 -113.90008,-117.75809 -113.03292,-123.8454 l 0.6691,-4.69697 93.61664,-0.56526 93.61664,-0.56526 17.80456,-19.50254 17.80456,-19.502532 -144.63399,0 c -109.53518,0 -144.254871,0.613411 -143.071771,2.527718 0.85922,1.390245 40.943961,45.332154 89.077201,97.648694 l 87.51497,95.12097 0,91.09708 0,91.09706 13.01695,0 13.01695,0 0,-90.69652 z M 295.81603,240.2614 c 1.97195,-1.96343 22.80782,-24.55971 46.30191,-50.21394 l 42.71655,-46.64407 -50.09852,-0.58236 c -27.5542,-0.32029 -72.51053,-0.32029 -99.90296,0 l -49.80443,0.58236 45.39886,49.21086 c 24.96937,27.06599 47.1373,50.21477 49.26206,51.44172 4.6131,2.6639 11.19564,1.11503 16.12653,-3.79457 z M 124.63744,159.5605 c 9.21712,-2.55972 9.88282,-4.14069 3.98933,-9.47422 -3.2518,-2.94285 -6.24867,-3.43704 -13.89204,-2.29085 -6.49182,0.97351 -13.75162,0.29694 -21.743511,-2.02636 -26.75777,-7.7787 -43.75567,-30.27595 -43.33367,-57.353484 0.265,-17.003067 4.30289,-27.506367 15.22019,-39.590511 10.53305,-11.65883 22.57717,-17.495361 38.788281,-18.796631 24.8383,-1.993782 45.10626,8.975631 57.64949,31.201018 5.10638,9.048009 7.75406,11.665453 11.80021,11.665453 6.48977,0 6.63203,-3.544636 0.65278,-16.264942 -6.0531,-12.877427 -18.70306,-25.604246 -32.78534,-32.984555 -10.16697,-5.328351 -13.79677,-6.011931 -32.07454,-6.040416 -17.047561,-0.02657 -22.326061,0.813441 -30.536831,4.859575 -23.47529,11.568241 -39.50483,34.049675 -42.38376,59.443239 -3.7347,32.941854 20.65864,68.181264 53.28791,76.981444 12.403281,3.34519 24.880241,3.58203 35.361501,0.67124 z m -15.47442,-29.71643 c -1.13726,-2.08814 -5.68604,-7.21356 -10.108391,-11.38983 -11.96681,-11.30093 -20.51889,-23.811394 -20.51889,-30.016191 0,-3.025424 2.12272,-7.760302 4.71716,-10.521952 4.48964,-4.779004 6.16383,-5.021182 34.711861,-5.021182 21.24278,0 29.99471,-0.731522 29.99471,-2.507084 0,-5.143422 -11.04365,-16.726252 -20.1514,-21.135236 -39.816881,-19.275021 -79.352401,25.638268 -55.929531,63.537275 6.57524,10.63896 22.73458,20.0507 35.479301,20.66433 3.04538,0.14664 3.43111,-0.62476 1.80518,-3.61013 z m 283.74179,-20.38155 c 18.08032,-19.387421 19.45246,-21.381164 14.71507,-21.381164 -3.36583,0 -36.20278,33.615714 -36.20278,37.061374 0,5.17898 6.36939,0.53104 21.48771,-15.68021 z m 53.17753,-58.025618 c 10.17576,-11.205298 17.95113,-21.263612 17.27859,-22.351807 -0.67256,-1.088197 -1.9825,-1.68294 -2.91102,-1.321648 -2.93791,1.143166 -39.13451,41.308976 -39.13451,43.425888 0,5.166752 7.75103,-1.014951 24.76694,-19.752433 z"
     id="path4171"
     inkscape:connector-curvature="0" /><path
     style="opacity:1;fill:#f58cac;fill-opacity:1"
     d="m 279.21356,243.8977 c -2.38644,-1.24459 -24.57887,-24.36495 -49.31652,-51.37859 l -44.97753,-49.11572 49.85889,-0.58236 c 27.42239,-0.32029 72.45385,-0.32029 100.0699,0 l 50.21102,0.58236 -41.67182,45.55932 c -56.45318,61.71962 -54.45103,60.00571 -64.17394,54.93499 z"
     id="path4175"
     inkscape:connector-curvature="0" /><path
     style="opacity:1;fill:#73c9c9;fill-opacity:1"
     d="m 272.05424,374.81615 0,-90.75673 -88.40678,-96.11977 C 135.02373,135.07378 94.915254,90.978713 94.517514,89.950618 94.117273,88.916059 158.36786,88.081356 238.40244,88.081356 l 144.60808,0 -17.88492,19.502654 -17.88494,19.50266 -93.45762,0.56514 -93.45762,0.56514 -0.68022,4.78188 c -1.05472,7.41448 102.5479,119.49233 115.77569,125.24674 17.07182,7.42666 20.94073,4.49293 82.32262,-62.4238 54.92183,-59.87415 59.53161,-66.54559 47.19208,-68.29808 -2.68474,-0.3813 -4.88135,-1.21457 -4.88135,-1.85173 0,-0.63715 7.442,-9.35569 16.53781,-19.37453 l 16.5378,-18.216074 21.53611,0 c 17.65198,0 21.22318,0.537114 19.80116,2.978113 -0.9542,1.637962 -41.02983,45.700151 -89.05695,97.915971 l -87.32203,94.93787 0,90.82977 0,90.8298 -13.01695,0 -13.01695,0 0,-90.75673 z"
     id="path4177"
     inkscape:connector-curvature="0" /><path
     style="opacity:1;fill:#73c9c9;fill-opacity:1"
     d="m 243.12768,494.49943 c -0.79548,-0.79548 -1.44632,-3.70569 -1.44632,-6.46714 0,-6.96647 3.81502,-7.52601 46.41035,-6.80691 30.92298,0.52204 36.99225,1.16569 38.85374,4.12041 1.21336,1.92595 1.59324,5.09884 0.84418,7.05085 -1.1943,3.11228 -6.39937,3.54912 -42.28877,3.54912 -22.50977,0 -41.5777,-0.65084 -42.37318,-1.44633 z"
     id="path4179"
     inkscape:connector-curvature="0" /><path
     style="opacity:1;fill:#f58cac;fill-opacity:1"
     d="M 95.426002,130.94701 C 79.782693,126.81134 63.74605,105.50107 63.79515,88.914397 63.821084,80.153513 68.659765,68.094471 75.085822,60.775596 89.11038,44.802505 109.78917,40.319819 128.24182,49.252595 c 9.10774,4.408983 20.1514,15.991814 20.1514,21.135236 0,1.775436 -8.7444,2.507084 -29.9638,2.507084 -27.155844,0 -30.408747,0.414534 -34.711864,4.423496 -8.382742,7.809714 -5.158592,20.876277 8.276578,33.542609 3.796944,3.57966 9.823766,10.16949 13.392936,14.64406 7.23821,9.07437 6.11006,9.6907 -9.961068,5.44193 z"
     id="path4181"
     inkscape:connector-curvature="0" /><path
     style="opacity:1;fill:#f5ffac;fill-opacity:1"
     d="M 87.350589,158.44466 C 45.279638,145.49165 23.763309,96.101237 43.033259,56.714878 50.400179,41.657437 66.89431,26.759947 82.871036,20.733422 c 16.430613,-6.197735 42.320604,-5.234225 56.844214,2.115487 13.09854,6.628552 27.41,20.665105 33.80976,33.160324 6.77972,13.23706 6.71845,16.885682 -0.28354,16.885682 -3.93704,0 -6.58665,-1.932717 -9.22034,-6.725623 -9.28051,-16.889118 -15.62246,-23.372687 -29.5865,-30.247157 -12.86991,-6.335841 -15.61606,-6.90163 -28.87767,-5.949681 -18.21206,1.307304 -29.712109,6.95478 -41.551786,20.405361 -16.960753,19.268434 -19.502876,45.010868 -6.664747,67.489595 11.356683,19.8848 28.551849,29.34949 53.906533,29.67161 13.91941,0.17683 16.41608,0.82049 19.14945,4.93679 2.99951,4.51708 2.76371,4.8388 -5.15882,7.03875 -11.16028,3.099 -25.678105,2.68903 -37.887001,-1.0699 z"
     id="path4183"
     inkscape:connector-curvature="0" /><path
     style="opacity:1;fill:#f50000;fill-opacity:1"
     d="m 371.36148,125.57505 c 0,-2.86216 5.95566,-9.86028 20.92844,-24.59171 7.5195,-7.398282 13.46651,-12.635735 14.69878,-12.945014 2.70422,-0.678715 3.91951,0.509973 2.7519,2.691664 -1.33534,2.495108 -9.04147,11.25413 -19.04554,21.64774 -13.82583,14.36419 -19.33358,18.12384 -19.33358,13.19732 z"
     id="path4187"
     inkscape:connector-curvature="0" /><path
     style="opacity:1;fill:#f50000;fill-opacity:1"
     d="m 421.2185,71.507648 c 0,-3.507077 36.86038,-44.389724 40.02241,-44.389724 2.06387,0 2.5719,2.049123 1.20584,4.863663 -2.69762,5.558007 -28.39623,33.849595 -35.39885,38.970571 -3.61854,2.646222 -5.8294,2.856897 -5.8294,0.55549 z"
     id="path4189"
     inkscape:connector-curvature="0" /></svg>