<?xml version="1.0" encoding="UTF-8" standalone="no"?>
<!-- Generator: Adobe Illustrator 19.0.0, SVG Export Plug-In . SVG Version: 6.00 Build 0)  -->

<svg
   xmlns:dc="http://purl.org/dc/elements/1.1/"
   xmlns:cc="http://creativecommons.org/ns#"
   xmlns:rdf="http://www.w3.org/1999/02/22-rdf-syntax-ns#"
   xmlns:svg="http://www.w3.org/2000/svg"
   xmlns="http://www.w3.org/2000/svg"
   xmlns:sodipodi="http://sodipodi.sourceforge.net/DTD/sodipodi-0.dtd"
   xmlns:inkscape="http://www.inkscape.org/namespaces/inkscape"
   version="1.1"
   id="Layer_1"
   x="0px"
   y="0px"
   viewBox="0 0 512 512"
   style="enable-background:new 0 0 512 512;"
   xml:space="preserve"
   inkscape:version="0.91 r13725"
   sodipodi:docname="CookingIcon.svg"><metadata
     id="metadata49"><rdf:RDF><cc:Work
         rdf:about=""><dc:format>image/svg+xml</dc:format><dc:type
           rdf:resource="http://purl.org/dc/dcmitype/StillImage" /><dc:title /></cc:Work></rdf:RDF></metadata><defs
     id="defs47" /><sodipodi:namedview
     pagecolor="#ffffff"
     bordercolor="#666666"
     borderopacity="1"
     objecttolerance="10"
     gridtolerance="10"
     guidetolerance="10"
     inkscape:pageopacity="0"
     inkscape:pageshadow="2"
     inkscape:window-width="1069"
     inkscape:window-height="691"
     id="namedview45"
     showgrid="false"
     inkscape:zoom="0.921875"
     inkscape:cx="284.18549"
     inkscape:cy="240.27312"
     inkscape:window-x="0"
     inkscape:window-y="0"
     inkscape:window-maximized="0"
     inkscape:current-layer="Layer_1" /><path
     style="fill:#314e55;fill-opacity:1;stroke-width:4.80000019;stroke-miterlimit:4;stroke-dasharray:none"
     d="m 358.15724,305.8975 -9.68941,0 c -7.8304,0 -14.18034,-6.34901 -14.18034,-14.18035 0,-7.83134 6.34994,-14.18035 14.18034,-14.18035 l 9.68941,0 c 9.02581,0 16.3702,-7.34253 16.3702,-16.36927 l 0,-91.98816 c 0,-7.11166 5.2667,-13.1214 12.31575,-14.05697 30.20942,-4.00774 52.04633,-30.05426 50.79859,-60.587067 C 436.40806,64.342741 411.7934,39.69443 381.6036,38.416777 360.54618,37.52887 341.18605,47.55942 329.75448,65.249341 c -2.61231,4.043251 -7.09765,6.484528 -11.91011,6.484528 -4.81339,0 -9.29966,-2.442212 -11.91011,-6.484528 -10.87827,-16.835661 -29.30281,-26.886773 -49.28914,-26.886773 -19.98634,0 -38.41181,10.051112 -49.28915,26.886773 -2.61232,4.043251 -7.09765,6.484528 -11.91011,6.484528 -4.81246,0 -9.29967,-2.442212 -11.91011,-6.486398 C 172.10604,47.555681 152.7319,37.510178 131.68663,38.415843 101.49871,39.69256 76.884044,64.342741 75.65032,94.533464 74.402576,125.0672 96.24043,151.11279 126.44891,155.1224 c 7.04905,0.93557 12.31574,6.94531 12.31574,14.05697 l 0,91.98628 c 0,9.02582 7.34253,16.36928 16.36927,16.36928 l 123.52196,0 c 7.8304,0 14.18034,6.34901 14.18034,14.18035 0,7.83134 -6.34994,14.18035 -14.18034,14.18035 l -123.52196,0 c -24.66419,0 -44.72996,-20.06577 -44.72996,-44.72998 l 0,-80.47993 C 93.945887,176.00879 79.158021,166.53715 67.903093,153.29144 48.304622,138.77574 43.162431,109.90453 44.05875,87.953585 45.887839,43.139494 85.677132,11.975828 130.48655,10.079444 154.82082,9.0532103 178.37934,18.408016 195.41315,35.189468 211.53007,19.17629 233.37166,10 256.64512,10 c 23.27345,0 45.11504,9.178159 61.2329,25.190402 17.03287,-16.784255 40.59886,-26.1306493 64.92566,-25.110958 44.80942,1.896384 84.59778,29.805813 86.42874,74.618035 3.06862,24.119491 -9.66773,51.906911 -23.84341,68.592101 -11.25493,13.24757 -26.04186,22.71921 -42.50086,27.39428 l 0,80.47992 c 9.3e-4,24.66795 -20.06485,44.73372 -44.73091,44.73372 z"
     id="path3"
     inkscape:connector-curvature="0"
     sodipodi:nodetypes="ssssssscsccscsssccsssssssssscccccscccsccs" /><g
     id="g7"><path
       style="fill:#314e55;fill-opacity:1"
       d="M342.873,512c-33.581,0-62.031-16.966-75.528-44.111L95.783,478.067   c-1.317,0.102-2.554,0.15-3.773,0.15c-27.225,0-49.747-22.07-50.3-49.197c-0.002-0.103-0.003-0.206-0.003-0.31v-0.475   c0-0.103,0-0.206,0.003-0.31c0.552-27.127,23.074-49.197,50.206-49.197c0.002,0,0.005,0,0.006,0c1.305,0,2.541,0.049,3.857,0.15   l171.567,10.178c13.497-27.145,41.947-44.111,75.528-44.111c43.715,0,83.495,13.683,106.415,36.6   c13.469,13.469,20.733,29.529,21.008,46.443c0.002,0.082,0.002,0.164,0.002,0.246v0.475c0,0.082,0,0.164-0.002,0.246   c-0.275,16.913-7.539,32.973-21.008,46.441C426.37,498.317,386.588,512,342.873,512z M277.295,436.928   c6.577,0,12.454,4.259,14.458,10.595c6.662,21.053,26.251,34.133,51.121,34.133c35.309,0,67.863-10.619,84.957-27.714   c7.755-7.755,11.945-16.526,12.121-25.368v-0.202c-0.176-8.842-4.367-17.612-12.121-25.368   c-17.095-17.095-49.647-27.714-84.957-27.714c-24.871,0-44.46,13.079-51.121,34.133c-2.097,6.624-8.416,10.97-15.364,10.568   l-182.544-10.83c-0.099-0.006-0.199-0.012-0.299-0.021c-0.575-0.046-1.077-0.067-1.537-0.067c-10.786,0-19.67,8.662-19.958,19.339   v0.121c0.288,10.675,9.172,19.339,19.864,19.339c0.531-0.011,1.051-0.023,1.62-0.067c0.103-0.008,0.206-0.015,0.31-0.021   l182.544-10.829C276.691,436.936,276.993,436.928,277.295,436.928z"
       id="path9" /><path
       style="fill:#314e55;fill-opacity:1"
       d="m 209.725,164.966 c -8.38,0 -15.172,6.793 -15.172,15.172 l 0,56.138 c 0,8.38 6.793,15.172 15.172,15.172 8.379,0 15.172,-6.793 15.172,-15.172 l 0,-56.138 c 0,-8.38 -6.793,-15.172 -15.172,-15.172 z"
       id="path11"
       inkscape:connector-curvature="0" /><path
       style="fill:#314e55;fill-opacity:1"
       d="M302.276,251.448c-8.378,0-15.172-6.793-15.172-15.172v-56.138c0-8.38,6.794-15.172,15.172-15.172   c8.378,0,15.172,6.793,15.172,15.172v56.138C317.449,244.656,310.656,251.448,302.276,251.448z"
       id="path13" /><path
       style="opacity:1;fill:#ffffff;fill-opacity:1"
       d="m 142.10661,285.48037 c -4.59173,-1.47065 -8.64508,-5.07691 -10.8031,-9.61153 l -1.18634,-2.49285 -0.19176,-52.92514 c -0.18224,-50.29738 -0.22699,-53.019 -0.90142,-54.81546 -2.24573,-5.98198 -6.3517,-9.18409 -13.30983,-10.3799 -10.03046,-1.72382 -17.882356,-4.78118 -25.866126,-10.07174 -6.744351,-4.46924 -12.46326,-10.22241 -17.248563,-17.35191 -2.084391,-3.10547 -5.954127,-10.5545 -5.954127,-11.46136 0,-0.3139 50.379646,-0.42762 189.451086,-0.42762 l 189.45108,0 -0.78694,2.01346 c -3.78092,9.67392 -13.12886,20.9369 -22.60202,27.23233 -7.57587,5.03457 -14.94869,7.99754 -24.14557,9.70353 -2.84199,0.52718 -6.05547,1.36515 -7.14107,1.86216 -3.74182,1.71306 -6.78278,5.29434 -7.98415,9.40279 -0.54287,1.85649 -0.60974,7.63409 -0.61479,53.1169 -0.006,55.74776 0.0734,53.6638 -2.20971,57.88369 -1.67035,3.08736 -4.60801,5.8146 -8.01614,7.44193 l -2.99977,1.43236 -112.37005,0.0766 c -108.12652,0.0737 -112.45316,0.05 -114.57069,-0.62822 z m 73.9142,-35.63249 c 3.0862,-1.44421 5.8319,-4.13146 7.31726,-7.16149 l 1.12392,-2.29273 0,-32.02355 0,-32.02355 -1.21743,-2.56983 c -2.18684,-4.61612 -5.98354,-7.47252 -11.22902,-8.44802 -6.25673,-1.16356 -12.96534,2.43613 -15.88777,8.525 l -1.19648,2.49285 0,31.83179 0,31.83179 1.22175,2.57905 c 1.92813,4.07019 5.76686,7.27451 9.99452,8.34276 2.71471,0.68596 7.12577,0.20163 9.87325,-1.08407 z m 91.47229,0.54013 c 3.71056,-1.30357 7.238,-4.84798 8.88455,-8.92729 l 0.8951,-2.21761 0.11176,-29.33368 c 0.0701,-18.39438 -0.0324,-30.2597 -0.27482,-31.81683 -0.8231,-5.28693 -3.88272,-9.34746 -8.76481,-11.63206 -2.20374,-1.03126 -2.98606,-1.19435 -5.82161,-1.21364 -2.34396,-0.016 -3.84728,0.18974 -5.28499,0.72311 -3.87786,1.43863 -7.48459,4.96779 -9.12077,8.92463 -0.73107,1.76796 -0.76291,2.94859 -0.86607,32.11423 -0.0737,20.84498 0.0237,30.90896 0.31279,32.30137 1.49912,7.22118 8.04279,12.28193 15.32669,11.85333 1.582,-0.0931 3.65298,-0.44209 4.60218,-0.77556 z"
       id="path4194"
       inkscape:connector-curvature="0" /></g><path
     style="fill:#73c9c9;fill-opacity:1"
     d="M56.879,428.711c0.387,18.997,15.949,34.334,35.036,34.334c0.919,0.003,1.845-0.036,2.828-0.115  l182.544-10.829c9.008,28.468,35.282,44.727,65.586,44.727c39.779,0,75.55-12.021,95.686-32.156  c10.65-10.65,16.356-23.071,16.564-35.959v-0.476c-0.208-12.887-5.916-25.311-16.564-35.959  c-20.137-20.137-55.907-32.156-95.686-32.156c-30.304,0-56.578,16.259-65.586,44.727L94.743,394.019  c-0.983-0.079-1.909-0.118-2.828-0.115c-19.087,0-34.649,15.336-35.036,34.334C56.879,428.238,56.879,428.711,56.879,428.711z"
     id="path5" /><g
     id="g15" /><g
     id="g17" /><g
     id="g19" /><g
     id="g21" /><g
     id="g23" /><g
     id="g25" /><g
     id="g27" /><g
     id="g29" /><g
     id="g31" /><g
     id="g33" /><g
     id="g35" /><g
     id="g37" /><g
     id="g39" /><g
     id="g41" /><g
     id="g43" /><path
     style="opacity:1;fill:#ecf0f1;fill-opacity:1"
     d="m 139.00963,284.25569 c -3.18614,-1.60816 -5.66351,-3.92071 -7.26285,-6.77966 -2.42028,-4.32643 -2.42736,-4.49274 -2.4492,-57.49153 -0.0209,-50.75418 -0.11727,-53.30896 -2.13555,-56.61903 -2.89731,-4.75172 -5.64314,-6.26464 -16.07312,-8.85612 C 89.093861,149.04438 72.283683,134.14283 65.301978,113.92108 62.043102,104.4821 61.260933,88.842048 63.560075,79.090434 68.641462,57.538166 86.421121,38.621533 107.38182,32.466372 c 25.83049,-7.585187 54.97838,3.046201 70.20915,25.608057 3.3157,4.911654 7.68332,7.336219 13.19828,7.326656 5.44351,-0.0094 8.80757,-2.38909 15.35626,-10.862622 12.20318,-15.790027 29.63781,-24.24621 50.05354,-24.277081 21.05367,-0.03184 37.49179,8.441641 51.57444,26.585447 5.44659,7.017285 9.4589,9.089668 15.97145,8.24937 3.88457,-0.501217 5.33964,-1.474757 9.47106,-6.33681 13.0824,-15.395994 20.87396,-21.221905 34.71186,-25.954746 8.42227,-2.880587 24.33495,-3.422892 33.62712,-1.146013 20.94338,5.131796 38.92079,21.862911 45.58797,42.427568 3.56758,11.004025 3.66546,26.423232 0.23759,37.423732 -6.70098,21.50434 -23.45551,37.29858 -45.48501,42.87799 -11.94091,3.02428 -14.13125,4.09155 -16.60215,8.08954 -2.1001,3.39803 -2.18004,5.36913 -2.2056,54.38084 -0.0162,31.03516 -0.4635,52.75744 -1.14777,55.73637 -1.18377,5.15357 -5.01642,10.02509 -9.89049,12.57143 -2.46652,1.28856 -20.71995,1.53027 -115.56676,1.53027 l -112.63758,0 -4.83555,-2.44068 z m 76.36416,-34.8516 c 1.96881,-0.82262 4.63787,-2.84099 5.93126,-4.48527 2.29625,-2.9192 2.35153,-3.77169 2.34757,-36.19925 -0.004,-38.15682 -0.0682,-38.4516 -9.03561,-41.87626 -6.19486,-2.36584 -11.08779,-0.99825 -15.85527,4.43161 l -3.30846,3.76812 0,32.64778 c 0,30.78831 0.12396,32.84834 2.17625,36.16902 2.33331,3.77538 7.66479,6.97506 11.6891,7.01522 1.36153,0.0136 4.08636,-0.64835 6.05516,-1.47097 z m 93.71653,-0.66797 c 1.94444,-1.18554 4.50531,-3.74642 5.69086,-5.69085 2.01758,-3.30911 2.15567,-5.51371 2.15789,-34.4506 0.002,-27.29425 -0.21978,-31.35091 -1.89425,-34.63476 -2.80704,-5.50494 -6.85498,-8.02917 -12.73336,-7.9403 -5.77505,0.0873 -9.56131,2.23483 -12.53302,7.10857 -1.96694,3.22587 -2.11393,5.65776 -2.11771,35.03489 -0.004,31.01739 0.0389,31.63273 2.45824,35.25424 2.71649,4.06632 8.52664,7.48038 12.72414,7.47671 1.49153,-0.001 4.30277,-0.97236 6.24721,-2.1579 z"
     id="path4202"
     inkscape:connector-curvature="0" /></svg>