<svg xmlns:svg="http://www.w3.org/2000/svg" xmlns="http://www.w3.org/2000/svg" version="1.1" x="0px" y="0px" viewBox="0 0 393.689 393.689" xml:space="preserve"><style>.s0{fill:#f58cac;}.s1{fill:#73c9c9;}</style><g transform="matrix(0.46348038,0,0,0.46348038,552.65933,178.1903)"/><g transform="matrix(0.46348038,0,0,0.46348038,552.65933,178.1903)"/><g transform="matrix(0.46348038,0,0,0.46348038,552.65933,178.1903)"/><g transform="matrix(0.46348038,0,0,0.46348038,552.65933,178.1903)"/><g transform="matrix(0.46348038,0,0,0.46348038,552.65933,178.1903)"/><g transform="matrix(0.46348038,0,0,0.46348038,552.65933,178.1903)"/><g transform="matrix(0.46348038,0,0,0.46348038,552.65933,178.1903)"/><g transform="matrix(0.46348038,0,0,0.46348038,552.65933,178.1903)"/><g transform="matrix(0.46348038,0,0,0.46348038,552.65933,178.1903)"/><g transform="matrix(0.46348038,0,0,0.46348038,552.65933,178.1903)"/><g transform="matrix(0.46348038,0,0,0.46348038,552.65933,178.1903)"/><g transform="matrix(0.46348038,0,0,0.46348038,552.65933,178.1903)"/><g transform="matrix(0.46348038,0,0,0.46348038,552.65933,178.1903)"/><g transform="matrix(0.46348038,0,0,0.46348038,552.65933,178.1903)"/><g transform="matrix(0.46348038,0,0,0.46348038,552.65933,178.1903)"/><g transform="translate(-99.482231,-102.30046)"><g transform="matrix(1.0132567,0,0,1.0132567,0.616888,-4.710037)"><path d="M293.44805 435.33438C464.94944 342.018 457.21857 249.30498 450.64694 222.83843c-9.3807-37.776-41.82145-65.19209-77.13458-65.19209-26.26476 0-50.22887 15.24215-67.46703 42.92134-2.70818 4.3501-7.47172 6.99299-12.5953 6.99299-5.12358 0-9.88317-2.64289-12.59134-6.99299-17.24015-27.67919-41.20228-42.92134-67.471-42.92134-35.31906 0-67.76575 27.41609-77.14645 65.19605-6.57558 26.46259-14.30249 119.17165 157.20681 212.49199zM183.01615 295.5062c-1.816 0.73392-3.69729 1.08208-5.54494 1.08208-5.87332 0-11.43211-3.50737-13.7664-9.28772-10.34409-25.62778-9.55874-51.5879 2.20967-73.09704 10.28869-18.80096 27.65347-31.73651 47.64334-35.49512 8.04738-1.51136 15.80594 3.7863 17.32521 11.83764 1.51531 8.05134-3.78631 15.8099-11.8416 17.32521-11.05031 2.07515-21.18075 9.76843-27.09166 20.5774-7.42226 13.56067-7.68141 30.51991-0.72601 47.74819 3.06624 7.59437-0.60929 16.24115-8.20761 19.30936z" fill="#f58cac"/><path d="m191.22179 276.19486c-6.95541-17.22828-6.69626-34.18554 0.726-47.74819 5.91091-10.81095 16.04135-18.50423 27.09166-20.5774 8.0553-1.51531 13.35691-9.27387 11.8416-17.32521-1.51927-8.05133-9.27585-13.34899-17.32521-11.83764-19.98987 3.75861-37.35464 16.69416-47.64334 35.49512-11.76841 21.50914-12.55376 47.46926-2.20967 73.09704 2.3343 5.78035 7.89308 9.28772 13.7664 9.28772 1.84766 0 3.72894-0.34816 5.54494-1.08208 7.6003-3.06623 11.27583-11.71301 8.20762-19.30936z" fill="#3cbcc6"/><path d="m286.50847 465.28456c2.17208 1.15132 4.55583 1.72303 6.93958 1.72303 2.38771 0 4.77145-0.57171 6.94354-1.72303 72.02682-38.12614 123.8165-81.27696 153.92494-128.24771 32.92344-51.36832 31.8374-94.34307 25.12927-121.35165-12.62299-50.82233-57.17438-87.71407-105.93541-87.71407-30.57728 0-58.41473 13.88312-80.06432 39.5287-21.64761-25.64756-49.48704-39.5287-80.06431-39.5287-48.76697 0-93.3243 36.88976-105.94729 87.71803-6.70813 27.0066-7.790214 69.97937 25.13718 121.34374 30.1124 46.97075 81.90208 90.12156 153.93682 128.25166zM136.23729 222.84239c9.3807-37.77996 41.82936-65.19605 77.14644-65.19605 26.26873 0 50.23283 15.24215 67.471 42.92134 2.70818 4.3501 7.46776 6.99299 12.59134 6.99299 5.12358 0 9.88712-2.64289 12.5953-6.99299 17.24015-27.67919 41.20227-42.92134 67.46704-42.92134 35.3151 0 67.75388 27.41609 77.13457 65.19209 6.57164 26.46655 14.3025 119.17957-157.19889 212.49595C121.93875 342.01404 129.66566 249.30498 136.23729 222.84239Z" fill="#73c9c9"/><path transform="translate(99.482231,102.30046)" d="m72.870949 193.86034c-5.618495-1.68132-9.777066-8.24055-12.981826-20.47597-8.698374-33.20943 1.086686-65.70039 25.406115-84.360148 11.379257-8.731051 27.951902-14.75675 35.210372-12.802247 6.98662 1.881301 11.31976 7.493333 11.31976 14.660693 0 7.626244-4.47172 13.071152-12.4308 15.136122-15.14487 3.92932-26.747272 15.83035-30.748046 31.53946-2.453474 9.63361-1.311848 23.04942 2.933299 34.47065 2.034086 5.47255 2.055066 9.618 0.07055 13.93967-1.822311 3.96843-3.682404 5.74679-7.818521 7.47497-3.347464 1.39866-7.191352 1.54483-10.9609 0.4168z" fill="#f58cac"/></g></g><path d="M185.01365 326.83775C147.93346 305.44704 120.21495 284.96331 95.891896 260.97757 64.079801 229.60663 45.939346 199.35573 38.52759 165.31722 36.199747 154.6266 36.40024 127.43621 38.873084 118.46203 47.349612 87.699932 68.573509 64.603883 96.621036 55.620156c9.582064-3.06917 25.025004-3.813846 34.656004-1.671152 18.95269 4.216575 36.33836 16.394611 49.4418 34.632227 7.87951 10.96684 8.23787 11.369475 11.49507 12.915119 3.95777 1.87808 11.15569 1.38958 14.31843-0.97174 1.23471-0.921843 4.76437-5.206071 7.84369-9.52051 12.89955-18.073528 26.81835-29.10605 44.4116-35.202154 7.21493-2.49999 8.17662-2.623572 20.49843-2.634122 14.69788-0.01258 19.2681 0.916161 30.63389 6.225325 21.80623 10.186084 38.58069 29.50186 46.35397 53.376601 3.07232 9.43629 4.20864 17.58533 4.18703 30.02713-0.10089 58.09913-44.82961 118.70251-125.55989 170.12233-14.80032 9.42682-34.80968 20.88356-36.47344 20.88356-0.73717 0-6.77346-3.13426-13.41397-6.96502z" fill="#f58cac"/><g transform="matrix(0.67257972,0,0,0.67257972,26.618326,17.645573)"><path d="M509.047 456.888 366.42 314.262c-1.184-1.184-2.488-2.161-3.806-3.106 33.797-16.332 75.662-10.586 103.668 17.42 3.938 3.938 10.317 3.938 14.255 0 3.938-3.938 3.938-10.317 0-14.255-40.831-40.831-105.812-43.053-149.333-6.766l-60.954-60.953 220.004-220c3.938-3.938 3.938-10.317 0-14.255-3.938-3.938-10.317-3.938-14.255 0l-220.004 220-220.004-220c-3.938-3.938-10.317-3.938-14.255 0-3.938 3.938-3.938 10.317 0 14.255l220.004 220-60.955 60.954c-43.52-36.268-108.492-34.028-149.322 6.764-3.938 3.938-3.938 10.317 0 14.255 3.938 3.938 10.317 3.938 14.255 0 27.985-27.978 69.84-33.739 103.636-17.427-1.313 0.948-2.605 1.935-3.773 3.103L2.953 456.878c-3.938 3.938-3.938 10.317 0 14.255l28.51 28.519c1.89 1.89 4.45 2.953 7.127 2.953 2.677 0 5.237-1.063 7.127-2.953L188.353 357.026c1.177-1.179 2.148-2.478 3.088-3.791 16.32 33.797 10.574 75.658-17.421 103.653-3.938 3.938-3.938 10.317 0 14.255 1.969 1.969 4.548 2.953 7.127 2.953 2.579 0 5.159-0.984 7.127-2.953 40.822-40.822 43.052-105.811 6.766-149.333l60.954-60.953 60.954 60.953c-36.287 43.521-34.065 108.502 6.766 149.333 1.969 1.969 4.548 2.953 7.127 2.953 2.579 0 5.159-0.984 7.127-2.953 3.938-3.938 3.938-10.317 0-14.255-27.991-27.998-33.738-69.846-17.428-103.64 0.951 1.319 1.942 2.615 3.114 3.788L466.27 499.652c1.969 1.969 4.548 2.953 7.127 2.953 2.579 0 5.159-0.984 7.127-2.953l28.519-28.51c1.89-1.89 2.953-4.45 2.953-7.127 0.003-2.678-1.059-5.237-2.949-7.127z" fill="#314e55"/><path d="M174.089 342.771 38.59 478.27 24.335 464.005 159.834 328.506c1.89-1.89 4.391-2.924 7.039-2.924l0.01 0c2.678 0 5.208 1.063 7.137 2.993 3.928 3.928 3.958 10.298 0.069 14.196z" fill="#f58cac"/><path d="M473.4 478.27 337.911 342.771c0 0 0 0 0-0.01-1.89-1.88-2.934-4.381-2.934-7.039 0.01-2.678 1.073-5.217 2.993-7.147 1.979-1.979 4.568-2.963 7.157-2.963 2.55 0 5.099 0.965 7.039 2.904L487.665 464.015 473.4 478.27Z" fill="#73c9c9"/></g></svg>