<?xml version="1.0" encoding="UTF-8" standalone="no"?>
<!-- Generator: Adobe Illustrator 17.1.0, SVG Export Plug-In . SVG Version: 6.00 Build 0)  -->

<svg
   xmlns:dc="http://purl.org/dc/elements/1.1/"
   xmlns:cc="http://creativecommons.org/ns#"
   xmlns:rdf="http://www.w3.org/1999/02/22-rdf-syntax-ns#"
   xmlns:svg="http://www.w3.org/2000/svg"
   xmlns="http://www.w3.org/2000/svg"
   xmlns:sodipodi="http://sodipodi.sourceforge.net/DTD/sodipodi-0.dtd"
   xmlns:inkscape="http://www.inkscape.org/namespaces/inkscape"
   version="1.1"
   id="Capa_1"
   x="0px"
   y="0px"
   viewBox="0 0 199.603 199.603"
   style="enable-background:new 0 0 199.603 199.603;"
   xml:space="preserve"
   inkscape:version="0.91 r13725"
   sodipodi:docname="DinnerIcon.svg"><metadata
     id="metadata39"><rdf:RDF><cc:Work
         rdf:about=""><dc:format>image/svg+xml</dc:format><dc:type
           rdf:resource="http://purl.org/dc/dcmitype/StillImage" /><dc:title></dc:title></cc:Work></rdf:RDF></metadata><defs
     id="defs37" /><sodipodi:namedview
     pagecolor="#ffffff"
     bordercolor="#666666"
     borderopacity="1"
     objecttolerance="10"
     gridtolerance="10"
     guidetolerance="10"
     inkscape:pageopacity="0"
     inkscape:pageshadow="2"
     inkscape:window-width="1070"
     inkscape:window-height="605"
     id="namedview35"
     showgrid="false"
     inkscape:zoom="1.6720911"
     inkscape:cx="99.801498"
     inkscape:cy="99.801498"
     inkscape:window-x="0"
     inkscape:window-y="0"
     inkscape:window-maximized="0"
     inkscape:current-layer="Capa_1" /><g
     id="g5" /><g
     id="g7" /><g
     id="g9" /><g
     id="g11" /><g
     id="g13" /><g
     id="g15" /><g
     id="g17" /><g
     id="g19" /><g
     id="g21" /><g
     id="g23" /><g
     id="g25" /><g
     id="g27" /><g
     id="g29" /><g
     id="g31" /><g
     id="g33" /><path
     style="opacity:1;fill:#314e55;fill-opacity:1"
     d="m 181.94581,170.57338 -2.47227,-2.47226 0,-68.458812 c 0,-67.977263 0.0123,-68.474483 1.75294,-70.687306 1.35513,-1.722774 2.49698,-2.228499 5.03161,-2.228499 2.71441,0 3.63168,0.473063 5.32984,2.74877 5.029,6.73938 7.68534,21.842515 7.6237,43.34599 -0.0383,13.342914 -0.37997,17.720175 -2.01381,25.79615 -1.79526,8.873837 -1.99373,12.368847 -2.26423,39.871967 l -0.29648,30.14555 -2.04386,2.20536 c -2.91529,3.14566 -7.34595,3.03459 -10.64744,-0.26691 z m 7.47738,-30.37017 0.22324,-27.32225 -2.33767,0.26876 -2.33768,0.26876 -0.22382,26.11746 c -0.23049,26.89456 -0.0156,28.84917 3.10626,28.24856 1.19272,-0.22947 1.37193,-3.37842 1.56967,-27.58129 z m 2.20987,-39.6828 c 2.15887,-11.921374 3.21823,-26.221243 2.61591,-35.311126 -1.15926,-17.495004 -5.0071,-33.408129 -8.07818,-33.408129 -1.57557,0 -1.6226,1.103003 -1.6226,38.059894 l 0,38.059891 2.87235,0 2.87235,0 1.34017,-7.40053 z"
     id="path4167"
     inkscape:connector-curvature="0" /><path
     style="opacity:1;fill:#314e55;fill-opacity:1"
     d="M 11.986584,171.37629 10.033475,169.62972 10.267988,127.2281 10.502502,84.826467 8.629798,84.050768 C 6.266239,83.071749 2.778199,79.242649 1.315338,76.021099 0.52501899,74.280639 0.18522999,72.128162 0.16949999,68.76252 0.14082999,62.628295 1.35328,33.302536 1.708319,31.542796 c 0.347343,-1.7216 2.98095,-2.469841 4.244793,-1.205999 0.799584,0.799585 0.810799,2.944762 0.0989,18.916369 L 5.24905,67.267675 7.156079,67.267531 c 1.795935,-1.36e-4 1.925189,-0.148214 2.21875,-2.541872 0.171446,-1.39795 0.427076,-9.47525 0.568067,-17.949556 0.264733,-15.911879 0.470983,-17.186089 2.781823,-17.186089 2.495546,0 2.601338,0.945681 2.210792,19.76225 l -0.371836,17.915122 2.078097,0 2.078097,0 -0.401802,-17.914808 c -0.422241,-18.826057 -0.318871,-19.762564 2.181348,-19.762564 2.351222,0 2.540547,1.229247 3.018206,19.596557 0.254338,9.779984 0.486661,17.84907 0.516273,17.931302 0.02961,0.08223 0.983096,0.149513 2.118852,0.149513 l 2.06501,0 -0.264787,-2.840754 C 27.807334,62.864217 27.394916,54.776589 27.036481,46.454125 26.33555,30.17929 26.41315,29.590014 29.257238,29.590014 c 0.92829,0 1.626377,0.474984 1.977671,1.345621 0.549497,1.361861 1.854742,28.172351 1.82701,37.527859 -0.01201,4.05081 -0.298536,5.690893 -1.410513,8.073722 -1.460516,3.129706 -5.281672,7.050417 -7.583376,7.780949 l -1.348033,0.42785 0.235327,42.441265 0.235328,42.44127 -1.953109,1.74715 c -2.75129,2.46118 -6.499134,2.46142 -9.250959,5.9e-4 z m 6.119877,-17.83968 c -0.0017,-32.28209 -0.777326,-67.131511 -1.494162,-67.131511 -0.674417,0 -1.495369,38.632681 -1.495369,70.369611 l 0,10.96567 1.495134,0 1.495133,0 -7.17e-4,-14.20377 -1.9e-5,0 z m 2.852537,-73.439617 c 1.218432,-0.509093 2.850103,-1.518308 3.625937,-2.2427 1.277761,-1.193041 3.091119,-4.053295 3.091119,-4.875699 0,-0.180799 -4.970349,-0.328726 -11.04522,-0.328726 -12.332737,0 -11.978877,-0.164552 -8.821045,4.101957 2.80894,3.795127 8.566638,5.259889 13.149209,3.345168 z"
     id="path4169"
     inkscape:connector-curvature="0" /><path
     style="opacity:1;fill:#314e55;fill-opacity:1"
     d="m 95.315427,162.9209 c -39.190204,-4.85749 -65.60874,-41.52232 -57.702001,-80.081414 3.89217,-18.981097 17.850512,-36.87735 35.813912,-45.91769 4.993945,-2.513275 14.007421,-5.295064 19.977038,-6.165424 7.307904,-1.065481 18.663594,-0.435906 25.897144,1.435775 21.02403,5.439966 38.54226,21.321812 45.97088,41.676719 2.53046,6.933625 3.58156,12.341077 3.94805,20.310929 1.48331,32.257365 -21.52403,61.502725 -53.33131,67.791095 -6.23398,1.23248 -15.02116,1.63823 -20.573713,0.95001 z m 21.769823,-6.48154 c 20.46279,-5.03514 37.05297,-20.11934 43.73691,-39.76671 7.31991,-21.516807 2.23497,-45.298943 -13.23618,-61.905277 C 124.0671,29.522835 83.729945,28.917899 59.327628,53.443764 c -20.7129,20.81777 -23.795904,52.946026 -7.439541,77.528116 3.357939,5.04668 11.149357,12.99128 16.038886,16.35424 6.733187,4.631 17.698409,8.97283 25.834185,10.2294 5.437455,0.83982 17.774242,0.24944 23.324092,-1.11616 z"
     id="path4171"
     inkscape:connector-curvature="0" /><path
     style="opacity:1;fill:#314e55;fill-opacity:1"
     d="m 93.507096,144.36411 c -10.575067,-2.0748 -21.371008,-8.53379 -28.177165,-16.85784 -3.837032,-4.69275 -8.545219,-14.32097 -9.86277,-20.1693 -1.443232,-6.4062 -1.316214,-16.303487 0.28782,-22.427004 4.465635,-17.047893 17.423849,-30.220768 34.537956,-35.1101 6.67942,-1.908245 18.228333,-1.899428 24.947473,0.01905 14.11892,4.03129 25.36918,13.519114 31.36725,26.453359 1.28787,2.777155 2.82258,6.933242 3.41049,9.235748 1.40757,5.512775 1.43135,16.383731 0.0483,22.054011 -4.4049,18.05856 -17.87016,31.64721 -35.91757,36.2467 -5.06515,1.29088 -15.466491,1.57073 -20.641726,0.55538 l -1.8e-5,0 z m 20.944254,-5.98445 c 19.41952,-5.38142 32.63078,-23.92537 31.47345,-44.177616 -0.63805,-11.165234 -4.68905,-19.965875 -12.99163,-28.223762 -4.35808,-4.334628 -6.11854,-5.615793 -10.82522,-7.87799 -7.58382,-3.645053 -13.24108,-4.819517 -21.38333,-4.439241 -11.3633,0.530713 -20.046309,4.347116 -28.235518,12.410228 -14.636236,14.410869 -17.198203,35.704951 -6.450484,53.613941 2.808097,4.67914 9.28792,11.04993 14.218217,13.97897 4.772857,2.83551 11.065421,5.16984 16.049792,5.95395 4.817683,0.75789 12.941563,0.2034 18.144723,-1.23848 z"
     id="path4173"
     inkscape:connector-curvature="0" /><path
     style="opacity:1;fill:#f58cac;fill-opacity:1"
     d="m 92.310289,139.04291 c -2.442625,-0.66255 -6.743045,-2.31882 -9.556489,-3.68061 -4.218862,-2.04205 -6.064154,-3.43085 -10.529195,-7.9245 -5.821584,-5.85887 -8.595454,-10.33659 -11.155427,-18.00764 -1.209791,-3.62518 -1.395866,-5.34884 -1.388081,-12.858151 0.0082,-7.947998 0.1488,-9.071102 1.684081,-13.456204 5.006956,-14.300971 17.557951,-25.80496 31.33978,-28.725411 5.29403,-1.121836 15.587712,-1.100491 20.436172,0.04238 11.9996,2.828517 23.03422,11.75889 28.79079,23.300553 2.9074,5.8292 4.13481,11.368008 4.14854,18.720628 0.0137,7.323719 -1.28595,12.924799 -4.60228,19.834799 -2.32368,4.84168 -3.50835,6.45257 -8.17278,11.11321 -4.43244,4.42882 -6.40825,5.91693 -10.53865,7.9373 -6.76237,3.30779 -10.89968,4.31005 -19.13771,4.63609 -5.631633,0.22288 -7.682192,0.0539 -11.318751,-0.93244 z"
     id="path4183"
     inkscape:connector-curvature="0" /><path
     style="opacity:1;fill:#f58cac;fill-opacity:1"
     d="M 90.77089,157.32927 C 80.643247,154.98017 69.94022,149.78095 63.168487,143.92084 47.410081,130.28386 39.946597,111.98546 41.538673,90.890501 43.382711,66.457074 61.255175,44.666135 85.117022,37.757755 c 15.914838,-4.607594 33.203418,-2.870219 47.161228,4.739355 28.84866,15.727823 40.23197,51.592297 25.80011,81.28633 -7.90332,16.26137 -22.33354,28.05014 -39.99112,32.67075 -6.07907,1.59076 -22.028093,2.10169 -27.31635,0.87508 z m 23.82587,-14.08446 c 13.69227,-3.5019 25.26402,-13.0661 31.50577,-26.03995 3.59246,-7.46715 4.42227,-11.33111 4.43104,-20.632851 0.006,-6.769464 -0.21602,-8.794905 -1.37671,-12.538047 -3.66927,-11.833175 -11.6343,-22.371326 -21.3865,-28.295475 -15.88341,-9.648665 -35.179808,-9.458037 -50.572744,0.499602 -8.106295,5.243936 -14.140863,12.149208 -18.084356,20.693677 -3.242923,7.026525 -4.11716,11.187137 -4.126855,19.640243 -0.01045,9.117651 0.900035,12.996281 4.983854,21.230901 3.56557,7.18962 7.079357,11.78604 12.10362,15.83287 4.314485,3.47514 14.19215,8.59459 18.996038,9.84537 5.122111,1.33363 17.889793,1.20537 23.526843,-0.23634 z"
     id="path4185"
     inkscape:connector-curvature="0" /><path
     style="opacity:1;fill:#73c9c9;fill-opacity:1"
     d="M 11.03138,79.739358 C 8.3553346,78.41475 5.1280906,74.411609 5.8259551,73.282441 6.0773064,72.875746 10.048235,72.649868 16.946575,72.649868 c 11.852878,0 11.814386,-0.01498 9.379221,3.649393 -2.936561,4.418854 -10.073851,6.02421 -15.294416,3.440097 z"
     id="path4187"
     inkscape:connector-curvature="0" /><path
     style="opacity:1;fill:#73c9c9;fill-opacity:1"
     d="m 15.291733,128.71739 c 0.190807,-21.46265 0.584806,-39.828356 0.875553,-40.812686 l 0.528631,-1.789689 0.452583,1.490663 c 0.248921,0.819864 0.60281,19.185572 0.786421,40.812682 l 0.333836,39.32202 -1.661972,0 -1.661973,0 0.346921,-39.02299 z"
     id="path4191"
     inkscape:connector-curvature="0" /><path
     style="opacity:1;fill:#73c9c9;fill-opacity:1"
     d="m 184.5027,70.287297 c 0.11236,-26.015606 0.36267,-37.847728 0.81016,-38.295032 3.66408,-3.662617 8.36968,14.847049 9.04378,35.574148 0.35818,11.013061 -0.26992,19.727151 -2.33853,32.444407 l -1.28897,7.92421 -3.19452,0 -3.19452,0 0.1626,-37.647733 z"
     id="path4193"
     inkscape:connector-curvature="0" /><path
     style="opacity:1;fill:#73c9c9;fill-opacity:1"
     d="m 185.4339,166.99281 c -1.02923,-1.80189 -1.47967,-51.18988 -0.48384,-53.0506 0.47229,-0.88249 1.25091,-1.22276 2.79796,-1.22276 l 2.14357,0 -0.23793,26.84097 c -0.18901,21.32265 -0.40318,27.04009 -1.04173,27.80949 -1.1171,1.34603 -2.27207,1.20899 -3.17803,-0.3771 z"
     id="path4195"
     inkscape:connector-curvature="0" /></svg>