<?xml version="1.0" encoding="UTF-8" standalone="no"?>
<!-- Generator: Adobe Illustrator 17.1.0, SVG Export Plug-In . SVG Version: 6.00 Build 0)  -->

<svg
   xmlns:dc="http://purl.org/dc/elements/1.1/"
   xmlns:cc="http://creativecommons.org/ns#"
   xmlns:rdf="http://www.w3.org/1999/02/22-rdf-syntax-ns#"
   xmlns:svg="http://www.w3.org/2000/svg"
   xmlns="http://www.w3.org/2000/svg"
   xmlns:sodipodi="http://sodipodi.sourceforge.net/DTD/sodipodi-0.dtd"
   xmlns:inkscape="http://www.inkscape.org/namespaces/inkscape"
   version="1.1"
   id="Capa_1"
   x="0px"
   y="0px"
   viewBox="0 0 479 479"
   style="enable-background:new 0 0 479 479;"
   xml:space="preserve"
   inkscape:version="0.91 r13725"
   sodipodi:docname="DIYIcon.svg"><metadata
     id="metadata51"><rdf:RDF><cc:Work
         rdf:about=""><dc:format>image/svg+xml</dc:format><dc:type
           rdf:resource="http://purl.org/dc/dcmitype/StillImage" /><dc:title></dc:title></cc:Work></rdf:RDF></metadata><defs
     id="defs49" /><sodipodi:namedview
     pagecolor="#ffffff"
     bordercolor="#666666"
     borderopacity="1"
     objecttolerance="10"
     gridtolerance="10"
     guidetolerance="10"
     inkscape:pageopacity="0"
     inkscape:pageshadow="2"
     inkscape:window-width="1197"
     inkscape:window-height="667"
     id="namedview47"
     showgrid="false"
     inkscape:zoom="0.98538622"
     inkscape:cx="239.5"
     inkscape:cy="239.5"
     inkscape:window-x="0"
     inkscape:window-y="0"
     inkscape:window-maximized="0"
     inkscape:current-layer="Capa_1" /><g
     id="g3"
     style="fill:#314e55;fill-opacity:1"><path
       d="M415.5,464H415V159h0.5c4.142,0,7.5-3.358,7.5-7.5s-3.358-7.5-7.5-7.5H407V87.5c0-39.425-32.075-71.5-71.5-71.5h-17.734   c-3.138-9.29-11.93-16-22.266-16h-112c-10.336,0-19.128,6.71-22.266,16H143.5C104.075,16,72,48.075,72,87.5V144h-8.5   c-4.142,0-7.5,3.358-7.5,7.5s3.358,7.5,7.5,7.5H64v48.5v208V464h-0.5c-4.142,0-7.5,3.358-7.5,7.5s3.358,7.5,7.5,7.5h352   c4.142,0,7.5-3.358,7.5-7.5S419.642,464,415.5,464z M400,224.909c-13.759,3.374-24,15.806-24,30.591v32   c0,9.098-7.402,16.5-16.5,16.5s-16.5-7.402-16.5-16.5V159h57V224.909z M183.5,15h112c4.687,0,8.5,3.813,8.5,8.5s-3.813,8.5-8.5,8.5   h-112c-4.687,0-8.5-3.813-8.5-8.5S178.813,15,183.5,15z M87,87.5C87,56.346,112.346,31,143.5,31h17.735   c3.138,9.29,11.93,16,22.266,16h112c10.336,0,19.128-6.71,22.266-16H335.5c31.154,0,56.5,25.346,56.5,56.5V144H87V87.5z M79,215h25   v40.5c0,17.369,14.131,31.5,31.5,31.5s31.5-14.131,31.5-31.5V215h8.5c0.276,0,0.5,0.224,0.5,0.5v192c0,0.276-0.224,0.5-0.5,0.5H79   V215z M152,207.5v48c0,9.098-7.402,16.5-16.5,16.5s-16.5-7.402-16.5-16.5V159h129v48.5c0,9.098-7.402,16.5-16.5,16.5   s-16.5-7.402-16.5-16.5c0-17.369-14.131-31.5-31.5-31.5S152,190.131,152,207.5z M104,159v41H79v-41H104z M79,423h96.5   c8.547,0,15.5-6.953,15.5-15.5v-192c0-8.547-6.953-15.5-15.5-15.5h-6.679c2.737-5.334,8.282-9,14.679-9   c9.098,0,16.5,7.402,16.5,16.5c0,17.369,14.131,31.5,31.5,31.5s31.5-14.131,31.5-31.5V159h65v128.5c0,17.369,14.131,31.5,31.5,31.5   s31.5-14.131,31.5-31.5v-32c0-6.396,3.666-11.942,9-14.679V464H79V423z"
       id="path5"
       style="fill:#314e55;fill-opacity:1" /><path
       d="M383.5,328c-4.142,0-7.5,3.358-7.5,7.5v8c0,4.142,3.358,7.5,7.5,7.5s7.5-3.358,7.5-7.5v-8   C391,331.358,387.642,328,383.5,328z"
       id="path7"
       style="fill:#314e55;fill-opacity:1" /><path
       d="M383.5,360c-4.142,0-7.5,3.358-7.5,7.5v64c0,4.142,3.358,7.5,7.5,7.5s7.5-3.358,7.5-7.5v-64   C391,363.358,387.642,360,383.5,360z"
       id="path9"
       style="fill:#314e55;fill-opacity:1" /><path
       d="M135.5,240c-4.142,0-7.5,3.358-7.5,7.5v8c0,4.142,3.358,7.5,7.5,7.5s7.5-3.358,7.5-7.5v-8   C143,243.358,139.642,240,135.5,240z"
       id="path11"
       style="fill:#314e55;fill-opacity:1" /><path
       d="M359.5,248c-4.142,0-7.5,3.358-7.5,7.5v32c0,4.142,3.358,7.5,7.5,7.5s7.5-3.358,7.5-7.5v-32   C367,251.358,363.642,248,359.5,248z"
       id="path13"
       style="fill:#314e55;fill-opacity:1" /><path
       d="M359.5,216c-4.142,0-7.5,3.358-7.5,7.5v8c0,4.142,3.358,7.5,7.5,7.5s7.5-3.358,7.5-7.5v-8   C367,219.358,363.642,216,359.5,216z"
       id="path15"
       style="fill:#314e55;fill-opacity:1" /></g><g
     id="g17" /><g
     id="g19" /><g
     id="g21" /><g
     id="g23" /><g
     id="g25" /><g
     id="g27" /><g
     id="g29" /><g
     id="g31" /><g
     id="g33" /><g
     id="g35" /><g
     id="g37" /><g
     id="g39" /><g
     id="g41" /><g
     id="g43" /><g
     id="g45" /><path
     style="opacity:0.79000005;fill:#f58cac;fill-opacity:1;stroke:#314e55;stroke-width:1.01483047;stroke-opacity:1"
     d="m 128.17309,271.00086 c -2.84629,-1.18507 -7.27953,-6.10136 -8.56149,-9.49436 -0.70956,-1.87799 -1.0794,-20.04626 -1.0794,-53.0249 l 0,-50.16804 64.99505,0 64.99505,0 -0.29961,27.83567 c -0.28284,26.27878 -0.41663,27.99229 -2.39196,30.63592 -3.58616,4.79941 -7.13258,6.7835 -12.99384,7.26956 -4.39244,0.36426 -6.33142,0.003 -9.42927,-1.75766 -5.7538,-3.26982 -7.46431,-6.27998 -9.01621,-15.86676 -2.35819,-14.56763 -8.92747,-23.49504 -20.46559,-27.812 -14.92249,-5.58322 -30.6944,1.04562 -38.05597,15.99473 l -3.34082,6.78417 -0.50742,30.51733 c -0.56101,33.74063 -0.59563,33.91844 -7.41266,38.07505 -3.42162,2.0863 -12.51073,2.64554 -16.43586,1.01129 z m 11.86763,-11.2452 c 2.90058,-2.90058 3.05857,-3.45684 2.63705,-9.28441 -0.35485,-4.90574 -0.93242,-6.59092 -2.76852,-8.0777 -3.06539,-2.4822 -6.00431,-2.37369 -8.87997,0.32784 -1.93967,1.82223 -2.34877,3.24794 -2.34877,8.18536 0,6.74473 1.15049,9.6115 4.37937,10.91244 3.35174,1.35044 3.65715,1.26016 6.98084,-2.06353 z"
     id="path4183"
     inkscape:connector-curvature="0" /><path
     style="opacity:0.79000005;fill:#f58cac;fill-opacity:1;stroke:#314e55;stroke-width:1.01483047;stroke-opacity:1"
     d="m 352.95857,303.36429 c -1.3951,-0.5867 -3.6077,-2.0668 -4.91687,-3.28913 -5.39888,-5.04073 -5.23195,-2.65643 -5.23195,-74.73239 l 0,-67.02921 28.92267,0 28.92266,0 0,33.40547 0,33.40547 -4.82044,1.83025 c -6.00823,2.28122 -13.79519,9.89417 -16.70266,16.3294 -1.96385,4.34669 -2.24653,7.19595 -2.76392,27.85815 -0.62973,25.14932 -0.74293,25.61474 -7.44705,30.62009 -3.11669,2.32694 -12.09565,3.22802 -15.96244,1.6019 z m 11.16262,-11.0931 c 1.88338,-1.88339 2.02966,-3.38277 2.02966,-20.80403 0,-17.42126 -0.14628,-18.92065 -2.02966,-20.80402 -1.11632,-1.11632 -3.17135,-2.02967 -4.56674,-2.02967 -1.39539,0 -3.45042,0.91335 -4.56674,2.02967 -1.88338,1.88337 -2.02966,3.38276 -2.02966,20.80402 0,17.42126 0.14628,18.92064 2.02966,20.80403 1.11632,1.11631 3.17135,2.02966 4.56674,2.02966 1.39539,0 3.45042,-0.91335 4.56674,-2.02966 z m -0.19136,-55.85521 c 1.8696,-1.7418 2.22102,-3.17529 2.22102,-9.05982 0,-6.34335 -0.24759,-7.18538 -2.67394,-9.09394 -1.47066,-1.15683 -3.23577,-2.10332 -3.92246,-2.10332 -0.68669,0 -2.4518,0.94649 -3.92246,2.10332 -2.42895,1.91061 -2.67394,2.74741 -2.67394,9.13347 0,5.67705 0.39065,7.42081 2.02966,9.05982 2.60219,2.60218 6.12328,2.58662 8.94212,-0.0395 z"
     id="path4185"
     inkscape:connector-curvature="0" /><path
     style="opacity:0.79000005;fill:#f58cac;fill-opacity:1;stroke:#314e55;stroke-width:1.01483047;stroke-opacity:1"
     d="m 78.953813,311.55297 0,-97.42373 12.61899,0 12.618987,0 0.3201,24.10222 c 0.30353,22.85417 0.44526,24.37917 2.73722,29.4505 3.15912,6.99007 11.55407,14.70849 18.51094,17.0192 3.69571,1.22751 7.21328,1.59184 12.03703,1.2467 11.20715,-0.80187 19.98472,-6.72535 25.63514,-17.2997 2.16967,-4.06036 2.30626,-5.60051 2.60763,-29.40187 l 0.31802,-25.11705 5.00984,0 5.00983,0 0,97.42373 0,97.42373 -48.71186,0 -48.711867,0 0,-97.42373 z"
     id="path4187"
     inkscape:connector-curvature="0" /><path
     style="opacity:0.79000005;fill:#73c9c9;fill-opacity:1;stroke:#314e55;stroke-width:1.01483047;stroke-opacity:1"
     d="m 78.953813,443.48093 0,-21.31144 50.368037,0 c 49.40215,0 50.43417,-0.0409 53.81756,-2.13192 1.89724,-1.17257 4.34868,-3.89442 5.44765,-6.04856 1.94707,-3.81658 1.99811,-6.43902 1.99811,-102.66515 0,-94.16091 -0.0873,-98.91281 -1.87907,-102.28461 -2.95302,-5.55704 -7.51129,-8.10281 -14.50829,-8.10281 -6.99384,0 -7.38263,-0.93582 -2.35767,-5.67497 3.94856,-3.72397 8.57458,-5.01578 14.91583,-4.16524 8.21319,1.10162 12.76893,6.94907 13.97517,17.93757 1.32173,12.04061 7.74239,21.48444 18.02998,26.51942 6.75645,3.30676 17.91514,3.30442 25.33307,-0.005 6.19012,-2.76191 12.7351,-9.44017 15.84359,-16.16624 2.05225,-4.44059 2.21299,-6.55174 2.50545,-32.90656 l 0.31249,-28.16158 32.89591,0 32.89589,0 0.28101,68.75477 0.281,68.75476 2.70311,5.07416 c 8.19269,15.37897 25.86532,21.66217 40.59011,14.43111 6.61745,-3.2497 12.31716,-9.09905 15.42422,-15.82914 1.94081,-4.20394 2.21868,-7.00889 2.67644,-27.01723 0.42695,-18.66186 0.80132,-22.85749 2.28094,-25.56286 1.67822,-3.06849 5.36687,-6.4043 7.08171,-6.4043 0.43397,0 0.78902,50.46245 0.78902,112.13877 l 0,112.13877 -160.85063,0 -160.850637,0 0,-21.31144 z m 309.449647,-7.74809 c 2.03255,-2.58396 2.10332,-3.8148 2.10332,-36.58002 l 0,-33.9061 -2.58814,-2.58814 c -2.01398,-2.01398 -3.19595,-2.4392 -5.32786,-1.91675 -5.88114,1.44123 -5.75898,0.67469 -6.07635,38.1293 l -0.29214,34.47689 2.52937,2.52938 c 3.30683,3.30682 6.98023,3.2518 9.6518,-0.14456 z m 0.0341,-87.83733 c 3.03635,-3.25914 2.95271,-13.45241 -0.13736,-16.74165 -5.33001,-5.67355 -12.00105,-1.05596 -12.00105,8.30695 0,3.83315 0.58437,6.05075 2.10332,7.98178 2.64654,3.36453 7.13385,3.56706 10.03511,0.45292 l -2e-5,0 z"
     id="path4189"
     inkscape:connector-curvature="0" /><path
     style="opacity:0.79000005;fill:#73c9c9;fill-opacity:1;stroke:#314e55;stroke-width:1.01483047;stroke-opacity:1"
     d="m 78.953813,179.625 0,-21.31144 12.685382,0 12.685385,0 0,21.31144 0,21.31144 -12.685385,0 -12.685382,0 0,-21.31144 z"
     id="path4191"
     inkscape:connector-curvature="0" /><path
     style="opacity:0.79000005;fill:#73c9c9;fill-opacity:1;stroke:#314e55;stroke-width:1.01483047;stroke-opacity:1"
     d="m 177.31431,29.508148 c -3.71851,-3.718504 -3.90437,-8.007736 -0.51766,-11.945731 l 2.44878,-2.847375 59.34994,-0.277334 59.34995,-0.277335 3.15044,2.650915 c 4.13716,3.481197 4.43342,9.398409 0.65947,13.172341 l -2.49094,2.490947 -59.49178,0 -59.49177,0 -2.96643,-2.966428 z"
     id="path4193"
     inkscape:connector-curvature="0" /></svg>