<?xml version="1.0" encoding="UTF-8" standalone="no"?>
<!-- Generator: Adobe Illustrator 19.0.0, SVG Export Plug-In . SVG Version: 6.00 Build 0)  -->

<svg
   xmlns:dc="http://purl.org/dc/elements/1.1/"
   xmlns:cc="http://creativecommons.org/ns#"
   xmlns:rdf="http://www.w3.org/1999/02/22-rdf-syntax-ns#"
   xmlns:svg="http://www.w3.org/2000/svg"
   xmlns="http://www.w3.org/2000/svg"
   xmlns:sodipodi="http://sodipodi.sourceforge.net/DTD/sodipodi-0.dtd"
   xmlns:inkscape="http://www.inkscape.org/namespaces/inkscape"
   version="1.1"
   id="Layer_1"
   x="0px"
   y="0px"
   viewBox="0 0 511.999 511.999"
   style="enable-background:new 0 0 511.999 511.999;"
   xml:space="preserve"
   inkscape:version="0.91 r13725"
   sodipodi:docname="MovieIcon.svg"><metadata
     id="metadata77"><rdf:RDF><cc:Work
         rdf:about=""><dc:format>image/svg+xml</dc:format><dc:type
           rdf:resource="http://purl.org/dc/dcmitype/StillImage" /></cc:Work></rdf:RDF></metadata><defs
     id="defs75" /><sodipodi:namedview
     pagecolor="#ffffff"
     bordercolor="#666666"
     borderopacity="1"
     objecttolerance="10"
     gridtolerance="10"
     guidetolerance="10"
     inkscape:pageopacity="0"
     inkscape:pageshadow="2"
     inkscape:window-width="1211"
     inkscape:window-height="765"
     id="namedview73"
     showgrid="false"
     inkscape:zoom="2.6074614"
     inkscape:cx="232.99921"
     inkscape:cy="369.84283"
     inkscape:window-x="0"
     inkscape:window-y="0"
     inkscape:window-maximized="0"
     inkscape:current-layer="Layer_1" /><g
     id="g3"><polygon
       style="fill:#F2F2F2;"
       points="248.52,67.562 331.523,111.358 246.277,137.723 163.261,93.927 162.594,91.748    247.853,65.383  "
       id="polygon5" /><polygon
       style="fill:#F2F2F2;"
       points="428.189,9.616 448.479,75.188 416.795,84.993 416.782,84.993 333.792,41.198    333.112,39.019  "
       id="polygon7" /><polygon
       style="fill:#F2F2F2;"
       points="466.346,193.49 466.346,262.138 366.821,262.138 433.188,195.771 433.188,193.49  "
       id="polygon9" /><polygon
       style="fill:#F2F2F2;"
       points="343.943,193.49 343.943,195.771 277.576,262.138 188.331,262.138 254.698,195.771    254.698,193.49  "
       id="polygon11" /><polygon
       style="fill:#F2F2F2;"
       points="165.453,193.49 165.453,195.771 99.099,262.138 65.928,262.138 65.928,193.49  "
       id="polygon13" /><polygon
       style="fill:#F2F2F2;"
       points="161.018,164.087 65.928,193.49 45.652,127.918 77.335,118.126 78.002,120.292  "
       id="polygon15" /></g><g
     id="g17"><polygon
       style="fill:#4D4D4D;"
       points="333.792,41.198 416.782,84.993 331.536,111.358 331.523,111.358 248.52,67.562    247.853,65.383 333.112,39.019  "
       id="polygon19" /><polygon
       style="fill:#4D4D4D;"
       points="246.277,137.723 161.018,164.087 78.002,120.292 77.335,118.126 162.594,91.748    163.261,93.927  "
       id="polygon21" /></g><polygon
     style="fill:#666666;"
     points="466.346,262.138 466.346,502.381 65.928,502.381 65.928,262.138 99.099,262.138   188.331,262.138 277.576,262.138 366.821,262.138 "
     id="polygon23" /><g
     id="g25"><polygon
       style="fill:#4D4D4D;"
       points="433.188,193.49 433.188,195.771 366.821,262.138 277.576,262.138 343.943,195.771    343.943,193.49  "
       id="polygon27" /><polygon
       style="fill:#4D4D4D;"
       points="254.698,193.49 254.698,195.771 188.331,262.138 99.099,262.138 165.453,195.771    165.453,193.49  "
       id="polygon29" /><polygon
       id="polygon4167"
       points="433.188,193.49 433.188,195.771 366.821,262.138 277.576,262.138 343.943,195.771    343.943,193.49  "
       style="fill:#4D4D4D;" /></g><path
     style="fill:#FFFFFF;"
     d="M434.303,479.951c-5.309,0-9.613-4.304-9.613-9.613V324.275c0-5.309,4.304-9.613,9.613-9.613  c5.309,0,9.613,4.304,9.613,9.613v146.063C443.916,475.647,439.612,479.951,434.303,479.951z"
     id="path31" /><g
     id="g33"><path
       style="fill:#B3B3B3;"
       d="M393.032,353.062H139.255c-5.309,0-9.613-4.304-9.613-9.613c0-5.309,4.304-9.613,9.613-9.613   h253.778c5.309,0,9.613,4.304,9.613,9.613C402.645,348.758,398.341,353.062,393.032,353.062z"
       id="path35" /><path
       style="fill:#B3B3B3;"
       d="M393.032,428.683H139.255c-5.309,0-9.613-4.304-9.613-9.613c0-5.309,4.304-9.613,9.613-9.613   h253.778c5.309,0,9.613,4.304,9.613,9.613C402.645,424.379,398.341,428.683,393.032,428.683z"
       id="path37" /></g><circle
     style="fill:#FFFFFF;"
     cx="434.306"
     cy="292.228"
     r="9.613"
     id="circle39" /><path
     style="fill:#314e55;fill-opacity:1"
     d="M466.348,183.883H129.553l321.759-99.508c5.073-1.569,7.912-6.952,6.343-12.024l-20.28-65.58  c-0.752-2.435-2.443-4.473-4.699-5.661c-2.255-1.189-4.89-1.436-7.325-0.682L42.813,118.734c-5.073,1.569-7.912,6.952-6.343,12.024  l19.852,64.189v307.439c0,5.309,4.304,9.613,9.613,9.613h400.414c5.309,0,9.613-4.304,9.613-9.613V193.495  C475.961,188.186,471.657,183.883,466.348,183.883z M456.735,252.525h-66.702l49.417-49.417h17.285V252.525z M300.789,252.525  l49.417-49.417h62.056l-49.417,49.417H300.789z M211.544,252.525l49.417-49.417h62.056L273.6,252.525H211.544z M122.3,252.525  l49.417-49.417h62.056l-49.417,49.417H122.3z M75.547,252.525v-49.417h68.981l-49.417,49.417H75.547z M159.45,102.786l61.811,32.61  l-59.285,18.335l-61.81-32.61L159.45,102.786z M244.712,76.419l61.811,32.61l-59.287,18.334l-61.811-32.61L244.712,76.419z   M329.972,50.05l61.811,32.61l-59.285,18.335l-61.811-32.61L329.972,50.05z M436.449,68.848l-18.69,5.78l-61.811-32.61l65.901-20.38  L436.449,68.848z M74.19,129.155l61.811,32.61l-63.724,19.708l-14.601-47.212L74.19,129.155z M75.547,492.774V271.751h381.188  v221.022H75.547V492.774z"
     id="path41" /><g
     id="g43" /><g
     id="g45" /><g
     id="g47" /><g
     id="g49" /><g
     id="g51" /><g
     id="g53" /><g
     id="g55" /><g
     id="g57" /><g
     id="g59" /><g
     id="g61" /><g
     id="g63" /><g
     id="g65" /><g
     id="g67" /><g
     id="g69" /><g
     id="g71" /><path
     style="opacity:0.79000005;fill:#333333;fill-opacity:1;stroke:#314e55;stroke-width:0.1917574;stroke-opacity:1"
     d="m 387.38308,227.79501 24.54439,-24.54495 13.61477,0 13.61478,0 -24.54439,24.54495 -24.54438,24.54495 -13.61478,0 -13.61477,0 24.54438,-24.54495 z"
     id="path4211"
     inkscape:connector-curvature="0" /><path
     style="opacity:0.79000005;fill:#333333;fill-opacity:1;stroke:#314e55;stroke-width:0.1917574;stroke-opacity:1"
     d="m 298.40765,227.79501 24.54439,-24.54495 13.61477,0 13.61478,0 -24.54439,24.54495 -24.54438,24.54495 -13.61478,0 -13.61477,0 24.54438,-24.54495 z"
     id="path4213"
     inkscape:connector-curvature="0" /><path
     style="opacity:0.79000005;fill:#333333;fill-opacity:1;stroke:#314e55;stroke-width:0.1917574;stroke-opacity:1"
     d="m 184.68299,252.19614 c 0.081,-0.0791 11.06497,-11.12433 24.40882,-24.54495 l 24.26154,-24.40113 13.63877,0 13.63876,0 -24.54438,24.54495 -24.54438,24.54495 -13.5032,0 c -7.42676,0 -13.43693,-0.0647 -13.35593,-0.14382 z"
     id="path4215"
     inkscape:connector-curvature="0" /><path
     style="opacity:0.79000005;fill:#333333;fill-opacity:1;stroke:#314e55;stroke-width:0.1917574;stroke-opacity:1"
     d="m 119.88152,227.79501 24.54438,-24.54495 13.61478,0 13.61477,0 -24.54438,24.54495 -24.54439,24.54495 -13.61477,0 -13.614775,0 24.544385,-24.54495 z"
     id="path4217"
     inkscape:connector-curvature="0" /><path
     inkscape:connector-curvature="0"
     id="path4219"
     d="m 119.88152,227.79501 24.54438,-24.54495 13.61478,0 13.61477,0 -24.54438,24.54495 -24.54439,24.54495 -13.61477,0 -13.614775,0 24.544385,-24.54495 z"
     style="opacity:0.79000005;fill:#333333;fill-opacity:1;stroke:#314e55;stroke-width:0.1917574;stroke-opacity:1" /><path
     style="opacity:0.79000005;fill:#333333;fill-opacity:1;stroke:#314e55;stroke-width:0.38351479;stroke-opacity:1"
     d="m 104.87419,145.16346 c -16.701895,-8.80465 -30.249556,-16.1225 -30.105906,-16.2619 0.348399,-0.33809 27.534206,-8.76732 28.155736,-8.72997 0.26705,0.016 -0.11687,0.24662 -0.85316,0.51239 l -1.33869,0.48322 0.95518,0.51648 c 0.52535,0.28406 13.977,7.38874 29.89256,15.78817 15.91556,8.39944 29.07892,15.41323 29.25191,15.58622 0.26323,0.26324 -24.19097,8.12704 -25.242,8.11714 -0.19169,-0.002 -14.01373,-7.20709 -30.71563,-16.01175 z"
     id="path4233"
     inkscape:connector-curvature="0" /><path
     style="opacity:0.79000005;fill:#333333;fill-opacity:1;stroke:#314e55;stroke-width:0.38351479;stroke-opacity:1"
     d="m 189.71847,119.0051 c -26.0528,-13.78952 -30.41595,-15.98185 -31.25646,-15.70528 -7.1665,2.35808 -43.53219,13.39589 -43.81937,13.30017 -0.21335,-0.0711 5.36955,-1.9168 12.40646,-4.10151 7.0369,-2.18472 22.95299,-7.12995 35.36909,-10.98941 l 22.57473,-7.017187 1.39495,0.863938 c 0.76722,0.475166 14.46454,7.751699 30.43849,16.170079 16.41876,8.65279 28.83851,15.41798 28.57186,15.56344 -0.35866,0.19563 -23.06118,7.30918 -25.01665,7.83864 -0.21093,0.0571 -14.00933,-7.10818 -30.6631,-15.92288 z"
     id="path4235"
     inkscape:connector-curvature="0" /><path
     style="opacity:0.79000005;fill:#333333;fill-opacity:1;stroke:#314e55;stroke-width:0.38351479;stroke-opacity:1"
     d="M 275.41594,92.44398 C 259.06862,83.813813 245.56397,76.626366 245.4056,76.471877 c -0.15838,-0.154491 5.53682,-2.072258 12.65598,-4.261707 7.11917,-2.189449 13.18798,-4.065259 13.48625,-4.168468 0.31269,-0.108199 0.43683,-0.01699 0.29319,0.215424 -0.14951,0.241919 11.62489,6.664267 29.44948,16.063208 16.33422,8.613073 29.65247,15.706246 29.5961,15.762616 -0.0564,0.0564 -5.7002,1.83533 -12.54186,3.95327 -6.84165,2.11792 -12.61195,3.90662 -12.82289,3.97488 -0.21093,0.0683 -13.75859,-6.93695 -30.10591,-15.56712 z"
     id="path4237"
     inkscape:connector-curvature="0" /><path
     style="opacity:0.79000005;fill:#333333;fill-opacity:1;stroke:#314e55;stroke-width:0.38351479;stroke-opacity:1"
     d="m 360.17271,66.197907 c -16.13638,-8.547836 -29.73735,-15.658838 -30.22438,-15.802225 -0.64699,-0.190485 2.66508,-1.364697 12.29673,-4.359505 l 13.18222,-4.0988 9.97202,5.257336 c 5.48461,2.891535 18.97587,10.003332 29.98059,15.803993 11.00471,5.800661 20.01021,10.632947 20.01222,10.738414 0.003,0.184025 -25.29514,8.094571 -25.68876,8.032533 -0.10547,-0.01664 -13.39426,-7.023909 -29.53064,-15.571746 z"
     id="path4239"
     inkscape:connector-curvature="0" /></svg>