<?xml version="1.0" encoding="UTF-8" standalone="no"?>
<!-- Generator: Adobe Illustrator 19.0.0, SVG Export Plug-In . SVG Version: 6.00 Build 0)  -->

<svg
   xmlns:dc="http://purl.org/dc/elements/1.1/"
   xmlns:cc="http://creativecommons.org/ns#"
   xmlns:rdf="http://www.w3.org/1999/02/22-rdf-syntax-ns#"
   xmlns:svg="http://www.w3.org/2000/svg"
   xmlns="http://www.w3.org/2000/svg"
   xmlns:sodipodi="http://sodipodi.sourceforge.net/DTD/sodipodi-0.dtd"
   xmlns:inkscape="http://www.inkscape.org/namespaces/inkscape"
   version="1.1"
   id="Capa_1"
   x="0px"
   y="0px"
   viewBox="0 0 60.001 60.001"
   style="enable-background:new 0 0 60.001 60.001;"
   xml:space="preserve"
   inkscape:version="0.91 r13725"
   sodipodi:docname="PlayIcon.svg"><metadata
     id="metadata43"><rdf:RDF><cc:Work
         rdf:about=""><dc:format>image/svg+xml</dc:format><dc:type
           rdf:resource="http://purl.org/dc/dcmitype/StillImage" /><dc:title /></cc:Work></rdf:RDF></metadata><defs
     id="defs41" /><sodipodi:namedview
     pagecolor="#ffffff"
     bordercolor="#666666"
     borderopacity="1"
     objecttolerance="10"
     gridtolerance="10"
     guidetolerance="10"
     inkscape:pageopacity="0"
     inkscape:pageshadow="2"
     inkscape:window-width="664"
     inkscape:window-height="480"
     id="namedview39"
     showgrid="false"
     inkscape:zoom="2.7812403"
     inkscape:cx="29.436527"
     inkscape:cy="7.1936044"
     inkscape:window-x="0"
     inkscape:window-y="0"
     inkscape:window-maximized="0"
     inkscape:current-layer="Capa_1" /><g
     id="g3"
     style="fill:#314e55;fill-opacity:1"><path
       d="M57.249,13.604c-2.168-2.892-4.839-5.304-7.97-7.187c-10.857-6.009-23.516-7.88-35.651-5.266l-3.512,0.757L8.817,0.611   C8.005-0.198,6.685-0.198,5.876,0.612L1.041,5.447C0.647,5.84,0.43,6.363,0.43,6.918s0.217,1.078,0.61,1.472l0.785,0.786   C0.434,14.07,1.774,19.276,5.397,22.9c2.623,2.624,6.193,3.994,10.068,3.835c3.331-0.129,6.598-1.417,9.132-3.572l4.034,4.733   c3.008,3.529,4.665,8.027,4.665,12.664V57.27c0,1.506,1.226,2.731,2.731,2.731h2.536c1.507,0,2.732-1.225,2.732-2.731V40.623   c0-4.676,1.681-9.202,4.732-12.743l3.104-3.605l0.99,0.975c0.384,0.38,0.826,0.696,1.313,0.94l0.536,0.269   c1.451,0.726,3.119,0.733,4.578,0.02c1.458-0.713,2.477-2.035,2.795-3.627C59.993,19.615,59.229,16.245,57.249,13.604z    M2.455,6.861L7.29,2.026C7.305,2.01,7.327,2.002,7.347,2.002s0.042,0.008,0.058,0.024l3.464,3.551   c-2.534,0.241-4.522,2.381-4.522,4.978c0,0.109,0.004,0.217,0.011,0.324L2.455,6.977C2.428,6.949,2.427,6.889,2.455,6.861z    M11.346,7.554c0.205,0,0.417,0.025,0.648,0.075c0.027,0.006,0.055,0.011,0.082,0.015c1.303,0.327,2.27,1.508,2.27,2.91   c0,1.654-1.346,3-3,3c-1.379,0-2.543-0.935-2.893-2.204c-0.005-0.039-0.012-0.078-0.021-0.117c-0.059-0.249-0.087-0.47-0.087-0.676   c0-0.001,0-0.002,0-0.003C8.346,8.9,9.692,7.554,11.346,7.554z M23.866,19.227c-0.77-0.771-0.763-2.032,0.016-2.811   c0.379-0.378,0.882-0.586,1.416-0.586c0.518,0,1.006,0.195,1.38,0.551l0.944,1.174l-2.903,2.671L23.866,19.227z M39.296,57.27   c0,0.403-0.328,0.731-0.732,0.731h-2.536c-0.403,0-0.731-0.328-0.731-0.731v-3.734l4-2.667V57.27z M39.296,48.466l-4,2.667v-4.596   l4-2.667V48.466z M44.513,26.574c-3.364,3.904-5.217,8.894-5.217,14.049v0.843l-4,2.667v-3.571c0-5.113-1.826-10.071-5.144-13.961   l-4.136-4.85l2.859-2.631l6.302,7.843c0.518,0.645,1.29,1.016,2.118,1.019c0.003,0,0.006,0,0.008,0   c0.825,0,1.597-0.367,2.116-1.006l5.539-6.809l2.746,2.704L44.513,26.574z M49.014,21.351l-2.787-2.744l1.809-2.224   c0.761-0.724,2.05-0.713,2.797,0.032c0.779,0.78,0.779,2.049-0.051,2.883L49.014,21.351z M57.385,22.459   c-0.195,0.975-0.819,1.785-1.713,2.222c-0.893,0.438-1.915,0.433-2.804-0.012l-0.536-0.269c-0.299-0.149-0.569-0.342-0.805-0.575   l-1.087-1.07l1.806-2.097c1.56-1.56,1.56-4.098,0-5.657c0,0-0.001,0-0.001-0.001c-1.513-1.509-4.145-1.508-5.655,0   c-0.024,0.024-0.048,0.05-0.069,0.077l-8.652,10.635c-0.188,0.233-0.434,0.268-0.564,0.268c0,0-0.001,0-0.002,0   c-0.13,0-0.376-0.036-0.565-0.271l-6.951-8.652c-0.012-0.016-0.024-0.031-0.038-0.046l-1.549-1.928   c-0.022-0.028-0.047-0.056-0.073-0.082c-1.512-1.509-4.144-1.51-5.657,0.001c-1.559,1.56-1.566,4.09-0.07,5.582l0.902,1.059   c-2.195,1.867-5.026,2.983-7.913,3.096c-3.305,0.122-6.351-1.026-8.576-3.251c-2.831-2.832-4.035-6.792-3.322-10.647l1.532,1.533   c0.521,0.521,1.249,0.708,1.927,0.559c0.847,1.562,2.501,2.625,4.398,2.625c2.757,0,5-2.243,5-5c0-2.028-1.214-3.778-2.953-4.562   c-0.012-0.515-0.213-1.02-0.594-1.4l-1.001-1.001l2.251-0.485c11.656-2.511,23.825-0.716,34.229,5.042   c2.877,1.731,5.356,3.971,7.37,6.655C57.288,16.99,57.921,19.78,57.385,22.459z"
       id="path5"
       style="fill:#314e55;fill-opacity:1" /><path
       d="M22.865,50.033c0.277-0.621,0.432-1.309,0.432-2.032c0-2.565-1.941-4.685-4.432-4.968c0.277-0.621,0.432-1.309,0.432-2.032   c0-2.757-2.243-5-5-5s-5,2.243-5,5c0,0.723,0.154,1.411,0.432,2.032c-2.49,0.283-4.432,2.403-4.432,4.968   c0,0.723,0.154,1.411,0.432,2.032c-2.49,0.283-4.432,2.403-4.432,4.968c0,2.757,2.243,5,5,5c1.634,0,3.087-0.788,4-2.003   c0.913,1.215,2.366,2.003,4,2.003s3.087-0.788,4-2.003c0.913,1.215,2.366,2.003,4,2.003c2.757,0,5-2.243,5-5   C27.296,52.436,25.355,50.316,22.865,50.033z M14.296,38.001c1.654,0,3,1.346,3,3s-1.346,3-3,3s-3-1.346-3-3   S12.642,38.001,14.296,38.001z M6.296,58.001c-1.654,0-3-1.346-3-3s1.346-3,3-3s3,1.346,3,3S7.951,58.001,6.296,58.001z    M10.296,51.001c-1.654,0-3-1.346-3-3s1.346-3,3-3s3,1.346,3,3S11.951,51.001,10.296,51.001z M14.296,58.001c-1.654,0-3-1.346-3-3   s1.346-3,3-3s3,1.346,3,3S15.951,58.001,14.296,58.001z M18.296,51.001c-1.654,0-3-1.346-3-3s1.346-3,3-3s3,1.346,3,3   S19.951,51.001,18.296,51.001z M22.296,58.001c-1.654,0-3-1.346-3-3s1.346-3,3-3s3,1.346,3,3S23.951,58.001,22.296,58.001z"
       id="path7"
       style="fill:#314e55;fill-opacity:1" /></g><g
     id="g9" /><g
     id="g11" /><g
     id="g13" /><g
     id="g15" /><g
     id="g17" /><g
     id="g19" /><g
     id="g21" /><g
     id="g23" /><g
     id="g25" /><g
     id="g27" /><g
     id="g29" /><g
     id="g31" /><g
     id="g33" /><g
     id="g35" /><g
     id="g37" /><path
     style="opacity:0.79000005;fill:#f58cac;fill-opacity:1;stroke:#314e55;stroke-width:0.12712076;stroke-opacity:1"
     d="M 10.067964,13.348404 C 8.2803337,12.574094 7.7317864,10.094764 9.0161274,8.5943003 9.6618123,7.8399627 10.33747,7.5305796 11.339172,7.5305796 c 0.989691,0 1.641618,0.2935092 2.320166,1.0445808 1.29668,1.4352696 0.779797,3.9375936 -0.978304,4.7361466 -0.637686,0.289646 -1.98583,0.308785 -2.61307,0.0371 z"
     id="path4173"
     inkscape:connector-curvature="0" /><path
     style="opacity:0.79000005;fill:#f58cac;fill-opacity:1;stroke:#314e55;stroke-width:0.35955182;stroke-opacity:1"
     d="m 8.8342087,50.828238 c -2.5147364,-1.4386 -2.043797,-5.233712 0.7360343,-5.931405 1.093047,-0.274337 2.941909,0.441078 3.412553,1.320484 0.549867,1.027437 0.402052,3.061812 -0.283405,3.900497 -0.741903,0.907749 -2.8446531,1.294236 -3.8651823,0.710424 z"
     id="path4175"
     inkscape:connector-curvature="0" /><path
     style="opacity:0.79000005;fill:#f58cac;fill-opacity:1;stroke:#314e55;stroke-width:0.35955182;stroke-opacity:1"
     d="m 20.110035,57.369515 c -1.216991,-0.98546 -1.216991,-3.752248 0,-4.737708 0.909137,-0.736174 2.919638,-0.90872 3.97945,-0.341525 0.885514,0.473912 1.594146,2.322199 1.315691,3.431649 -0.561427,2.236906 -3.455356,3.137352 -5.295141,1.647584 z"
     id="path4177"
     inkscape:connector-curvature="0" /><path
     style="opacity:0.79000005;fill:#73c9c9;fill-opacity:1;stroke:#314e55;stroke-width:0.35955182;stroke-opacity:1"
     d="M 3.9789428,8.9766962 2.024656,6.9978284 4.5209098,4.4822987 C 5.8938494,3.0987575 7.1893836,1.9667691 7.3998746,1.9667691 c 0.3933036,0 3.7714204,3.271878 3.7714204,3.6528124 0,0.1168032 -0.500404,0.3124505 -1.11201,0.4347718 C 8.6251628,6.3411775 6.9434365,8.1499079 6.6483437,9.7228888 6.5211555,10.40086 6.3082231,10.955564 6.1751609,10.955564 c -0.1330622,0 -1.1213604,-0.89049 -2.1962181,-1.9788678 z"
     id="path4181"
     inkscape:connector-curvature="0" /><path
     style="opacity:0.79000005;fill:#f58cac;fill-opacity:1;stroke:#314e55;stroke-width:0.35955182;stroke-opacity:1"
     d="m 12.053832,43.151795 c -1.981596,-1.981596 -0.568962,-5.229845 2.274411,-5.229845 1.829018,0 3.027344,1.209744 3.027344,3.056191 0,2.807612 -3.310523,4.164886 -5.301755,2.173654 z"
     id="path4183"
     inkscape:connector-curvature="0" /><path
     style="opacity:0.79000005;fill:#73c9c9;fill-opacity:1;stroke:#314e55;stroke-width:0.35955182;stroke-opacity:1"
     d="m 16.177363,50.174369 c -1.429831,-1.42983 -1.414507,-2.95543 0.04434,-4.414275 0.94284,-0.94284 1.277737,-1.065735 2.40548,-0.882728 1.853466,0.300776 2.774998,1.347508 2.774998,3.152011 0,2.926108 -3.150356,4.219453 -5.224816,2.144992 z"
     id="path4185"
     inkscape:connector-curvature="0" /><path
     style="opacity:0.79000005;fill:#73c9c9;fill-opacity:1;stroke:#314e55;stroke-width:0.35955182;stroke-opacity:1"
     d="m 12.053832,57.174315 c -1.981596,-1.981595 -0.568962,-5.229844 2.274411,-5.229844 1.829018,0 3.027344,1.209744 3.027344,3.05619 0,2.807613 -3.310523,4.164886 -5.301755,2.173654 z"
     id="path4187"
     inkscape:connector-curvature="0" /><path
     style="opacity:0.79000005;fill:#b75548;fill-opacity:1;stroke:#314e55;stroke-width:0.35955182;stroke-opacity:1"
     d="M 35.123937,40.63155 C 34.714388,34.296837 33.130959,30.540701 28.602236,25.161082 27.123112,23.404047 25.91292,21.867931 25.91292,21.74749 c 0,-0.12044 0.648121,-0.851856 1.440269,-1.625368 1.671902,-1.632569 1.099111,-1.988325 5.349014,3.322231 3.180085,3.973742 3.882506,4.542893 5.198888,4.212502 0.698286,-0.175259 3.841375,-3.667297 6.594644,-7.326788 0.371825,-0.49421 0.609745,-0.386343 1.887647,0.855806 0.804209,0.781709 1.461975,1.509802 1.461703,1.617983 -2.73e-4,0.108182 -1.143021,1.57198 -2.53944,3.252884 -3.72383,4.482466 -5.729757,9.247737 -5.729757,13.611583 0,1.819881 -0.0028,1.824289 -2.105752,3.25234 l -2.105753,1.429989 -0.240446,-3.719102 z"
     id="path4189"
     inkscape:connector-curvature="0" /><path
     style="opacity:0.79000005;fill:#b75548;fill-opacity:1;stroke:#314e55;stroke-width:0.35955182;stroke-opacity:1"
     d="m 35.267727,55.64782 0.0065,-2.444918 1.787123,-1.168543 c 0.982917,-0.642699 1.956659,-1.168544 2.163871,-1.168544 0.243905,0 0.340462,1.236097 0.27384,3.50563 l -0.102908,3.505631 -2.067423,0.107831 -2.067423,0.107831 0.0065,-2.444918 z"
     id="path4191"
     inkscape:connector-curvature="0" /><path
     style="opacity:0.79000005;fill:#b75548;fill-opacity:1;stroke:#314e55;stroke-width:0.35955182;stroke-opacity:1"
     d="m 23.781705,19.356543 c -0.937044,-1.191259 -0.944833,-2.088964 -0.0261,-3.007701 0.975202,-0.975203 2.217597,-0.904228 3.241014,0.185149 l 0.849502,0.904253 -1.399125,1.432834 c -0.769518,0.788058 -1.516343,1.432833 -1.65961,1.432833 -0.143267,0 -0.595825,-0.426315 -1.005685,-0.947368 z"
     id="path4193"
     inkscape:connector-curvature="0" /><path
     style="opacity:0.79000005;fill:#b75548;fill-opacity:1;stroke:#314e55;stroke-width:0.35955182;stroke-opacity:1"
     d="m 47.311499,19.949733 -1.399124,-1.432834 0.873061,-0.994141 c 1.360463,-1.549138 1.854784,-1.89302 2.721166,-1.89302 2.180018,0 2.631963,2.778442 0.748836,4.603641 -0.652114,0.632053 -1.266471,1.149188 -1.365237,1.149188 -0.09877,0 -0.809183,-0.644775 -1.578702,-1.432834 z"
     id="path4195"
     inkscape:connector-curvature="0" /><path
     style="opacity:0.79000005;fill:#73c9c9;fill-opacity:1;stroke:#314e55;stroke-width:0.35955182;stroke-opacity:1"
     d="m 35.261267,48.75941 0,-2.465958 1.972003,-1.309336 c 1.084602,-0.720135 2.055392,-1.309337 2.157311,-1.309337 0.101919,0 0.185307,1.109681 0.185307,2.465957 l 0,2.465958 -1.972003,1.309336 c -1.084602,0.720136 -2.055392,1.309337 -2.157311,1.309337 -0.101919,0 -0.185307,-1.109681 -0.185307,-2.465957 z"
     id="path4197"
     inkscape:connector-curvature="0" /><path
     style="opacity:0.79000005;fill:#73c9c9;fill-opacity:1;stroke:#314e55;stroke-width:0.35955182;stroke-opacity:1"
     d="m 4.0429342,57.224686 c -1.0967065,-1.16739 -1.0711978,-3.444763 0.050387,-4.498437 1.9581672,-1.839602 5.2802156,-0.408656 5.2802156,2.274412 0,2.719185 -3.4953855,4.177524 -5.3306022,2.224025 z"
     id="path4201"
     inkscape:connector-curvature="0" /></svg>