<?xml version="1.0" encoding="UTF-8" standalone="no"?>
<!-- Generator: Adobe Illustrator 19.0.0, SVG Export Plug-In . SVG Version: 6.00 Build 0)  -->

<svg
   xmlns:dc="http://purl.org/dc/elements/1.1/"
   xmlns:cc="http://creativecommons.org/ns#"
   xmlns:rdf="http://www.w3.org/1999/02/22-rdf-syntax-ns#"
   xmlns:svg="http://www.w3.org/2000/svg"
   xmlns="http://www.w3.org/2000/svg"
   xmlns:sodipodi="http://sodipodi.sourceforge.net/DTD/sodipodi-0.dtd"
   xmlns:inkscape="http://www.inkscape.org/namespaces/inkscape"
   version="1.1"
   id="Layer_1"
   x="0px"
   y="0px"
   viewBox="0 0 463 463"
   style="enable-background:new 0 0 463 463;"
   xml:space="preserve"
   inkscape:version="0.91 r13725"
   sodipodi:docname="ShakerIcon.svg"><metadata
     id="metadata49"><rdf:RDF><cc:Work
         rdf:about=""><dc:format>image/svg+xml</dc:format><dc:type
           rdf:resource="http://purl.org/dc/dcmitype/StillImage" /><dc:title></dc:title></cc:Work></rdf:RDF></metadata><defs
     id="defs47" /><sodipodi:namedview
     pagecolor="#ffffff"
     bordercolor="#666666"
     borderopacity="1"
     objecttolerance="10"
     gridtolerance="10"
     guidetolerance="10"
     inkscape:pageopacity="0"
     inkscape:pageshadow="2"
     inkscape:window-width="664"
     inkscape:window-height="480"
     id="namedview45"
     showgrid="false"
     inkscape:zoom="0.50971922"
     inkscape:cx="249.97095"
     inkscape:cy="231.5"
     inkscape:window-x="0"
     inkscape:window-y="0"
     inkscape:window-maximized="0"
     inkscape:current-layer="g5" /><g
     id="g3"><g
       id="g5"><g
         id="g7"><path
           d="M343.5,128h-8c-6.517,0-12.678-11.877-18.636-23.364C307.473,86.532,295.785,64,271.5,64H271V31.5     C271,14.131,256.869,0,239.5,0h-16C206.131,0,192,14.131,192,31.5V64h-0.5c-24.285,0-35.973,22.532-45.364,40.636     C140.178,116.123,134.017,128,127.5,128h-8c-4.142,0-7.5,3.358-7.5,7.5c0,4.142,3.358,7.5,7.5,7.5h1.143     c3.096,33.968,17.588,187.08,37.109,300.595C159.686,454.839,169.42,463,180.899,463h101.202     c11.479,0,21.213-8.161,23.146-19.405C324.769,330.08,339.26,176.968,342.357,143h1.143c4.142,0,7.5-3.358,7.5-7.5     C351,131.358,347.642,128,343.5,128z M207,31.5c0-9.098,7.402-16.5,16.5-16.5h16c9.098,0,16.5,7.402,16.5,16.5V32h-49V31.5z      M207,47h49v17h-49V47z M159.451,111.543C169.335,92.488,177.42,79,191.5,79h80c14.08,0,22.165,13.488,32.049,32.543     c2.951,5.689,5.941,11.447,9.318,16.457H150.133C153.51,122.991,156.5,117.233,159.451,111.543z M290.464,441.053     c-0.692,4.025-4.209,6.947-8.363,6.947H180.899c-4.154,0-7.671-2.922-8.363-6.947C156.998,350.699,144.65,235.011,138.751,175     h185.498C318.35,235.009,306.004,350.69,290.464,441.053z M325.703,160H137.297c-0.671-7.032-1.206-12.789-1.591-17h191.589     C326.91,147.211,326.374,152.968,325.703,160z"
           id="path9"
           style="stroke:#314e55;stroke-opacity:1;fill:#314e55;fill-opacity:1" /><path
           d="M294.702,222.96c0.268,0.028,0.534,0.042,0.798,0.042c3.788,0,7.042-2.861,7.449-6.712     c0.585-5.539,1.144-10.887,1.671-16.016c0.424-4.12-2.572-7.804-6.692-8.228c-4.124-0.425-7.805,2.572-8.229,6.692     c-0.527,5.116-1.083,10.45-1.667,15.975C287.596,218.832,290.583,222.525,294.702,222.96z"
           id="path11"
           style="fill:#314e55;fill-opacity:1" /><path
           d="M279.348,350.936c0.336,0.045,0.67,0.067,1,0.067c3.702,0,6.923-2.741,7.425-6.51     c3.951-29.644,7.886-61.999,11.696-96.164c0.459-4.118-2.506-7.827-6.622-8.286c-4.116-0.46-7.827,2.505-8.285,6.622     c-3.799,34.06-7.721,66.307-11.657,95.846C272.358,346.617,275.242,350.389,279.348,350.936z"
           id="path13"
           style="fill:#314e55;fill-opacity:1" /></g><path
         style="opacity:1;fill:#f58cac;fill-opacity:1;stroke:#314e55;stroke-width:1.96186435;stroke-opacity:1"
         d="m 174.04904,445.7785 c -2.59302,-3.12441 -7.38986,-31.3634 -15.7035,-92.44672 -6.59112,-48.42722 -19.80848,-164.17142 -19.80848,-173.4624 l 0,-6.04819 93.41711,0 93.41711,0 -1.31515,13.24258 c -10.78315,108.57837 -30.27874,253.44292 -34.84894,258.94968 -3.12864,3.76978 -112.0189,3.54762 -115.15815,-0.23495 z m 110.12083,-98.08649 c 1.76332,-1.76333 4.57192,-18.57278 8.11297,-48.55615 6.89656,-58.39559 6.8006,-55.60208 1.97377,-57.4543 -4.99614,-1.9172 -8.13846,2.16072 -9.38884,12.1843 -10.66361,85.48408 -11.18296,90.95027 -8.90229,93.69831 2.92817,3.52823 4.77522,3.55701 8.20439,0.12783 z m 17.6855,-134.34746 c 2.61413,-10.14032 1.16431,-18.76511 -3.29669,-19.61152 -5.47079,-1.038 -8.95807,4.9764 -8.95807,15.44971 0,10.26719 1.10174,12.1363 6.66984,11.31548 2.55277,-0.37631 4.47123,-2.83366 5.58492,-7.15367 z"
         id="path4185"
         inkscape:connector-curvature="0" /><path
         style="opacity:1;fill:#f58cac;fill-opacity:1;stroke:#314e55;stroke-width:1.96186435;stroke-opacity:1"
         d="m 135.83949,153.95731 c -0.67439,-3.37196 -1.22616,-7.34473 -1.22616,-8.82839 0,-2.2526 16.05656,-2.69756 97.3411,-2.69756 l 97.3411,0 -1.18295,4.41419 c -0.65063,2.42781 -1.19503,6.40058 -1.20976,8.82839 l -0.0268,4.4142 -94.90519,0 -94.90519,0 -1.22617,-6.13083 z"
         id="path4187"
         inkscape:connector-curvature="0" /><path
         style="opacity:1;fill:#f58cac;fill-opacity:1;stroke:#314e55;stroke-width:1.96186435;stroke-opacity:1"
         d="m 154.57747,117.41758 c 22.89791,-41.232215 19.95854,-39.711104 76.7551,-39.720416 49.34752,-0.0081 51.80128,0.484059 60.52102,12.138675 4.77977,6.388545 21.2894,35.693471 21.2894,37.789121 0,0.59034 -37.08679,1.07335 -82.41508,1.07335 l -82.41508,0 6.26464,-11.28073 z"
         id="path4189"
         inkscape:connector-curvature="0" /><path
         style="opacity:1;fill:#f58cac;fill-opacity:1;stroke:#314e55;stroke-width:1.96186435;stroke-opacity:1"
         d="m 205.24044,55.12839 0,-8.82839 25.50424,0 25.50424,0 0,8.82839 0,8.82839 -25.50424,0 -25.50424,0 0,-8.82839 z"
         id="path4191"
         inkscape:connector-curvature="0" /><path
         style="opacity:1;fill:#f58cac;fill-opacity:1;stroke:#314e55;stroke-width:1.96186435;stroke-opacity:1"
         d="m 206.31466,28.152754 c 0.73624,-2.427807 3.15672,-6.400582 5.37885,-8.82839 3.55698,-3.886232 5.95294,-4.414195 20.0321,-4.414195 14.17951,0 16.47533,0.514598 20.2576,4.54064 2.34614,2.497352 4.26571,6.470127 4.26571,8.82839 0,4.19034 -0.58242,4.28775 -25.63644,4.28775 l -25.63645,0 1.33863,-4.414195 z"
         id="path4193"
         inkscape:connector-curvature="0" /></g></g><g
     id="g15" /><g
     id="g17" /><g
     id="g19" /><g
     id="g21" /><g
     id="g23" /><g
     id="g25" /><g
     id="g27" /><g
     id="g29" /><g
     id="g31" /><g
     id="g33" /><g
     id="g35" /><g
     id="g37" /><g
     id="g39" /><g
     id="g41" /><g
     id="g43" /></svg>