<?xml version="1.0" encoding="UTF-8" standalone="no"?>
<!-- Generator: Adobe Illustrator 19.0.0, SVG Export Plug-In . SVG Version: 6.00 Build 0)  -->

<svg
   xmlns:dc="http://purl.org/dc/elements/1.1/"
   xmlns:cc="http://creativecommons.org/ns#"
   xmlns:rdf="http://www.w3.org/1999/02/22-rdf-syntax-ns#"
   xmlns:svg="http://www.w3.org/2000/svg"
   xmlns="http://www.w3.org/2000/svg"
   xmlns:sodipodi="http://sodipodi.sourceforge.net/DTD/sodipodi-0.dtd"
   xmlns:inkscape="http://www.inkscape.org/namespaces/inkscape"
   version="1.1"
   id="Layer_1"
   x="0px"
   y="0px"
   viewBox="0 0 512 512"
   style="enable-background:new 0 0 512 512;"
   xml:space="preserve"
   inkscape:version="0.91 r13725"
   sodipodi:docname="Speakers svg icon.svg"><metadata
     id="metadata77"><rdf:RDF><cc:Work
         rdf:about=""><dc:format>image/svg+xml</dc:format><dc:type
           rdf:resource="http://purl.org/dc/dcmitype/StillImage" /></cc:Work></rdf:RDF></metadata><defs
     id="defs75" /><sodipodi:namedview
     pagecolor="#ffffff"
     bordercolor="#666666"
     borderopacity="1"
     objecttolerance="10"
     gridtolerance="10"
     guidetolerance="10"
     inkscape:pageopacity="0"
     inkscape:pageshadow="2"
     inkscape:window-width="978"
     inkscape:window-height="645"
     id="namedview73"
     showgrid="false"
     inkscape:zoom="0.4609375"
     inkscape:cx="-58.576271"
     inkscape:cy="256"
     inkscape:window-x="0"
     inkscape:window-y="0"
     inkscape:window-maximized="0"
     inkscape:current-layer="Layer_1" /><path
     style="fill:#314E55;"
     d="M212.426,0H16.34C10.324,0,5.447,4.878,5.447,10.894v424.851c0,6.016,4.878,10.894,10.894,10.894  h54.468v43.574H38.128c-6.016,0-10.894,4.878-10.894,10.894c0,6.016,4.878,10.894,10.894,10.894h43.574h65.362h43.574  c6.016,0,10.894-4.878,10.894-10.894c0-6.016-4.878-10.894-10.894-10.894h-32.681v-43.574h54.468  c6.016,0,10.894-4.878,10.894-10.894V10.894C223.319,4.878,218.442,0,212.426,0z"
     id="path3" /><g
     id="g5"><rect
       x="92.596"
       y="446.638"
       style="fill:#EAEAEA;"
       width="43.574"
       height="43.574"
       id="rect7" /><polygon
       style="fill:#EAEAEA;"
       points="201.532,424.851 147.064,424.851 81.702,424.851 27.234,424.851 27.234,21.787    201.532,21.787  "
       id="polygon9" /></g><path
     style="fill:#314E55;"
     d="M495.66,0H299.574c-6.016,0-10.894,4.878-10.894,10.894v424.851c0,6.016,4.878,10.894,10.894,10.894  h54.468v43.574h-32.681c-6.016,0-10.894,4.878-10.894,10.894c0,6.016,4.878,10.894,10.894,10.894h43.574h65.362h43.574  c6.016,0,10.894-4.878,10.894-10.894c0-6.016-4.878-10.894-10.894-10.894h-32.681v-43.574h54.468  c6.016,0,10.894-4.878,10.894-10.894V10.894C506.553,4.878,501.676,0,495.66,0z"
     id="path11" /><g
     id="g13"><rect
       x="375.83"
       y="446.638"
       style="fill:#EAEAEA;"
       width="43.574"
       height="43.574"
       id="rect15" /><polygon
       style="fill:#EAEAEA;"
       points="484.766,424.851 430.298,424.851 364.936,424.851 310.468,424.851 310.468,21.787    484.766,21.787  "
       id="polygon17" /></g><path
     style="fill:#314E55;"
     d="M114.383,392.17c36.043,0,65.362-29.319,65.362-65.362s-29.319-65.362-65.362-65.362  s-65.362,29.319-65.362,65.362S78.34,392.17,114.383,392.17z"
     id="path19" /><path
     style="fill:#314E55;"
     d="M397.617,392.17c36.043,0,65.362-29.319,65.362-65.362s-29.319-65.362-65.362-65.362  s-65.362,29.319-65.362,65.362S361.574,392.17,397.617,392.17z"
     id="path23" /><path
     style="fill:#314E55;"
     d="M114.383,239.66c24.027,0,43.574-19.548,43.574-43.574s-19.548-43.574-43.574-43.574  s-43.574,19.548-43.574,43.574S90.356,239.66,114.383,239.66z"
     id="path27" /><path
     style="fill:#314E55;"
     d="M397.617,239.66c24.027,0,43.574-19.548,43.574-43.574s-19.548-43.574-43.574-43.574  s-43.574,19.548-43.574,43.574S373.59,239.66,397.617,239.66z"
     id="path31" /><path
     style="fill:#314E55;"
     d="M114.383,141.617c24.027,0,43.574-19.548,43.574-43.574s-19.548-43.574-43.574-43.574  S70.809,74.016,70.809,98.043S90.356,141.617,114.383,141.617z"
     id="path35" /><path
     style="fill:#314E55;"
     d="M397.617,141.617c24.027,0,43.574-19.548,43.574-43.574s-19.548-43.574-43.574-43.574  s-43.574,19.548-43.574,43.574S373.59,141.617,397.617,141.617z"
     id="path39" /><g
     id="g43" /><g
     id="g45" /><g
     id="g47" /><g
     id="g49" /><g
     id="g51" /><g
     id="g53" /><g
     id="g55" /><g
     id="g57" /><g
     id="g59" /><g
     id="g61" /><g
     id="g63" /><g
     id="g65" /><g
     id="g67" /><g
     id="g69" /><g
     id="g71" /><path
     style="opacity:1;fill:#73c9c9;fill-opacity:1"
     d="m 102.3885,369.77799 c -6.188663,-1.41461 -12.517443,-5.19504 -18.756413,-11.20395 -29.15963,-28.08437 -10.19733,-75.54837 30.182263,-75.54837 26.62354,0 44.55845,17.58928 44.55845,43.69975 0,30.18215 -25.72927,49.96826 -55.9843,43.05257 z"
     id="path4237"
     inkscape:connector-curvature="0" /><path
     style="opacity:1;fill:#73c9c9;fill-opacity:1"
     d="m 99.11607,213.01203 c -11.22094,-10.39922 -9.96591,-26.86558 2.69809,-35.39986 8.60062,-5.79595 13.25229,-6.11397 22.84517,-1.56186 8.1394,3.8624 12.01831,10.91749 12.01831,21.85933 0,17.74575 -24.20724,27.47876 -37.56157,15.10239 z"
     id="path4239"
     inkscape:connector-curvature="0" /><path
     style="opacity:1;fill:#73c9c9;fill-opacity:1"
     d="m 99.565108,114.54033 c -19.17017,-17.128546 0.34267,-47.145377 24.218542,-37.255666 8.97881,3.719146 12.89439,10.072171 12.89439,20.921151 0,12.877205 -6.77372,20.322245 -19.82859,21.793715 -8.78948,0.9907 -10.76343,0.36724 -17.284342,-5.4592 z"
     id="path4241"
     inkscape:connector-curvature="0" /><path
     style="opacity:1;fill:#73c9c9;fill-opacity:1"
     d="m 386.944,118.4725 c -10.72573,-4.32836 -15.57148,-23.786971 -8.45413,-33.948408 7.7056,-11.001296 26.49007,-11.864788 36.07842,-1.658467 3.92623,4.179288 5.22832,7.997441 5.22832,15.331187 0,8.288978 -1.07148,10.723258 -7.08508,16.096408 -7.332,6.55114 -16.2898,8.00402 -25.76753,4.17928 z"
     id="path4243"
     inkscape:connector-curvature="0" /><path
     style="opacity:1;fill:#73c9c9;fill-opacity:1"
     d="m 381.66362,211.90926 c -10.77264,-10.77264 -7.81481,-29.4568 5.67672,-35.85895 9.59288,-4.55211 14.24455,-4.23409 22.84517,1.56186 19.03583,12.82825 10.43546,40.63868 -12.56749,40.63868 -7.73202,0 -10.85356,-1.24076 -15.9544,-6.34159 z"
     id="path4245"
     inkscape:connector-curvature="0" /><path
     style="opacity:1;fill:#73c9c9;fill-opacity:1"
     d="m 387.10383,370.294 c -19.13613,-4.71272 -31.63109,-19.52216 -33.05266,-39.17512 -1.13239,-15.65521 1.97018,-25.43646 11.01464,-34.72499 9.16268,-9.40995 19.03775,-13.36822 33.35089,-13.36822 37.20324,0 57.68832,44.89354 33.20768,72.77544 -10.57278,12.04173 -29.48057,18.19683 -44.52055,14.49289 z"
     id="path4247"
     inkscape:connector-curvature="0" /></svg>