<?xml version="1.0" encoding="UTF-8" standalone="no"?>
<!-- Generator: Adobe Illustrator 19.0.0, SVG Export Plug-In . SVG Version: 6.00 Build 0)  -->

<svg
   xmlns:dc="http://purl.org/dc/elements/1.1/"
   xmlns:cc="http://creativecommons.org/ns#"
   xmlns:rdf="http://www.w3.org/1999/02/22-rdf-syntax-ns#"
   xmlns:svg="http://www.w3.org/2000/svg"
   xmlns="http://www.w3.org/2000/svg"
   xmlns:sodipodi="http://sodipodi.sourceforge.net/DTD/sodipodi-0.dtd"
   xmlns:inkscape="http://www.inkscape.org/namespaces/inkscape"
   version="1.1"
   id="Layer_1"
   x="0px"
   y="0px"
   viewBox="0 0 512 512"
   style="enable-background:new 0 0 512 512;"
   xml:space="preserve"
   inkscape:version="0.91 r13725"
   sodipodi:docname="SportsIcon.svg"><metadata
     id="metadata63"><rdf:RDF><cc:Work
         rdf:about=""><dc:format>image/svg+xml</dc:format><dc:type
           rdf:resource="http://purl.org/dc/dcmitype/StillImage" /><dc:title></dc:title></cc:Work></rdf:RDF></metadata><defs
     id="defs61" /><sodipodi:namedview
     pagecolor="#ffffff"
     bordercolor="#666666"
     borderopacity="1"
     objecttolerance="10"
     gridtolerance="10"
     guidetolerance="10"
     inkscape:pageopacity="0"
     inkscape:pageshadow="2"
     inkscape:window-width="1033"
     inkscape:window-height="662"
     id="namedview59"
     showgrid="false"
     inkscape:zoom="0.4609375"
     inkscape:cx="256"
     inkscape:cy="256"
     inkscape:window-x="0"
     inkscape:window-y="0"
     inkscape:window-maximized="0"
     inkscape:current-layer="Layer_1" /><path
     style="fill:#314E55;"
     d="M486.255,48.096c-2.783-18.224-12.237-32.834-26.637-41.147c-14.391-8.322-31.784-9.189-48.949-2.491  c-16.444,6.424-30.808,19.154-40.444,35.845c-1.989,3.45-3.751,7.018-4.955,10.011L174.934,436.04l-0.634-0.366  c-5.393-3.121-11.69-3.96-17.713-2.318c-6.032,1.615-11.06,5.485-14.181,10.887c-6.433,11.151-2.61,25.46,8.532,31.903  l56.697,32.724c3.586,2.071,7.574,3.13,11.617,3.13c2.035,0,4.079-0.265,6.087-0.803c6.032-1.615,11.06-5.485,14.181-10.887  c6.433-11.151,2.61-25.46-8.523-31.903l-0.63-0.364l238.705-357.447c2.3-3.021,4.435-6.224,6.361-9.554  C485.069,84.351,488.911,65.553,486.255,48.096z"
     id="path3" /><g
     id="g5"><path
       style="fill:#E4AD40;"
       d="M223.331,490.966c-0.84,1.46-2.135,1.989-2.829,2.181c-0.703,0.164-2.062,0.383-3.522-0.465   l-56.688-32.715c-2.263-1.314-3.012-4.116-1.697-6.379c0.84-1.46,2.145-1.999,2.838-2.181c0.301-0.082,0.73-0.164,1.232-0.164   c0.666,0,1.469,0.146,2.291,0.62l56.688,32.724C223.897,485.892,224.645,488.694,223.331,490.966z"
       id="path7" /><polygon
       style="fill:#E4AD40;"
       points="202.648,452.041 191.155,445.402 264.35,297.047 306.017,321.104 214.143,458.678  "
       id="polygon9" /><path
       style="fill:#E4AD40;"
       d="M459.244,91.697c-1.561,2.71-3.313,5.329-5.183,7.775c-0.128,0.155-0.246,0.328-0.365,0.493   L316.42,305.526l-43.781-25.279l109.65-222.241c1.159-2.811,2.546-5.621,4.125-8.359c7.52-13.031,18.552-22.896,31.054-27.778   c11.781-4.608,23.425-4.161,32.806,1.269c9.381,5.411,15.595,15.276,17.503,27.778C469.802,64.184,466.772,78.666,459.244,91.697z"
       id="path11" /></g><path
     style="fill:#314E55;"
     d="M174.437,111.025c0-41.22-33.536-74.756-74.756-74.756s-74.756,33.536-74.756,74.756  s33.536,74.756,74.756,74.756S174.437,152.245,174.437,111.025z"
     id="path13" /><g
     id="g15"><path
       style="fill:#5ECB66;"
       d="M155.748,111.025c0,14.195-5.344,27.133-14.07,37.021c-8.936-10.178-13.964-23.38-13.964-37.021   c0-13.83,4.946-26.781,13.978-37.006C150.41,83.904,155.748,96.839,155.748,111.025z"
       id="path17" /><path
       style="fill:#5ECB66;"
       d="M43.613,111.025c0-14.799,5.805-28.239,15.205-38.269c9.777,10.412,15.183,23.853,15.183,38.269   c0,14.226-5.516,27.933-15.181,38.271C49.419,139.266,43.613,125.826,43.613,111.025z"
       id="path19" /><path
       style="fill:#5ECB66;"
       d="M73.769,160.698c12.087-13.611,18.922-31.332,18.922-49.672c0-18.59-6.714-35.98-18.949-49.659   c7.765-4.072,16.579-6.408,25.939-6.408c9.988,0,19.355,2.655,27.486,7.253c-11.745,13.545-18.141,30.618-18.141,48.815   c0,17.951,6.562,35.304,18.173,48.795c-8.139,4.607-17.516,7.272-27.518,7.272C90.331,167.092,81.527,164.761,73.769,160.698z"
       id="path21" /></g><g
     id="g23"><path
       style="fill:#314E55;"
       d="M175.085,49.939c1.195,0,2.409-0.228,3.586-0.712l55.419-23.015   c4.764-1.98,7.027-7.446,5.047-12.219c-1.989-4.764-7.437-7.018-12.219-5.047l-55.419,23.015c-4.764,1.98-7.027,7.446-5.047,12.219   C167.949,47.776,171.425,49.939,175.085,49.939z"
       id="path25" /><path
       style="fill:#314E55;"
       d="M218.896,59.229l-33.491,14.437c-4.745,2.044-6.926,7.538-4.882,12.274   c1.524,3.541,4.964,5.649,8.587,5.649c1.232,0,2.482-0.246,3.687-0.766l33.491-14.437c4.745-2.044,6.926-7.538,4.882-12.274   C229.126,59.366,223.641,57.167,218.896,59.229z"
       id="path27" /></g><g
     id="g29" /><g
     id="g31" /><g
     id="g33" /><g
     id="g35" /><g
     id="g37" /><g
     id="g39" /><g
     id="g41" /><g
     id="g43" /><g
     id="g45" /><g
     id="g47" /><g
     id="g49" /><g
     id="g51" /><g
     id="g53" /><g
     id="g55" /><g
     id="g57" /><path
     style="opacity:1;fill:#f58cac;fill-opacity:1"
     d="m 80.350644,164.64251 c -2.939349,-1.17332 -5.669889,-2.45893 -6.067866,-2.85691 -0.397977,-0.39797 2.89331,-7.30374 7.313971,-15.34615 13.538368,-24.63004 12.561604,-53.662227 -2.554855,-75.937576 -2.90355,-4.278621 -5.279182,-8.557694 -5.279182,-9.509053 0,-2.756208 15.856364,-6.755533 26.784068,-6.755533 10.20728,0 27.45322,5.518992 27.45322,8.785492 0,0.993241 -0.99484,2.420734 -2.21075,3.172208 -1.21591,0.751474 -4.87223,6.42265 -8.12516,12.602613 -5.23641,9.94819 -5.91428,13.599006 -5.91317,31.846469 0.001,21.13544 1.77276,27.20976 12.81355,43.93726 l 3.94119,5.97117 -7.77637,3.24917 c -8.68891,3.63046 -32.165505,4.11933 -40.378646,0.84084 z"
     id="path4219"
     inkscape:connector-curvature="0" /><path
     style="opacity:1;fill:#f58cac;fill-opacity:1"
     d="m 135.66109,141.50864 c -7.20869,-10.89307 -10.42757,-28.2827 -7.58395,-40.97148 2.53671,-11.319315 9.94619,-26.774448 12.83617,-26.774448 3.00913,0 10.01739,10.911069 13.09128,20.381657 4.14975,12.785261 1.74518,33.800751 -5.22912,45.701481 -3.17456,5.41699 -6.20506,9.84907 -6.73445,9.84907 -0.52938,0 -3.40035,-3.68383 -6.37993,-8.18628 z"
     id="path4221"
     inkscape:connector-curvature="0" /><path
     style="opacity:1;fill:#f58cac;fill-opacity:1"
     d="M 50.574738,139.43119 C 39.58407,120.67703 41.37855,91.721997 54.507267,75.977423 c 4.424678,-5.306282 4.529095,-5.320849 7.775511,-1.084746 11.39819,14.872984 15.574261,39.849533 9.29324,55.581683 -3.638315,9.11293 -10.504163,19.22056 -13.056024,19.22056 -1.06167,0 -4.637035,-4.61868 -7.945256,-10.26373 z"
     id="path4223"
     inkscape:connector-curvature="0" /><path
     style="opacity:1;fill:#73c9c9;fill-opacity:1"
     d="m 294.53796,293.32981 c -11.61769,-6.80936 -21.13633,-12.98267 -21.15255,-13.71845 -0.0162,-0.73579 25.72719,-53.56893 57.20757,-117.40699 C 390.5805,40.557579 395.36057,32.542994 413.02627,23.991172 448.76813,6.6888368 478.84082,38.83929 464.65448,79.186441 462.47124,85.39576 430.02987,136.18338 388.78217,197.9661 c -39.63205,59.36271 -72.29741,107.88994 -72.58971,107.83829 -0.29229,-0.0516 -10.03682,-5.66522 -21.6545,-12.47458 z"
     id="path4227"
     inkscape:connector-curvature="0" /><path
     style="opacity:1;fill:#73c9c9;fill-opacity:1"
     d="m 201.76271,451.97936 c -5.36949,-3.15826 -10.03092,-5.93928 -10.35874,-6.18003 -0.32782,-0.24075 15.49953,-32.92615 35.1719,-72.63422 19.67236,-39.70808 36.11408,-73.23497 36.53716,-74.5042 0.89303,-2.67908 41.88963,20.89875 41.31956,23.76356 -0.67778,3.40613 -89.74451,135.33893 -91.35186,135.31772 -0.85542,-0.0113 -5.94853,-2.60456 -11.31802,-5.76283 z"
     id="path4229"
     inkscape:connector-curvature="0" /><path
     style="opacity:1;fill:#73c9c9;fill-opacity:1"
     d="m 187.11864,475.67503 c -27.13994,-15.78362 -32.7079,-20.86706 -25.77145,-23.52883 4.22952,-1.62302 60.80101,31.87703 61.69824,36.53597 1.33361,6.92491 -6.58035,4.05969 -35.92679,-13.00714 z"
     id="path4231"
     inkscape:connector-curvature="0" /></svg>