<?xml version="1.0" encoding="UTF-8" standalone="no"?>
<!-- Generator: Adobe Illustrator 19.0.0, SVG Export Plug-In . SVG Version: 6.00 Build 0)  -->

<svg
   xmlns:dc="http://purl.org/dc/elements/1.1/"
   xmlns:cc="http://creativecommons.org/ns#"
   xmlns:rdf="http://www.w3.org/1999/02/22-rdf-syntax-ns#"
   xmlns:svg="http://www.w3.org/2000/svg"
   xmlns="http://www.w3.org/2000/svg"
   xmlns:sodipodi="http://sodipodi.sourceforge.net/DTD/sodipodi-0.dtd"
   xmlns:inkscape="http://www.inkscape.org/namespaces/inkscape"
   version="1.1"
   id="Layer_1"
   x="0px"
   y="0px"
   viewBox="0 0 512 512"
   style="enable-background:new 0 0 512 512;"
   xml:space="preserve"
   inkscape:version="0.91 r13725"
   sodipodi:docname="Theater svg icon.svg"><metadata
     id="metadata61"><rdf:RDF><cc:Work
         rdf:about=""><dc:format>image/svg+xml</dc:format><dc:type
           rdf:resource="http://purl.org/dc/dcmitype/StillImage" /></cc:Work></rdf:RDF></metadata><defs
     id="defs59" /><sodipodi:namedview
     pagecolor="#ffffff"
     bordercolor="#666666"
     borderopacity="1"
     objecttolerance="10"
     gridtolerance="10"
     guidetolerance="10"
     inkscape:pageopacity="0"
     inkscape:pageshadow="2"
     inkscape:window-width="749"
     inkscape:window-height="533"
     id="namedview57"
     showgrid="false"
     inkscape:zoom="0.4609375"
     inkscape:cx="256"
     inkscape:cy="256"
     inkscape:window-x="0"
     inkscape:window-y="0"
     inkscape:window-maximized="0"
     inkscape:current-layer="g19" /><path
     style="fill:#314E55;"
     d="M503.068,98.875c-0.82-2.96-3.033-5.333-5.939-6.34c-2.878-1.016-6.103-0.524-8.58,1.293  c-37.528,27.568-85.076,36.408-130.446,24.256c-48.814-13.08-88-49.041-104.805-96.197c-1.047-2.929-3.48-5.142-6.495-5.907  c-2.997-0.747-6.203,0.023-8.526,2.1c-36.745,32.969-64.736,80.034-78.8,132.519C126.95,271.964,261.222,410.134,266.951,415.959  c1.776,1.803,4.181,2.783,6.649,2.783c0.829,0,1.667-0.109,2.487-0.337c7.87-2.177,193.233-54.707,225.751-176.072  C514.955,193.401,515.383,143.795,503.068,98.875z"
     id="path3" /><path
     style="fill:#73c9c9;fill-opacity:1"
     d="M483.821,237.505C456.96,337.738,306.765,389.353,276.442,398.821  c-21.533-23.364-125.81-143.162-98.948-243.395c11.859-44.259,34.212-84.297,63.524-114.164  c21.059,46.441,62.131,81.414,112.256,94.84c46.4,12.442,94.804,5.274,134.901-19.534  C496.309,154.857,494.843,196.38,483.821,237.505z"
     id="path5" /><g
     id="g7"
     transform="translate(0,1.5180524e-6)"><path
       style="fill:#314e55"
       d="m 447.004,178.162 c -41.6,-7.915 -71.057,18.805 -72.287,19.948 -3.78,3.498 -4.008,9.4 -0.501,13.18 1.84,1.981 4.336,2.988 6.841,2.988 2.268,0 4.545,-0.82 6.34,-2.487 0.228,-0.214 23.655,-21.506 56.11,-15.303 5.046,0.929 9.938,-2.355 10.912,-7.415 0.965,-5.059 -2.36,-9.946 -7.415,-10.911 z"
       id="path9"
       inkscape:connector-curvature="0" /><path
       style="fill:#314e55"
       d="m 279.002,182.785 c 1.248,3.98 4.928,6.535 8.899,6.535 0.911,0 1.84,-0.137 2.76,-0.423 4.919,-1.521 7.67,-6.745 6.148,-11.668 -0.492,-1.603 -12.634,-39.482 -52.63,-53.414 -4.873,-1.694 -10.184,0.874 -11.878,5.738 -1.694,4.864 0.874,10.184 5.738,11.878 30.907,10.767 40.571,40.106 40.963,41.354 z"
       id="path11"
       inkscape:connector-curvature="0" /><path
       style="fill:#314e55"
       d="m 352.455,300.315 c -13.408,11.217 -33.611,15.007 -52.703,9.883 -19.265,-5.16 -34.905,-18.65 -40.816,-35.21 -1.722,-4.846 -7.096,-7.378 -11.914,-5.647 -4.855,1.735 -7.387,7.068 -5.647,11.923 8.061,22.576 28.082,40.129 53.55,46.951 7.369,1.977 14.793,2.942 22.07,2.942 17.689,0 34.504,-5.711 47.429,-16.542 3.953,-3.307 4.472,-9.191 1.166,-13.139 -3.289,-3.935 -9.191,-4.477 -13.135,-1.161 z"
       id="path13"
       inkscape:connector-curvature="0" /><path
       style="fill:#314e55"
       d="m 128.179,293.852 c -2.669,-1.521 -5.912,-1.626 -8.681,-0.296 -2.76,1.339 -4.691,3.953 -5.155,6.986 -3.27,21.369 -15.977,39.883 -34.877,50.79 -20.321,11.732 -44.979,12.798 -65.984,2.837 -2.815,-1.339 -6.103,-1.184 -8.772,0.41 -2.669,1.589 -4.372,4.404 -4.536,7.51 -1.385,25.309 5.52,52.507 19.42,76.586 32.436,56.178 130.401,57.59 134.554,57.622 0.027,0 0.045,0 0.073,0 3.361,0 6.458,-1.803 8.116,-4.727 2.049,-3.616 49.807,-89.161 17.379,-145.339 -12.961,-22.438 -30.778,-40.551 -51.537,-52.379 z"
       id="path15"
       inkscape:connector-curvature="0" /></g><path
     style="fill:#f58cac;fill-opacity:1"
     d="M148.71,477.421c-20.267-1.139-89.794-7.952-112.957-48.071  c-9.737-16.851-15.531-35.346-16.824-53.236c23.2,6.699,48.449,3.73,69.864-8.621c19.711-11.381,34.094-29.344,40.807-50.494  c13.372,9.851,24.967,22.991,33.957,38.562C186.712,395.679,157.856,459.299,148.71,477.421z"
     id="path17" /><g
     id="g19"
     transform="translate(0,4.7854099e-6)"><path
       style="fill:#314e55"
       d="m 119.827,387.067 c 0.146,0.005 0.291,0.009 0.446,0.009 4.919,0 9.036,-3.89 9.309,-8.854 0.027,-0.551 0.884,-13.649 12.233,-21.36 4.254,-2.897 5.365,-8.699 2.468,-12.957 -2.888,-4.254 -8.681,-5.37 -12.962,-2.473 -19.283,13.112 -20.34,35.073 -20.376,35.998 -0.2,5.119 3.772,9.395 8.882,9.637 z"
       id="path21"
       inkscape:connector-curvature="0" /><path
       style="fill:#314e55"
       d="m 83.264,393.406 c -0.811,-0.428 -20.376,-10.484 -41.372,-0.346 -4.636,2.241 -6.576,7.82 -4.336,12.456 2.241,4.632 7.797,6.599 12.461,4.34 12.297,-5.952 23.993,-0.232 24.612,0.082 1.366,0.711 2.833,1.047 4.281,1.047 3.352,0 6.586,-1.808 8.262,-4.978 2.405,-4.558 0.656,-10.196 -3.908,-12.601 z"
       id="path23"
       inkscape:connector-curvature="0" /><path
       style="fill:#314e55"
       d="m 149.057,412.298 c -5.219,-0.41 -9.655,3.343 -10.111,8.471 -0.628,7.114 -5.474,14.1 -12.652,18.24 -7.232,4.181 -15.749,4.864 -22.244,1.785 -4.627,-2.195 -10.211,-0.223 -12.415,4.44 -2.213,4.655 -0.219,10.216 4.436,12.42 5.265,2.496 11.04,3.73 16.915,3.73 7.651,0 15.485,-2.09 22.635,-6.217 12.543,-7.237 20.731,-19.484 21.906,-32.76 0.456,-5.132 -3.342,-9.659 -8.47,-10.109 z"
       id="path25"
       inkscape:connector-curvature="0" /></g><g
     id="g27" /><g
     id="g29" /><g
     id="g31" /><g
     id="g33" /><g
     id="g35" /><g
     id="g37" /><g
     id="g39" /><g
     id="g41" /><g
     id="g43" /><g
     id="g45" /><g
     id="g47" /><g
     id="g49" /><g
     id="g51" /><g
     id="g53" /><g
     id="g55" /></svg>